G04 Filename: d:\work\mask_1 *
G04 Creator: GC-CAM (TM) 4.1.4  Mon Jun 29 19:03:02 2020 *
G04 This file contains layer(s): *
G04 Layer 8: D:\WORK\\UFBMOD_2V1.STOPTOP *
%FSLAX35Y35*%
G04 Units: mm   *
%MOMM*%
G71*
%SFA1.00000B1.00000*%
%OFA0.00000B0.00000*%
G75*
%AD*%
G04 D999 (position 305 of UNTITLED):0.010000 Ext. Poly *
%ADD999C,0.010000*%
G04 D1074 (position 341 of UNTITLED):5.999988X0.999998 Rectangle *
%ADD1074R,5.999988X0.999998*%
G04 D1075 (position 342 of UNTITLED):0.999998X5.999988 Rectangle *
%ADD1075R,0.999998X5.999988*%
G04 D1076 (position 343 of UNTITLED):0.759968X0.959866 Rectangle *
%ADD1076R,0.759968X0.959866*%
G04 D1077 (position 344 of UNTITLED):1.899920X0.999998 Rectangle *
%ADD1077R,1.899920X0.999998*%
G04 D1078 (position 345 of UNTITLED):2.050034X0.999998 Rectangle *
%ADD1078R,2.050034X0.999998*%
G04 D1079 (position 346 of UNTITLED):0.999998X2.050034 Rectangle *
%ADD1079R,0.999998X2.050034*%
G04 D1080 (position 347 of UNTITLED):1.100074 Round     *
%ADD1080C,1.100074*%
G04 D1081 (position 348 of UNTITLED):2.029968 Round     *
%ADD1081C,2.029968*%
G04 D1082 (position 349 of UNTITLED):0.100000 Round     *
%ADD1082C,0.100000*%
G04 D1083 (position 350 of UNTITLED):0.762000 Round     *
%ADD1083C,0.762000*%
G04 D1084 (position 351 of UNTITLED):0.662000 Round     *
%ADD1084C,0.662000*%
G04 D1085 (position 352 of UNTITLED):5.904001 Round     *
%ADD1085C,5.904001*%
G04 D1086 (position 353 of UNTITLED):3.461995X1.961998 Rectangle *
%ADD1086R,3.461995X1.961998*%
G04 D1087 (position 354 of UNTITLED):1.561998X1.361999 Rectangle *
%ADD1087R,1.561998X1.361999*%
G04 D1088 (position 355 of UNTITLED):1.864995X1.661998 Rectangle *
%ADD1088R,1.864995X1.661998*%
G04 D1089 (position 356 of UNTITLED):0.762000X0.962000 Rectangle *
%ADD1089R,0.762000X0.962000*%
G04 D1090 (position 357 of UNTITLED):0.962000X0.762000 Rectangle *
%ADD1090R,0.962000X0.762000*%
G04 D1091 (position 358 of UNTITLED):1.761998 Square    *
%ADD1091R,1.761998X1.761998*%
G04 D1092 (position 359 of UNTITLED):1.061999X1.161999 Rectangle *
%ADD1092R,1.061999X1.161999*%
G04 D1093 (position 360 of UNTITLED):1.161999X1.061999 Rectangle *
%ADD1093R,1.161999X1.061999*%
G04 D1094 (position 361 of UNTITLED):1.332001 Round     *
%ADD1094C,1.332001*%
G04 D1095 (position 362 of UNTITLED):1.586001X4.380001 Rectangle *
%ADD1095R,1.586001X4.380001*%
G04 D1096 (position 363 of UNTITLED):0.411988X1.861998 Rectangle *
%ADD1096R,0.411988X1.861998*%
G04 D1097 (position 364 of UNTITLED):1.512011 Round     *
%ADD1097C,1.512011*%
G04 D1098 (position 365 of UNTITLED):1.312012 Square    *
%ADD1098R,1.312012X1.312012*%
G04 D1099 (position 366 of UNTITLED):1.661998X2.061997 Rectangle *
%ADD1099R,1.661998X2.061997*%
G04 D1100 (position 367 of UNTITLED):1.991995 Square    *
%ADD1100R,1.991995X1.991995*%
G04 D37 (position 368 of UNTITLED):1.812011 Round     *
%ADD37C,1.812011*%
G04 D38 (position 369 of UNTITLED):0.362001X1.561998 Rectangle *
%ADD38R,0.362001X1.561998*%
G04 D39 (position 370 of UNTITLED):2.261997 Round     *
%ADD39C,2.261997*%
G04 D40 (position 371 of UNTITLED):1.561998X0.362001 Rectangle *
%ADD40R,1.561998X0.362001*%
G04 D41 (position 372 of UNTITLED):1.861998X1.461999 Rectangle *
%ADD41R,1.861998X1.461999*%
G04 D42 (position 373 of UNTITLED):1.461999X1.861998 Rectangle *
%ADD42R,1.461999X1.861998*%
G04 D43 (position 374 of UNTITLED):1.361999X1.561998 Rectangle *
%ADD43R,1.361999X1.561998*%
G04 D44 (position 375 of UNTITLED):1.478001 Square    *
%ADD44R,1.478001X1.478001*%
G04 D45 (position 376 of UNTITLED):1.261999 Square    *
%ADD45R,1.261999X1.261999*%
G04 D46 (position 377 of UNTITLED):3.761994 Round     *
%ADD46C,3.761994*%
G04 D47 (position 378 of UNTITLED):1.461999X1.061999 Rectangle *
%ADD47R,1.461999X1.061999*%
G04 D48 (position 379 of UNTITLED):1.742008 Round     *
%ADD48C,1.742008*%
%IPPOS*%
G04 Layer 8: D:\WORK\\UFBMOD_2V1.STOPTOP *
%LN(08)D:\WORK\\UFBMOD_2V1.STOPTOP*%
%LPD*%
X0Y0D02*
D999*
X-18039961Y-5474167D02*
G36*
X-18040873Y-5472904D01*
X-18040962Y-5472587*
X-18041010Y-5472272*
X-18040992Y-5420923*
X-18040456Y-5419658*
X-18039473Y-5418868*
X-18039047Y-5418711*
X-17991803*
X-17990525Y-5419501*
X-17989885Y-5420763*
X-17989839Y-5421081*
X-17989824Y-5471957*
G02X-17991876Y-5474642I-2700J-63*
G01X-18038973*
X-18039430Y-5474484*
X-18039730Y-5474327*
X-18039961Y-5474167*
G37*
X-17959951D02*
G36*
X-17960863Y-5472904D01*
X-17960952Y-5472587*
X-17961000Y-5472272*
X-17960982Y-5420923*
X-17960446Y-5419658*
X-17959463Y-5418868*
X-17959037Y-5418711*
X-17911793*
X-17910515Y-5419501*
X-17909875Y-5420763*
X-17909829Y-5421081*
X-17909814Y-5471957*
G02X-17911866Y-5474642I-2700J-63*
G01X-17958963*
X-17959420Y-5474484*
X-17959720Y-5474327*
X-17959951Y-5474167*
G37*
Y-5319171D02*
G36*
X-17960863Y-5317906D01*
X-17960952Y-5317591*
X-17961000Y-5317274*
X-17960982Y-5265925*
X-17960446Y-5264660*
X-17959463Y-5263870*
X-17959037Y-5263713*
X-17911793*
X-17910515Y-5264503*
X-17909875Y-5265765*
X-17909829Y-5266082*
X-17909814Y-5316959*
G02X-17911866Y-5319643I-2699J-63*
G01X-17958963*
X-17959420Y-5319486*
X-17959720Y-5319328*
X-17959951Y-5319171*
G37*
X-18039961D02*
G36*
X-18040873Y-5317906D01*
X-18040962Y-5317591*
X-18041010Y-5317274*
X-18040992Y-5265925*
X-18040456Y-5264660*
X-18039473Y-5263870*
X-18039047Y-5263713*
X-17991803*
X-17990525Y-5264503*
X-17989885Y-5265765*
X-17989839Y-5266082*
X-17989824Y-5316959*
G02X-17991876Y-5319643I-2699J-63*
G01X-18038973*
X-18039430Y-5319486*
X-18039730Y-5319328*
X-18039961Y-5319171*
G37*
X-12408072Y-1864659D02*
G36*
X-12408512Y-1863552D01*
X-12408507Y-1776178*
G02X-12407127Y-1774123I1947J184*
G01X-12375687*
X-12374694Y-1774756*
X-12374300Y-1775863*
X-12374303Y-1863394*
X-12374524Y-1864342*
X-12375100Y-1864974*
X-12375390Y-1865132*
X-12407422*
X-12407714Y-1864974*
X-12407915Y-1864817*
X-12408072Y-1864659*
G37*
X-12458085D02*
G36*
X-12458524Y-1863552D01*
X-12458519Y-1776178*
G02X-12457140Y-1774123I1946J184*
G01X-12425700*
X-12424707Y-1774756*
X-12424313Y-1775863*
X-12424315Y-1863394*
X-12424536Y-1864342*
X-12425113Y-1864974*
X-12425405Y-1865132*
X-12457437*
X-12457727Y-1864974*
X-12457930Y-1864817*
X-12458085Y-1864659*
G37*
X-12556446Y-1864499D02*
G36*
X-12557935Y-1862919D01*
X-12558511Y-1860867*
X-12558519Y-1778705*
G02X-12551752Y-1774045I4763J327*
G01X-12528095Y-1774123*
X-12527439Y-1774281*
X-12525636Y-1775388*
X-12524511Y-1777283*
X-12524399Y-1777758*
X-12524338Y-1778233*
X-12524371Y-1861339*
X-12525098Y-1863237*
X-12526660Y-1864659*
X-12527381Y-1864974*
X-12527981Y-1865132*
X-12554859*
X-12555458Y-1864974*
X-12555862Y-1864817*
X-12556446Y-1864499*
G37*
D1080*
X-11093036Y-1368671D02*
X-11092985Y-1366309D01*
X-11092832Y-1363972*
X-11092578Y-1361635*
X-11092223Y-1359324*
X-11091791Y-1357012*
X-11091232Y-1354726*
X-11090597Y-1352466*
X-11089861Y-1350230*
X-11089022Y-1348046*
X-11088083Y-1345887*
X-11087067Y-1343753*
X-11085949Y-1341696*
X-11084755Y-1339664*
X-11083485Y-1337683*
X-11082114Y-1335778*
X-11080666Y-1333924*
X-11079142Y-1332146*
X-11077542Y-1330418*
X-11075865Y-1328767*
X-11074138Y-1327193*
X-11072335Y-1325669*
X-11070455Y-1324246*
X-11068525Y-1322900*
X-11066543Y-1321655*
X-11064511Y-1320462*
X-11062429Y-1319395*
X-11060295Y-1318379*
X-11058136Y-1317490*
X-11055926Y-1316677*
X-11053691Y-1315940*
X-11051430Y-1315331*
X-11049144Y-1314797*
X-11046833Y-1314391*
X-11044496Y-1314061*
X-11042159Y-1313832*
X-11039797Y-1313705*
X-11037460Y-1313680*
X-11035098Y-1313756*
X-11032761Y-1313934*
X-11030425Y-1314213*
X-11028113Y-1314594*
X-11025802Y-1315051*
X-11023516Y-1315636*
X-11021281Y-1316296*
X-11019045Y-1317058*
X-11016861Y-1317922*
X-11014727Y-1318861*
X-11012619Y-1319928*
X-11010562Y-1321046*
X-11008530Y-1322265*
X-11006574Y-1323560*
X-11004694Y-1324957*
X-11002840Y-1326431*
X-11001062Y-1327955*
X-10999360Y-1329580*
X-10997735Y-1331257*
X-10996160Y-1333035*
X-10994687Y-1334838*
X-10993290Y-1336718*
X-10991969Y-1338673*
X-10990724Y-1340680*
X-10989556Y-1342712*
X-10988489Y-1344820*
X-10987524Y-1346954*
X-10986635Y-1349138*
X-10985848Y-1351348*
X-10985162Y-1353583*
X-10984578Y-1355869*
X-10984070Y-1358155*
X-10983663Y-1360467*
X-10983358Y-1362803*
X-10983155Y-1365140*
X-10983054Y-1367502*
Y-1369839*
X-10983155Y-1372201*
X-10983358Y-1374538*
X-10983663Y-1376875*
X-10984070Y-1379186*
X-10984578Y-1381472*
X-10985162Y-1383758*
X-10985848Y-1385994*
X-10986635Y-1388203*
X-10987524Y-1390388*
X-10988489Y-1392521*
X-10989556Y-1394630*
X-10990724Y-1396662*
X-10991969Y-1398668*
X-10993290Y-1400624*
X-10994687Y-1402504*
X-10996160Y-1404307*
X-10997735Y-1406085*
X-10999360Y-1407761*
X-11001062Y-1409387*
X-11002840Y-1410911*
X-11004694Y-1412384*
X-11006574Y-1413781*
X-11008530Y-1415077*
X-11010536Y-1416296*
X-11012619Y-1417413*
X-11014727Y-1418480*
X-11016861Y-1419420*
X-11019045Y-1420284*
X-11021281Y-1421046*
X-11023516Y-1421706*
X-11025802Y-1422290*
X-11028113Y-1422747*
X-11030425Y-1423128*
X-11032761Y-1423408*
X-11035098Y-1423586*
X-11037460Y-1423662*
X-11039797Y-1423636*
X-11042159Y-1423509*
X-11044496Y-1423281*
X-11046833Y-1422951*
X-11049144Y-1422544*
X-11051430Y-1422011*
X-11053691Y-1421401*
X-11055926Y-1420665*
X-11058136Y-1419852*
X-11060295Y-1418963*
X-11062429Y-1417947*
X-11064511Y-1416880*
X-11066543Y-1415686*
X-11068525Y-1414442*
X-11070455Y-1413095*
X-11072335Y-1411673*
X-11074138Y-1410149*
X-11075865Y-1408574*
X-11077542Y-1406923*
X-11079142Y-1405196*
X-11080666Y-1403418*
X-11082114Y-1401564*
X-11083485Y-1399659*
X-11084755Y-1397678*
X-11085949Y-1395646*
X-11087067Y-1393588*
X-11088083Y-1391455*
X-11089022Y-1389296*
X-11089861Y-1387111*
X-11090597Y-1384876*
X-11091232Y-1382615*
X-11091791Y-1380329*
X-11092223Y-1378018*
X-11092578Y-1375707*
X-11092832Y-1373370*
X-11092985Y-1371033*
X-11093036Y-1368671*
X-10219911Y-8956921D02*
X-10219860Y-8954559D01*
X-10219707Y-8952222*
X-10219453Y-8949885*
X-10219098Y-8947574*
X-10218666Y-8945262*
X-10218107Y-8942976*
X-10217472Y-8940716*
X-10216736Y-8938480*
X-10215897Y-8936296*
X-10214958Y-8934137*
X-10213942Y-8932003*
X-10212824Y-8929946*
X-10211630Y-8927914*
X-10210360Y-8925933*
X-10208989Y-8924028*
X-10207541Y-8922174*
X-10206017Y-8920396*
X-10204417Y-8918668*
X-10202740Y-8917017*
X-10201013Y-8915443*
X-10199210Y-8913919*
X-10197330Y-8912496*
X-10195400Y-8911150*
X-10193418Y-8909905*
X-10191386Y-8908712*
X-10189304Y-8907645*
X-10187170Y-8906629*
X-10185011Y-8905740*
X-10182801Y-8904927*
X-10180566Y-8904190*
X-10178305Y-8903581*
X-10176019Y-8903047*
X-10173708Y-8902641*
X-10171371Y-8902311*
X-10169034Y-8902082*
X-10166672Y-8901955*
X-10164335Y-8901930*
X-10161973Y-8902006*
X-10159636Y-8902184*
X-10157300Y-8902463*
X-10154988Y-8902844*
X-10152677Y-8903301*
X-10150391Y-8903886*
X-10148156Y-8904546*
X-10145920Y-8905308*
X-10143736Y-8906172*
X-10141602Y-8907111*
X-10139494Y-8908178*
X-10137437Y-8909296*
X-10135405Y-8910515*
X-10133449Y-8911810*
X-10131569Y-8913207*
X-10129715Y-8914681*
X-10127937Y-8916205*
X-10126235Y-8917830*
X-10124610Y-8919507*
X-10123035Y-8921285*
X-10121562Y-8923088*
X-10120165Y-8924968*
X-10118844Y-8926923*
X-10117599Y-8928930*
X-10116431Y-8930962*
X-10115364Y-8933070*
X-10114399Y-8935204*
X-10113510Y-8937388*
X-10112723Y-8939598*
X-10112037Y-8941833*
X-10111453Y-8944119*
X-10110945Y-8946405*
X-10110538Y-8948717*
X-10110233Y-8951053*
X-10110030Y-8953390*
X-10109929Y-8955752*
Y-8958089*
X-10110030Y-8960451*
X-10110233Y-8962788*
X-10110538Y-8965125*
X-10110945Y-8967436*
X-10111453Y-8969722*
X-10112037Y-8972008*
X-10112723Y-8974244*
X-10113510Y-8976453*
X-10114399Y-8978638*
X-10115364Y-8980771*
X-10116431Y-8982880*
X-10117599Y-8984912*
X-10118844Y-8986918*
X-10120165Y-8988874*
X-10121562Y-8990754*
X-10123035Y-8992557*
X-10124610Y-8994335*
X-10126235Y-8996011*
X-10127937Y-8997637*
X-10129715Y-8999161*
X-10131569Y-9000634*
X-10133449Y-9002031*
X-10135405Y-9003327*
X-10137411Y-9004546*
X-10139494Y-9005663*
X-10141602Y-9006730*
X-10143736Y-9007670*
X-10145920Y-9008534*
X-10148156Y-9009296*
X-10150391Y-9009956*
X-10152677Y-9010540*
X-10154988Y-9010997*
X-10157300Y-9011378*
X-10159636Y-9011658*
X-10161973Y-9011836*
X-10164335Y-9011912*
X-10166672Y-9011886*
X-10169034Y-9011759*
X-10171371Y-9011531*
X-10173708Y-9011201*
X-10176019Y-9010794*
X-10178305Y-9010261*
X-10180566Y-9009651*
X-10182801Y-9008915*
X-10185011Y-9008102*
X-10187170Y-9007213*
X-10189304Y-9006197*
X-10191386Y-9005130*
X-10193418Y-9003936*
X-10195400Y-9002692*
X-10197330Y-9001345*
X-10199210Y-8999923*
X-10201013Y-8998399*
X-10202740Y-8996824*
X-10204417Y-8995173*
X-10206017Y-8993446*
X-10207541Y-8991668*
X-10208989Y-8989814*
X-10210360Y-8987909*
X-10211630Y-8985928*
X-10212824Y-8983896*
X-10213942Y-8981838*
X-10214958Y-8979705*
X-10215897Y-8977546*
X-10216736Y-8975361*
X-10217472Y-8973126*
X-10218107Y-8970865*
X-10218666Y-8968579*
X-10219098Y-8966268*
X-10219453Y-8963957*
X-10219707Y-8961620*
X-10219860Y-8959283*
X-10219911Y-8956921*
X-18697161Y-1368671D02*
X-18697110Y-1366309D01*
X-18696957Y-1363972*
X-18696703Y-1361635*
X-18696348Y-1359324*
X-18695916Y-1357012*
X-18695357Y-1354726*
X-18694722Y-1352466*
X-18693986Y-1350230*
X-18693147Y-1348046*
X-18692208Y-1345887*
X-18691192Y-1343753*
X-18690074Y-1341696*
X-18688880Y-1339664*
X-18687610Y-1337683*
X-18686239Y-1335778*
X-18684791Y-1333924*
X-18683267Y-1332146*
X-18681667Y-1330418*
X-18679990Y-1328767*
X-18678263Y-1327193*
X-18676460Y-1325669*
X-18674580Y-1324246*
X-18672650Y-1322900*
X-18670668Y-1321655*
X-18668636Y-1320462*
X-18666554Y-1319395*
X-18664420Y-1318379*
X-18662261Y-1317490*
X-18660051Y-1316677*
X-18657816Y-1315940*
X-18655555Y-1315331*
X-18653269Y-1314797*
X-18650958Y-1314391*
X-18648621Y-1314061*
X-18646284Y-1313832*
X-18643922Y-1313705*
X-18641585Y-1313680*
X-18639223Y-1313756*
X-18636886Y-1313934*
X-18634550Y-1314213*
X-18632238Y-1314594*
X-18629927Y-1315051*
X-18627641Y-1315636*
X-18625406Y-1316296*
X-18623170Y-1317058*
X-18620986Y-1317922*
X-18618852Y-1318861*
X-18616744Y-1319928*
X-18614687Y-1321046*
X-18612655Y-1322265*
X-18610699Y-1323560*
X-18608819Y-1324957*
X-18606965Y-1326431*
X-18605187Y-1327955*
X-18603485Y-1329580*
X-18601860Y-1331257*
X-18600285Y-1333035*
X-18598812Y-1334838*
X-18597415Y-1336718*
X-18596094Y-1338673*
X-18594849Y-1340680*
X-18593681Y-1342712*
X-18592614Y-1344820*
X-18591649Y-1346954*
X-18590760Y-1349138*
X-18589973Y-1351348*
X-18589287Y-1353583*
X-18588703Y-1355869*
X-18588195Y-1358155*
X-18587788Y-1360467*
X-18587483Y-1362803*
X-18587280Y-1365140*
X-18587179Y-1367502*
Y-1369839*
X-18587280Y-1372201*
X-18587483Y-1374538*
X-18587788Y-1376875*
X-18588195Y-1379186*
X-18588703Y-1381472*
X-18589287Y-1383758*
X-18589973Y-1385994*
X-18590760Y-1388203*
X-18591649Y-1390388*
X-18592614Y-1392521*
X-18593681Y-1394630*
X-18594849Y-1396662*
X-18596094Y-1398668*
X-18597415Y-1400624*
X-18598812Y-1402504*
X-18600285Y-1404307*
X-18601860Y-1406085*
X-18603485Y-1407761*
X-18605187Y-1409387*
X-18606965Y-1410911*
X-18608819Y-1412384*
X-18610699Y-1413781*
X-18612655Y-1415077*
X-18614661Y-1416296*
X-18616744Y-1417413*
X-18618852Y-1418480*
X-18620986Y-1419420*
X-18623170Y-1420284*
X-18625406Y-1421046*
X-18627641Y-1421706*
X-18629927Y-1422290*
X-18632238Y-1422747*
X-18634550Y-1423128*
X-18636886Y-1423408*
X-18639223Y-1423586*
X-18641585Y-1423662*
X-18643922Y-1423636*
X-18646284Y-1423509*
X-18648621Y-1423281*
X-18650958Y-1422951*
X-18653269Y-1422544*
X-18655555Y-1422011*
X-18657816Y-1421401*
X-18660051Y-1420665*
X-18662261Y-1419852*
X-18664420Y-1418963*
X-18666554Y-1417947*
X-18668636Y-1416880*
X-18670668Y-1415686*
X-18672650Y-1414442*
X-18674580Y-1413095*
X-18676460Y-1411673*
X-18678263Y-1410149*
X-18679990Y-1408574*
X-18681667Y-1406923*
X-18683267Y-1405196*
X-18684791Y-1403418*
X-18686239Y-1401564*
X-18687610Y-1399659*
X-18688880Y-1397678*
X-18690074Y-1395646*
X-18691192Y-1393588*
X-18692208Y-1391455*
X-18693147Y-1389296*
X-18693986Y-1387111*
X-18694722Y-1384876*
X-18695357Y-1382615*
X-18695916Y-1380329*
X-18696348Y-1378018*
X-18696703Y-1375707*
X-18696957Y-1373370*
X-18697110Y-1371033*
X-18697161Y-1368671*
X-19554411Y-8956921D02*
X-19554360Y-8954559D01*
X-19554207Y-8952222*
X-19553953Y-8949885*
X-19553598Y-8947574*
X-19553166Y-8945262*
X-19552607Y-8942976*
X-19551972Y-8940716*
X-19551236Y-8938480*
X-19550397Y-8936296*
X-19549458Y-8934137*
X-19548442Y-8932003*
X-19547324Y-8929946*
X-19546130Y-8927914*
X-19544860Y-8925933*
X-19543489Y-8924028*
X-19542041Y-8922174*
X-19540517Y-8920396*
X-19538917Y-8918668*
X-19537240Y-8917017*
X-19535513Y-8915443*
X-19533710Y-8913919*
X-19531830Y-8912496*
X-19529900Y-8911150*
X-19527918Y-8909905*
X-19525886Y-8908712*
X-19523804Y-8907645*
X-19521670Y-8906629*
X-19519511Y-8905740*
X-19517301Y-8904927*
X-19515066Y-8904190*
X-19512805Y-8903581*
X-19510519Y-8903047*
X-19508208Y-8902641*
X-19505871Y-8902311*
X-19503534Y-8902082*
X-19501172Y-8901955*
X-19498835Y-8901930*
X-19496473Y-8902006*
X-19494136Y-8902184*
X-19491800Y-8902463*
X-19489488Y-8902844*
X-19487177Y-8903301*
X-19484891Y-8903886*
X-19482656Y-8904546*
X-19480420Y-8905308*
X-19478236Y-8906172*
X-19476102Y-8907111*
X-19473994Y-8908178*
X-19471937Y-8909296*
X-19469905Y-8910515*
X-19467949Y-8911810*
X-19466069Y-8913207*
X-19464215Y-8914681*
X-19462437Y-8916205*
X-19460735Y-8917830*
X-19459110Y-8919507*
X-19457535Y-8921285*
X-19456062Y-8923088*
X-19454665Y-8924968*
X-19453344Y-8926923*
X-19452099Y-8928930*
X-19450931Y-8930962*
X-19449864Y-8933070*
X-19448899Y-8935204*
X-19448010Y-8937388*
X-19447223Y-8939598*
X-19446537Y-8941833*
X-19445953Y-8944119*
X-19445445Y-8946405*
X-19445038Y-8948717*
X-19444733Y-8951053*
X-19444530Y-8953390*
X-19444429Y-8955752*
Y-8958089*
X-19444530Y-8960451*
X-19444733Y-8962788*
X-19445038Y-8965125*
X-19445445Y-8967436*
X-19445953Y-8969722*
X-19446537Y-8972008*
X-19447223Y-8974244*
X-19448010Y-8976453*
X-19448899Y-8978638*
X-19449864Y-8980771*
X-19450931Y-8982880*
X-19452099Y-8984912*
X-19453344Y-8986918*
X-19454665Y-8988874*
X-19456062Y-8990754*
X-19457535Y-8992557*
X-19459110Y-8994335*
X-19460735Y-8996011*
X-19462437Y-8997637*
X-19464215Y-8999161*
X-19466069Y-9000634*
X-19467949Y-9002031*
X-19469905Y-9003327*
X-19471911Y-9004546*
X-19473994Y-9005663*
X-19476102Y-9006730*
X-19478236Y-9007670*
X-19480420Y-9008534*
X-19482656Y-9009296*
X-19484891Y-9009956*
X-19487177Y-9010540*
X-19489488Y-9010997*
X-19491800Y-9011378*
X-19494136Y-9011658*
X-19496473Y-9011836*
X-19498835Y-9011912*
X-19501172Y-9011886*
X-19503534Y-9011759*
X-19505871Y-9011531*
X-19508208Y-9011201*
X-19510519Y-9010794*
X-19512805Y-9010261*
X-19515066Y-9009651*
X-19517301Y-9008915*
X-19519511Y-9008102*
X-19521670Y-9007213*
X-19523804Y-9006197*
X-19525886Y-9005130*
X-19527918Y-9003936*
X-19529900Y-9002692*
X-19531830Y-9001345*
X-19533710Y-8999923*
X-19535513Y-8998399*
X-19537240Y-8996824*
X-19538917Y-8995173*
X-19540517Y-8993446*
X-19542041Y-8991668*
X-19543489Y-8989814*
X-19544860Y-8987909*
X-19546130Y-8985928*
X-19547324Y-8983896*
X-19548442Y-8981838*
X-19549458Y-8979705*
X-19550397Y-8977546*
X-19551236Y-8975361*
X-19551972Y-8973126*
X-19552607Y-8970865*
X-19553166Y-8968579*
X-19553598Y-8966268*
X-19553953Y-8963957*
X-19554207Y-8961620*
X-19554360Y-8959283*
X-19554411Y-8956921*
D999*
X-12756446Y-1864499D02*
G36*
X-12757937Y-1862919D01*
X-12758511Y-1860867*
X-12758519Y-1778705*
G02X-12751752Y-1774045I4763J327*
G01X-12728094Y-1774123*
X-12727439Y-1774281*
X-12725636Y-1775388*
X-12724510Y-1777283*
X-12724399Y-1777758*
X-12724338Y-1778233*
X-12724371Y-1861339*
X-12725097Y-1863237*
X-12726659Y-1864659*
X-12727381Y-1864974*
X-12727980Y-1865132*
X-12754858*
X-12755460Y-1864974*
X-12755862Y-1864817*
X-12756446Y-1864499*
G37*
X-12806458D02*
G36*
X-12807947Y-1862919D01*
X-12808524Y-1860867*
X-12808531Y-1778705*
G02X-12801765Y-1774045I4763J327*
G01X-12778107Y-1774123*
X-12777452Y-1774281*
X-12775648Y-1775388*
X-12774523Y-1777283*
X-12774411Y-1777758*
X-12774350Y-1778233*
X-12774383Y-1861339*
X-12775110Y-1863237*
X-12776672Y-1864659*
X-12777393Y-1864974*
X-12777993Y-1865132*
X-12804871*
X-12805470Y-1864974*
X-12805874Y-1864817*
X-12806458Y-1864499*
G37*
X-12506434D02*
G36*
X-12507925Y-1862919D01*
X-12508499Y-1860867*
X-12508506Y-1778705*
G02X-12501740Y-1774045I4762J327*
G01X-12478082Y-1774123*
X-12477427Y-1774281*
X-12475623Y-1775388*
X-12474498Y-1777283*
X-12474387Y-1777758*
X-12474326Y-1778233*
X-12474359Y-1861339*
X-12475085Y-1863237*
X-12476647Y-1864659*
X-12477368Y-1864974*
X-12477968Y-1865132*
X-12504846*
X-12505448Y-1864974*
X-12505849Y-1864817*
X-12506434Y-1864499*
G37*
X-12606433D02*
G36*
X-12607922Y-1862919D01*
X-12608499Y-1860867*
X-12608506Y-1778705*
G02X-12601740Y-1774045I4763J327*
G01X-12578082Y-1774123*
X-12577427Y-1774281*
X-12575623Y-1775388*
X-12574498Y-1777283*
X-12574386Y-1777758*
X-12574325Y-1778233*
X-12574358Y-1861339*
X-12575085Y-1863237*
X-12576647Y-1864659*
X-12577368Y-1864974*
X-12577968Y-1865132*
X-12604846*
X-12605445Y-1864974*
X-12605849Y-1864817*
X-12606433Y-1864499*
G37*
X-12706459D02*
G36*
X-12707950Y-1862919D01*
X-12708524Y-1860867*
X-12708531Y-1778705*
G02X-12701765Y-1774045I4762J327*
G01X-12678107Y-1774123*
X-12677452Y-1774281*
X-12675648Y-1775388*
X-12674523Y-1777283*
X-12674412Y-1777758*
X-12674351Y-1778233*
X-12674384Y-1861339*
X-12675110Y-1863237*
X-12676672Y-1864659*
X-12677393Y-1864974*
X-12677993Y-1865132*
X-12704871*
X-12705473Y-1864974*
X-12705874Y-1864817*
X-12706459Y-1864499*
G37*
X-12656446D02*
G36*
X-12657935Y-1862919D01*
X-12658511Y-1860867*
X-12658519Y-1778705*
G02X-12651752Y-1774045I4763J327*
G01X-12628095Y-1774123*
X-12627439Y-1774281*
X-12625636Y-1775388*
X-12624511Y-1777283*
X-12624399Y-1777758*
X-12624338Y-1778233*
X-12624371Y-1861339*
X-12625097Y-1863237*
X-12626660Y-1864659*
X-12627381Y-1864974*
X-12627980Y-1865132*
X-12654859*
X-12655458Y-1864974*
X-12655862Y-1864817*
X-12656446Y-1864499*
G37*
X-12856446D02*
G36*
X-12857937Y-1862919D01*
X-12858511Y-1860867*
X-12858518Y-1778705*
G02X-12851752Y-1774045I4762J327*
G01X-12828094Y-1774123*
X-12827439Y-1774281*
X-12825635Y-1775388*
X-12824510Y-1777283*
X-12824399Y-1777758*
X-12824338Y-1778233*
X-12824371Y-1861339*
X-12825097Y-1863237*
X-12826659Y-1864659*
X-12827380Y-1864974*
X-12827980Y-1865132*
X-12854858*
X-12855460Y-1864974*
X-12855861Y-1864817*
X-12856446Y-1864499*
G37*
X-12656446Y-2359515D02*
G36*
X-12657935Y-2357935D01*
X-12658511Y-2355880*
X-12658519Y-2273721*
G02X-12651752Y-2269060I4763J328*
G01X-12628095Y-2269139*
X-12627439Y-2269296*
X-12625636Y-2270401*
X-12624511Y-2272299*
X-12624399Y-2272771*
X-12624338Y-2273246*
X-12624371Y-2356355*
X-12625097Y-2358250*
X-12626660Y-2359672*
X-12627381Y-2359987*
X-12627980Y-2360147*
X-12654859*
X-12655458Y-2359987*
X-12655862Y-2359830*
X-12656446Y-2359515*
G37*
D1081*
X-11700426Y-9511174D02*
Y-9361162D01*
Y-8511176D02*
Y-8361164D01*
D999*
X-12606433Y-2359515D02*
G36*
X-12607922Y-2357935D01*
X-12608499Y-2355880*
X-12608506Y-2273721*
G02X-12601740Y-2269060I4763J328*
G01X-12578082Y-2269139*
X-12577427Y-2269296*
X-12575623Y-2270401*
X-12574498Y-2272299*
X-12574386Y-2272771*
X-12574325Y-2273246*
X-12574358Y-2356355*
X-12575085Y-2358250*
X-12576647Y-2359672*
X-12577368Y-2359987*
X-12577968Y-2360147*
X-12604846*
X-12605445Y-2359987*
X-12605849Y-2359830*
X-12606433Y-2359515*
G37*
X-12806458D02*
G36*
X-12807947Y-2357935D01*
X-12808524Y-2355880*
X-12808531Y-2273721*
G02X-12801765Y-2269060I4763J328*
G01X-12778107Y-2269139*
X-12777452Y-2269296*
X-12775648Y-2270401*
X-12774523Y-2272299*
X-12774411Y-2272771*
X-12774350Y-2273246*
X-12774383Y-2356355*
X-12775110Y-2358250*
X-12776672Y-2359672*
X-12777393Y-2359987*
X-12777993Y-2360147*
X-12804871*
X-12805470Y-2359987*
X-12805874Y-2359830*
X-12806458Y-2359515*
G37*
D1082*
X-19503407Y-10068171D02*
X-10171422D01*
X-9910920Y-9818159D02*
Y-1368163D01*
X-10171422Y-1114671D02*
X-19503407D01*
X-19753420Y-1368163D02*
Y-9818159D01*
X-19503407Y-1114671D02*
X-19528619Y-1116416D01*
X-19553537Y-1120647*
X-19577911Y-1127325*
X-19601505Y-1136383*
X-19624085Y-1147731*
X-19645434Y-1161260*
X-19665335Y-1176835*
X-19683600Y-1194305*
X-19700044Y-1213495*
X-19714509Y-1234221*
X-19726849Y-1256273*
X-19736948Y-1279443*
X-19744702Y-1303497*
X-19750039Y-1328198*
X-19752901Y-1353309*
X-19753420Y-1368163*
X-10171422Y-1114671D02*
X-10145232Y-1117376D01*
X-10119415Y-1122560*
X-10094211Y-1130172*
X-10069842Y-1140145*
X-10046530Y-1152390*
X-10024491Y-1166792*
X-10003917Y-1183225*
X-9984999Y-1201539*
X-9967907Y-1221569*
X-9952794Y-1243131*
X-9939799Y-1266032*
X-9929042Y-1290063*
X-9920615Y-1315008*
X-9914597Y-1340642*
X-9911041Y-1366730*
X-9910920Y-1368163*
Y-9818159D02*
X-9913960Y-9843922D01*
X-9919469Y-9869274*
X-9927399Y-9893975*
X-9937673Y-9917795*
X-9950198Y-9940516*
X-9964856Y-9961920*
X-9981509Y-9981813*
X-10000002Y-10000005*
X-10020165Y-10016332*
X-10041808Y-10030635*
X-10064729Y-10042786*
X-10088717Y-10052669*
X-10113546Y-10060193*
X-10138981Y-10065285*
X-10164793Y-10067902*
X-10171422Y-10068171*
X-19753420Y-9818159D02*
X-19752177Y-9843147D01*
X-19748444Y-9867887*
X-19742254Y-9892129*
X-19733674Y-9915629*
X-19722785Y-9938153*
X-19709699Y-9959479*
X-19694545Y-9979388*
X-19677476Y-9997681*
X-19658665Y-10014176*
X-19638299Y-10028707*
X-19616582Y-10041130*
X-19593732Y-10051318*
X-19569976Y-10059172*
X-19545556Y-10064610*
X-19520712Y-10067579*
X-19503407Y-10068171*
D999*
X-12856446Y-2359515D02*
G36*
X-12857937Y-2357935D01*
X-12858511Y-2355880*
X-12858518Y-2273721*
G02X-12851752Y-2269060I4762J328*
G01X-12828094Y-2269139*
X-12827439Y-2269296*
X-12825635Y-2270401*
X-12824510Y-2272299*
X-12824399Y-2272771*
X-12824338Y-2273246*
X-12824371Y-2356355*
X-12825097Y-2358250*
X-12826659Y-2359672*
X-12827380Y-2359987*
X-12827980Y-2360147*
X-12854858*
X-12855460Y-2359987*
X-12855861Y-2359830*
X-12856446Y-2359515*
G37*
X-12906458D02*
G36*
X-12907947Y-2357935D01*
X-12908523Y-2355880*
X-12908531Y-2273721*
G02X-12901764Y-2269060I4763J328*
G01X-12878107Y-2269139*
X-12877451Y-2269296*
X-12875648Y-2270401*
X-12874523Y-2272299*
X-12874411Y-2272771*
X-12874350Y-2273246*
X-12874383Y-2356355*
X-12875110Y-2358250*
X-12876672Y-2359672*
X-12877393Y-2359987*
X-12877993Y-2360147*
X-12904871*
X-12905470Y-2359987*
X-12905874Y-2359830*
X-12906458Y-2359515*
G37*
X-12406434D02*
G36*
X-12407925Y-2357935D01*
X-12408499Y-2355880*
X-12408507Y-2273721*
G02X-12401740Y-2269060I4763J328*
G01X-12378082Y-2269139*
X-12377427Y-2269296*
X-12375624Y-2270401*
X-12374498Y-2272299*
X-12374387Y-2272771*
X-12374326Y-2273246*
X-12374359Y-2356355*
X-12375085Y-2358250*
X-12376647Y-2359672*
X-12377369Y-2359987*
X-12377968Y-2360147*
X-12404846*
X-12405448Y-2359987*
X-12405850Y-2359830*
X-12406434Y-2359515*
G37*
X-12906458Y-1864499D02*
G36*
X-12907947Y-1862919D01*
X-12908523Y-1860867*
X-12908531Y-1778705*
G02X-12901764Y-1774045I4763J327*
G01X-12878107Y-1774123*
X-12877451Y-1774281*
X-12875648Y-1775388*
X-12874523Y-1777283*
X-12874411Y-1777758*
X-12874350Y-1778233*
X-12874383Y-1861339*
X-12875110Y-1863237*
X-12876672Y-1864659*
X-12877393Y-1864974*
X-12877993Y-1865132*
X-12904871*
X-12905470Y-1864974*
X-12905874Y-1864817*
X-12906458Y-1864499*
G37*
X-12706459Y-2359515D02*
G36*
X-12707950Y-2357935D01*
X-12708524Y-2355880*
X-12708531Y-2273721*
G02X-12701765Y-2269060I4762J328*
G01X-12678107Y-2269139*
X-12677452Y-2269296*
X-12675648Y-2270401*
X-12674523Y-2272299*
X-12674412Y-2272771*
X-12674351Y-2273246*
X-12674384Y-2356355*
X-12675110Y-2358250*
X-12676672Y-2359672*
X-12677393Y-2359987*
X-12677993Y-2360147*
X-12704871*
X-12705473Y-2359987*
X-12705874Y-2359830*
X-12706459Y-2359515*
G37*
X-12506434D02*
G36*
X-12507925Y-2357935D01*
X-12508499Y-2355880*
X-12508506Y-2273721*
G02X-12501740Y-2269060I4762J328*
G01X-12478082Y-2269139*
X-12477427Y-2269296*
X-12475623Y-2270401*
X-12474498Y-2272299*
X-12474387Y-2272771*
X-12474326Y-2273246*
X-12474359Y-2356355*
X-12475085Y-2358250*
X-12476647Y-2359672*
X-12477368Y-2359987*
X-12477968Y-2360147*
X-12504846*
X-12505448Y-2359987*
X-12505849Y-2359830*
X-12506434Y-2359515*
G37*
X-12556446D02*
G36*
X-12557935Y-2357935D01*
X-12558511Y-2355880*
X-12558519Y-2273721*
G02X-12551752Y-2269060I4763J328*
G01X-12528095Y-2269139*
X-12527439Y-2269296*
X-12525636Y-2270401*
X-12524511Y-2272299*
X-12524399Y-2272771*
X-12524338Y-2273246*
X-12524371Y-2356355*
X-12525098Y-2358250*
X-12526660Y-2359672*
X-12527381Y-2359987*
X-12527981Y-2360147*
X-12554859*
X-12555458Y-2359987*
X-12555862Y-2359830*
X-12556446Y-2359515*
G37*
X-12456446D02*
G36*
X-12457935Y-2357935D01*
X-12458512Y-2355880*
X-12458519Y-2273721*
G02X-12451753Y-2269060I4763J328*
G01X-12428095Y-2269139*
X-12427440Y-2269296*
X-12425636Y-2270401*
X-12424511Y-2272299*
X-12424399Y-2272771*
X-12424338Y-2273246*
X-12424371Y-2356355*
X-12425098Y-2358250*
X-12426660Y-2359672*
X-12427381Y-2359987*
X-12427981Y-2360147*
X-12454859*
X-12455458Y-2359987*
X-12455862Y-2359830*
X-12456446Y-2359515*
G37*
X-12756446D02*
G36*
X-12757937Y-2357935D01*
X-12758511Y-2355880*
X-12758519Y-2273721*
G02X-12751752Y-2269060I4763J328*
G01X-12728094Y-2269139*
X-12727439Y-2269296*
X-12725636Y-2270401*
X-12724510Y-2272299*
X-12724399Y-2272771*
X-12724338Y-2273246*
X-12724371Y-2356355*
X-12725097Y-2358250*
X-12726659Y-2359672*
X-12727381Y-2359987*
X-12727980Y-2360147*
X-12754858*
X-12755460Y-2359987*
X-12755862Y-2359830*
X-12756446Y-2359515*
G37*
X-18807534Y-6103797D02*
G36*
X-18807529Y-6024798D01*
G02X-18804940Y-6021163I3395J322*
G01X-18743914*
G02X-18741321Y-6024483I-814J-3309*
G01X-18741329Y-6103482*
G02X-18743998Y-6107117I-3398J-302*
G01X-18804857*
X-18805375Y-6106957*
X-18805720Y-6106799*
G02X-18807534Y-6103797I1592J3010*
G37*
G01X-18987518D02*
G36*
X-18987513Y-6024798D01*
G02X-18984925Y-6021163I3394J322*
G01X-18923899*
G02X-18921305Y-6024483I-813J-3309*
G01X-18921313Y-6103482*
G02X-18923983Y-6107117I-3398J-302*
G01X-18984841*
X-18985359Y-6106957*
X-18985705Y-6106799*
G02X-18987518Y-6103797I1593J3010*
G37*
G01Y-5983876D02*
G36*
X-18987513Y-5904717D01*
G02X-18984925Y-5901085I3393J320*
G01X-18923899*
G02X-18921305Y-5904402I-813J-3308*
G01X-18921313Y-5983561*
G02X-18923983Y-5987193I-3397J-301*
G01X-18984841*
X-18985359Y-5987036*
X-18985705Y-5986878*
G02X-18987518Y-5983876I1593J3010*
G37*
G01X-18807534D02*
G36*
X-18807529Y-5904717D01*
G02X-18804940Y-5901085I3394J320*
G01X-18743914*
G02X-18741321Y-5904402I-814J-3308*
G01X-18741329Y-5983561*
G02X-18743998Y-5987193I-3397J-301*
G01X-18804857*
X-18805375Y-5987036*
X-18805720Y-5986878*
G02X-18807534Y-5983876I1592J3010*
G37*
G01X-17891033Y-3108119D02*
G36*
X-17891031Y-3029435D01*
G02X-17887988Y-3025642I3701J148*
G01X-17822872*
G02X-17819827Y-3029277I-2427J-5127*
G01X-17819829Y-3107961*
G02X-17822768Y-3111751I-3702J-164*
G01X-17888092*
X-17888633Y-3111593*
X-17888994Y-3111436*
G02X-17891033Y-3108119I1663J3308*
G37*
G01X-18131012Y-2883125D02*
G36*
X-18131010Y-2804441D01*
G02X-18127967Y-2800649I3701J147*
G01X-18062851*
G02X-18059806Y-2804284I-2428J-5127*
G01X-18059809Y-2882968*
G02X-18062747Y-2886760I-3703J-165*
G01X-18128071*
X-18128612Y-2886603*
X-18128973Y-2886445*
G02X-18131012Y-2883125I1663J3308*
G37*
G01X-18011023Y-3108119D02*
G36*
X-18011020Y-3029435D01*
G02X-18007977Y-3025642I3701J148*
G01X-17942862*
G02X-17939816Y-3029277I-2427J-5127*
G01X-17939819Y-3107961*
G02X-17942758Y-3111751I-3702J-164*
G01X-18008081*
X-18008622Y-3111593*
X-18008983Y-3111436*
G02X-18011023Y-3108119I1663J3308*
G37*
G01X-17891033Y-2883125D02*
G36*
X-17891031Y-2804441D01*
G02X-17887988Y-2800649I3701J147*
G01X-17822872*
G02X-17819827Y-2804284I-2427J-5127*
G01X-17819829Y-2882968*
G02X-17822768Y-2886760I-3704J-165*
G01X-17888092*
X-17888633Y-2886603*
X-17888994Y-2886445*
G02X-17891033Y-2883125I1663J3308*
G37*
G01X-18011023D02*
G36*
X-18011020Y-2804441D01*
G02X-18007977Y-2800649I3701J147*
G01X-17942862*
G02X-17939816Y-2804284I-2427J-5127*
G01X-17939819Y-2882968*
G02X-17942758Y-2886760I-3703J-165*
G01X-18008081*
X-18008622Y-2886603*
X-18008983Y-2886445*
G02X-18011023Y-2883125I1663J3308*
G37*
G01X-18916802Y-6875155D02*
G36*
X-18917010Y-6874207D01*
X-18917000Y-6735797*
G02X-18916271Y-6734693I1292J-60*
G01X-18871547*
X-18870930Y-6735325*
X-18870810Y-6736115*
X-18870818Y-6874522*
X-18870833Y-6874680*
G02X-18871547Y-6875627I-1275J219*
G01X-18916271*
X-18916520Y-6875469*
X-18916685Y-6875312*
X-18916802Y-6875155*
G37*
X-19046825D02*
G36*
X-19047030Y-6874207D01*
X-19047023Y-6735797*
G02X-19046294Y-6734693I1292J-60*
G01X-19001569*
X-19000952Y-6735325*
X-19000833Y-6736115*
X-19000840Y-6874522*
X-19000856Y-6874680*
G02X-19001569Y-6875627I-1275J219*
G01X-19046294*
X-19046543Y-6875469*
X-19046708Y-6875312*
X-19046825Y-6875155*
G37*
X-19111823D02*
G36*
X-19112029Y-6874207D01*
X-19112021Y-6735797*
G02X-19111292Y-6734693I1292J-60*
G01X-19066568*
X-19065951Y-6735325*
X-19065829Y-6736115*
X-19065839Y-6874522*
X-19065854Y-6874680*
G02X-19066568Y-6875627I-1275J219*
G01X-19111292*
X-19111541Y-6875469*
X-19111706Y-6875312*
X-19111823Y-6875155*
G37*
X-18981801D02*
G36*
X-18982006Y-6874207D01*
X-18981999Y-6735797*
G02X-18981270Y-6734693I1292J-60*
G01X-18936545*
X-18935928Y-6735325*
X-18935809Y-6736115*
X-18935816Y-6874522*
X-18935832Y-6874680*
G02X-18936545Y-6875627I-1275J219*
G01X-18981270*
X-18981519Y-6875469*
X-18981684Y-6875312*
X-18981801Y-6875155*
G37*
X-14349846Y-1230025D02*
G36*
X-14295277Y-1284594D01*
Y-1361765*
X-14349846Y-1416334*
X-14427017*
X-14481586Y-1361765*
Y-1284594*
X-14427017Y-1230025*
X-14349846*
G37*
X-13649822D02*
G36*
X-13595253Y-1284594D01*
Y-1361765*
X-13649822Y-1416334*
X-13726993*
X-13781562Y-1361765*
Y-1284594*
X-13726993Y-1230025*
X-13649822*
G37*
X-10441134Y-8309500D02*
G36*
X-10382750Y-8367885D01*
Y-8450455*
X-10441134Y-8508839*
X-10523705*
X-10582089Y-8450455*
Y-8367885*
X-10523705Y-8309500*
X-10441134*
G37*
Y-7809501D02*
G36*
X-10382750Y-7867886D01*
Y-7950456*
X-10441134Y-8008840*
X-10523705*
X-10582089Y-7950456*
Y-7867886*
X-10523705Y-7809501*
X-10441134*
G37*
X-10941133Y-8059513D02*
G36*
X-10882749Y-8117898D01*
Y-8200468*
X-10941133Y-8258853*
X-11023704*
X-11082088Y-8200468*
Y-8117898*
X-11023704Y-8059513*
X-10941133*
G37*
Y-7559489D02*
G36*
X-10882749Y-7617873D01*
Y-7700444*
X-10941133Y-7758828*
X-11023704*
X-11082088Y-7700444*
Y-7617873*
X-11023704Y-7559489*
X-10941133*
G37*
X-10441134Y-7309502D02*
G36*
X-10382750Y-7367887D01*
Y-7450457*
X-10441134Y-7508841*
X-10523705*
X-10582089Y-7450457*
Y-7367887*
X-10523705Y-7309502*
X-10441134*
G37*
Y-6809503D02*
G36*
X-10382750Y-6867888D01*
Y-6950458*
X-10441134Y-7008842*
X-10523705*
X-10582089Y-6950458*
Y-6867888*
X-10523705Y-6809503*
X-10441134*
G37*
X-10941133Y-7059490D02*
G36*
X-10882749Y-7117874D01*
Y-7200445*
X-10941133Y-7258829*
X-11023704*
X-11082088Y-7200445*
Y-7117874*
X-11023704Y-7059490*
X-10941133*
G37*
X-10441134Y-3991500D02*
G36*
X-10382750Y-4049885D01*
Y-4132455*
X-10441134Y-4190839*
X-10523705*
X-10582089Y-4132455*
Y-4049885*
X-10523705Y-3991500*
X-10441134*
G37*
X-10941133Y-3741513D02*
G36*
X-10882749Y-3799898D01*
Y-3882468*
X-10941133Y-3940853*
X-11023704*
X-11082088Y-3882468*
Y-3799898*
X-11023704Y-3741513*
X-10941133*
G37*
X-10441134Y-3491501D02*
G36*
X-10382750Y-3549886D01*
Y-3632456*
X-10441134Y-3690840*
X-10523705*
X-10582089Y-3632456*
Y-3549886*
X-10523705Y-3491501*
X-10441134*
G37*
Y-2991502D02*
G36*
X-10382750Y-3049887D01*
Y-3132457*
X-10441134Y-3190841*
X-10523705*
X-10582089Y-3132457*
Y-3049887*
X-10523705Y-2991502*
X-10441134*
G37*
X-10941133Y-3241489D02*
G36*
X-10882749Y-3299873D01*
Y-3382444*
X-10941133Y-3440828*
X-11023704*
X-11082088Y-3382444*
Y-3299873*
X-11023704Y-3241489*
X-10941133*
G37*
Y-2741490D02*
G36*
X-10882749Y-2799874D01*
Y-2882445*
X-10941133Y-2940829*
X-11023704*
X-11082088Y-2882445*
Y-2799874*
X-11023704Y-2741490*
X-10941133*
G37*
X-10441134Y-2491503D02*
G36*
X-10382750Y-2549888D01*
Y-2632458*
X-10441134Y-2690842*
X-10523705*
X-10582089Y-2632458*
Y-2549888*
X-10523705Y-2491503*
X-10441134*
G37*
X-17060860Y-9465530D02*
G36*
X-17007756Y-9518634D01*
Y-9593732*
X-17060860Y-9646836*
X-17135957*
X-17189061Y-9593732*
Y-9518634*
X-17135957Y-9465530*
X-17060860*
G37*
X-18981775Y-7305230D02*
G36*
X-18982006Y-7304440D01*
X-18982001Y-7165873*
X-18981895Y-7165400*
X-18981308Y-7164768*
X-18980708Y-7164610*
X-18937107*
G02X-18935809Y-7166348I5J-1351*
G01X-18935819Y-7304597*
X-18935948Y-7305072*
X-18936637Y-7305705*
X-18981178*
X-18981468Y-7305545*
X-18981648Y-7305387*
X-18981775Y-7305230*
G37*
X-19046799D02*
G36*
X-19047030Y-7304440D01*
X-19047025Y-7165873*
X-19046919Y-7165400*
X-19046332Y-7164768*
X-19045732Y-7164610*
X-19002131*
G02X-19000833Y-7166348I5J-1351*
G01X-19000843Y-7304597*
X-19000972Y-7305072*
X-19001661Y-7305705*
X-19046202*
X-19046492Y-7305545*
X-19046672Y-7305387*
X-19046799Y-7305230*
G37*
X-19111798D02*
G36*
X-19112029Y-7304440D01*
X-19112024Y-7165873*
X-19111917Y-7165400*
X-19111330Y-7164768*
X-19110731Y-7164610*
X-19067129*
G02X-19065829Y-7166348I5J-1352*
G01X-19065842Y-7304597*
X-19065971Y-7305072*
X-19066659Y-7305705*
X-19111201*
X-19111490Y-7305545*
X-19111671Y-7305387*
X-19111798Y-7305230*
G37*
X-18916777D02*
G36*
X-18917010Y-7304440D01*
X-18917003Y-7165873*
X-18916896Y-7165400*
X-18916309Y-7164768*
X-18915710Y-7164610*
X-18872108*
G02X-18870810Y-7166348I4J-1351*
G01X-18870820Y-7304597*
X-18870950Y-7305072*
X-18871638Y-7305705*
X-18916180*
X-18916469Y-7305545*
X-18916650Y-7305387*
X-18916777Y-7305230*
G37*
X-16979417Y-8438248D02*
G36*
X-16979371Y-8395271D01*
G02X-16973984Y-8389269I6951J-821*
G01X-16858851*
G02X-16853415Y-8396061I-1566J-6824*
G01Y-8437976*
G02X-16859369Y-8445042I-7002J-141*
G01X-16973466*
X-16974736Y-8444727*
G02X-16979417Y-8438248I2322J6608*
G37*
G01X-17319421D02*
G36*
X-17319376Y-8395271D01*
G02X-17313988Y-8389269I6952J-821*
G01X-17198855*
G02X-17193420Y-8396061I-1566J-6824*
G01Y-8437976*
G02X-17199373Y-8445042I-7002J-141*
G01X-17313470*
X-17314740Y-8444727*
G02X-17319421Y-8438248I2322J6608*
G37*
G01X-16979417Y-8348347D02*
G36*
X-16979371Y-8305370D01*
G02X-16972940Y-8299208I6953J-820*
G01X-16859895*
G02X-16853415Y-8306160I-523J-6983*
G01X-16853458Y-8348977*
G02X-16859369Y-8355139I-6960J760*
G01X-16973466*
X-16974736Y-8354824*
G02X-16979417Y-8348347I2322J6608*
G37*
G01X-17319421Y-8528309D02*
G36*
X-17319376Y-8485332D01*
G02X-17312944Y-8479170I6953J-819*
G01X-17199899*
G02X-17193420Y-8486122I-523J-6983*
G01X-17193463Y-8528941*
G02X-17199373Y-8535103I-6959J760*
G01X-17313470*
X-17314740Y-8534786*
G02X-17319421Y-8528309I2322J6609*
G37*
G01Y-8348347D02*
G36*
X-17319376Y-8305370D01*
G02X-17312944Y-8299208I6953J-820*
G01X-17199899*
G02X-17193420Y-8306160I-523J-6983*
G01X-17193463Y-8348977*
G02X-17199373Y-8355139I-6959J760*
G01X-17313470*
X-17314740Y-8354824*
G02X-17319421Y-8348347I2322J6608*
G37*
G01X-16979417Y-8528309D02*
G36*
X-16979371Y-8485332D01*
G02X-16972940Y-8479170I6953J-819*
G01X-16859895*
G02X-16853415Y-8486122I-523J-6983*
G01X-16853458Y-8528941*
G02X-16859369Y-8535103I-6960J760*
G01X-16973466*
X-16974736Y-8534786*
G02X-16979417Y-8528309I2322J6609*
G37*
G01X-18131012Y-3108119D02*
G36*
X-18131010Y-2954385D01*
G02X-18127967Y-2950593I3701J147*
G01X-18062851*
G02X-18059806Y-2954225I-2427J-5128*
G01X-18059809Y-3107961*
G02X-18062747Y-3111751I-3702J-164*
G01X-18128071*
X-18128612Y-3111593*
X-18128973Y-3111436*
G02X-18131012Y-3108119I1663J3308*
G37*
G01X-17006664Y-1577256D02*
G36*
X-17008414Y-1576308D01*
G02X-17013209Y-1567619I5993J8975*
G01X-17013219Y-1430632*
G02X-17004370Y-1419887I10947J0*
G01X-16914469*
X-16912727Y-1420362*
X-16911030Y-1421152*
X-16909455Y-1422257*
X-16908058Y-1423680*
X-16906900Y-1425417*
X-16906107Y-1427314*
X-16905686Y-1429369*
X-16905643Y-1567934*
X-16905958Y-1569989*
X-16906633Y-1571883*
X-16907649Y-1573621*
X-16909034Y-1575203*
X-16910669Y-1576466*
X-16912176Y-1577256*
X-16914169Y-1577888*
X-16915117Y-1578045*
X-17003722*
X-17004670Y-1577888*
X-17006664Y-1577256*
G37*
X-17895664D02*
G36*
X-17897414Y-1576308D01*
G02X-17902209Y-1567619I5993J8975*
G01X-17902219Y-1430632*
G02X-17893370Y-1419887I10947J0*
G01X-17803469*
X-17801727Y-1420362*
X-17800030Y-1421152*
X-17798455Y-1422257*
X-17797058Y-1423680*
X-17795900Y-1425417*
X-17795107Y-1427314*
X-17794686Y-1429369*
X-17794643Y-1567934*
X-17794958Y-1569989*
X-17795633Y-1571883*
X-17796649Y-1573621*
X-17798034Y-1575203*
X-17799669Y-1576466*
X-17801176Y-1577256*
X-17803169Y-1577888*
X-17804117Y-1578045*
X-17892722*
X-17893670Y-1577888*
X-17895664Y-1577256*
G37*
X-14391815Y-9933244D02*
G36*
X-14399684Y-9930874D01*
X-14407225Y-9927081*
X-14414167Y-9921867*
X-14420138Y-9915390*
X-14424809Y-9907963*
X-14428073Y-9899749*
X-14429765Y-9891217*
X-14430029Y-9796101*
G02X-14333829Y-9796259I48100J-13*
G01Y-9886317*
G02X-14389201Y-9933718I-48101J147*
G01X-14391815Y-9933244*
G37*
X-14645815D02*
G36*
X-14653684Y-9930874D01*
X-14661225Y-9927081*
X-14668167Y-9921867*
X-14674138Y-9915390*
X-14678809Y-9907963*
X-14682073Y-9899749*
X-14683765Y-9891217*
X-14684029Y-9796101*
G02X-14587829Y-9796259I48100J-13*
G01Y-9886317*
G02X-14643201Y-9933718I-48101J147*
G01X-14645815Y-9933244*
G37*
X-14518815D02*
G36*
X-14526684Y-9930874D01*
X-14534225Y-9927081*
X-14541167Y-9921867*
X-14547138Y-9915390*
X-14551809Y-9907963*
X-14555073Y-9899749*
X-14556765Y-9891217*
X-14557029Y-9796101*
G02X-14460829Y-9796259I48100J-13*
G01Y-9886317*
G02X-14516201Y-9933718I-48101J147*
G01X-14518815Y-9933244*
G37*
X-14010815D02*
G36*
X-14018684Y-9930874D01*
X-14026225Y-9927081*
X-14033167Y-9921867*
X-14039138Y-9915390*
X-14043809Y-9907963*
X-14047073Y-9899749*
X-14048765Y-9891217*
X-14049029Y-9796101*
G02X-13952829Y-9796259I48100J-13*
G01Y-9886317*
G02X-14008201Y-9933718I-48101J147*
G01X-14010815Y-9933244*
G37*
X-14137815D02*
G36*
X-14145684Y-9930874D01*
X-14153225Y-9927081*
X-14160167Y-9921867*
X-14166138Y-9915390*
X-14170809Y-9907963*
X-14174073Y-9899749*
X-14175765Y-9891217*
X-14176029Y-9796101*
G02X-14079829Y-9796259I48100J-13*
G01Y-9886317*
G02X-14135201Y-9933718I-48101J147*
G01X-14137815Y-9933244*
G37*
X-14264815D02*
G36*
X-14272684Y-9930874D01*
X-14280225Y-9927081*
X-14287167Y-9921867*
X-14293138Y-9915390*
X-14297809Y-9907963*
X-14301073Y-9899749*
X-14302765Y-9891217*
X-14303029Y-9796101*
G02X-14206829Y-9796259I48100J-13*
G01Y-9886317*
G02X-14262201Y-9933718I-48101J147*
G01X-14264815Y-9933244*
G37*
X-14899815D02*
G36*
X-14907684Y-9930874D01*
X-14915225Y-9927081*
X-14922167Y-9921867*
X-14928138Y-9915390*
X-14932809Y-9907963*
X-14936073Y-9899749*
X-14937765Y-9891217*
X-14938029Y-9796101*
G02X-14841829Y-9796259I48100J-13*
G01Y-9886317*
G02X-14897201Y-9933718I-48101J147*
G01X-14899815Y-9933244*
G37*
X-14772815D02*
G36*
X-14780684Y-9930874D01*
X-14788225Y-9927081*
X-14795167Y-9921867*
X-14801138Y-9915390*
X-14805809Y-9907963*
X-14809073Y-9899749*
X-14810765Y-9891217*
X-14811029Y-9796101*
G02X-14714829Y-9796259I48100J-13*
G01Y-9886317*
G02X-14770201Y-9933718I-48101J147*
G01X-14772815Y-9933244*
G37*
X-15356415Y-5211099D02*
G36*
X-15356375Y-5018653D01*
G02X-15349748Y-5012176I7201J-739*
G01X-15267091*
G02X-15263881Y-5013281I-1069J-8323*
X-15260429Y-5019128I-3742J-6152*
G01X-15260419Y-5210939*
G02X-15266555Y-5218051I-7201J10*
G01X-15350284*
X-15351572Y-5217734*
G02X-15356415Y-5211099I2351J6802*
G37*
G01X-16859102Y-1449275D02*
G36*
X-16860809Y-1448485D01*
X-16862392Y-1447380*
X-16863791Y-1445958*
X-16864947Y-1444221*
X-16865737Y-1442323*
X-16866156Y-1440271*
X-16866196Y-1234081*
G02X-16856372Y-1223967I10739J-604*
G01X-16768437*
G02X-16760118Y-1240241I-909J-10728*
X-16768627Y-1256517I-9242J-5531*
X-16768638Y-1278003I-732J-10743*
Y-1299491I-721J-10744*
X-16768648Y-1320980I-721J-10744*
X-16768655Y-1342468I-708J-10744*
X-16768658Y-1363957I-701J-10744*
X-16768668Y-1385445I-701J-10744*
X-16768671Y-1406931I-691J-10743*
X-16768678Y-1428419I-685J-10744*
X-16769041Y-1449908I-676J-10736*
G01X-16855767*
X-16857319Y-1449750*
X-16859102Y-1449275*
G37*
X-17748102D02*
G36*
X-17749809Y-1448485D01*
X-17751392Y-1447380*
X-17752791Y-1445958*
X-17753947Y-1444221*
X-17754737Y-1442323*
X-17755156Y-1440271*
X-17755196Y-1234081*
G02X-17745372Y-1223967I10739J-604*
G01X-17657437*
G02X-17649118Y-1240241I-909J-10728*
X-17657627Y-1256517I-9242J-5531*
X-17657638Y-1278003I-732J-10743*
Y-1299491I-721J-10744*
X-17657648Y-1320980I-721J-10744*
X-17657655Y-1342468I-708J-10744*
X-17657658Y-1363957I-701J-10744*
X-17657668Y-1385445I-701J-10744*
X-17657671Y-1406931I-691J-10743*
X-17657678Y-1428419I-685J-10744*
X-17658041Y-1449908I-676J-10736*
G01X-17744767*
X-17746319Y-1449750*
X-17748102Y-1449275*
G37*
X-17150161Y-1428419D02*
G36*
G02X-17150168Y-1406931I676J10744D01*
X-17150171Y-1385445I685J10743*
X-17150181Y-1363957I691J10744*
X-17150184Y-1342468I698J10745*
X-17150191Y-1320980I701J10744*
X-17150201Y-1299491I708J10745*
Y-1278003I716J10744*
X-17150212Y-1256517I721J10743*
X-17158721Y-1240241I735J10746*
X-17150402Y-1223967I9231J5545*
G01X-17062467*
G02X-17052625Y-1234711I-917J-10720*
G01X-17052645Y-1439796*
G02X-17063072Y-1449908I-10736J639*
G01X-17149798*
X-17151350Y-1449750*
X-17152094Y-1449593*
G02X-17150161Y-1428419I2606J10437*
G37*
G01X-18039161D02*
G36*
G02X-18039168Y-1406931I676J10744D01*
X-18039171Y-1385445I685J10743*
X-18039181Y-1363957I691J10744*
X-18039184Y-1342468I698J10745*
X-18039191Y-1320980I701J10744*
X-18039201Y-1299491I708J10745*
Y-1278003I716J10744*
X-18039212Y-1256517I721J10743*
X-18047721Y-1240241I735J10746*
X-18039402Y-1223967I9231J5545*
G01X-17951467*
G02X-17941625Y-1234711I-917J-10720*
G01X-17941645Y-1439796*
G02X-17952072Y-1449908I-10736J639*
G01X-18038798*
X-18040350Y-1449750*
X-18041094Y-1449593*
G02X-18039161Y-1428419I2606J10437*
G37*
G01X-17978805Y-9917760D02*
G36*
X-17988277Y-9915390D01*
X-17997820Y-9911283*
X-18006621Y-9905593*
X-18014378Y-9898484*
X-18020873Y-9890109*
X-18025849Y-9880787*
X-18029202Y-9870676*
X-18030781Y-9860249*
X-18030919Y-9686132*
G02X-17971927Y-9623722I62497J12*
G01X-17721234Y-9624039*
X-17711582Y-9625934*
X-17702156Y-9629411*
X-17693007Y-9634623*
X-17684905Y-9641260*
X-17677907Y-9649317*
X-17672443Y-9658324*
X-17668570Y-9668121*
X-17666380Y-9678548*
X-17666327Y-9863251*
X-17668435Y-9873678*
X-17672220Y-9883475*
X-17677579Y-9892479*
X-17684442Y-9900538*
X-17692354Y-9907173*
X-17701196Y-9912388*
X-17711094Y-9916180*
X-17722982Y-9918392*
X-17975435Y-9918235*
X-17978805Y-9917760*
G37*
Y-8987772D02*
G36*
X-17988277Y-8985402D01*
X-17997820Y-8981295*
X-18006621Y-8975605*
X-18014378Y-8968496*
X-18020873Y-8960121*
X-18025849Y-8950799*
X-18029202Y-8940688*
X-18030781Y-8930261*
X-18030919Y-8756144*
G02X-17971927Y-8693734I62497J12*
G01X-17721234Y-8694051*
X-17711582Y-8695946*
X-17702156Y-8699423*
X-17693007Y-8704635*
X-17684905Y-8711272*
X-17677907Y-8719329*
X-17672443Y-8728336*
X-17668570Y-8738133*
X-17666380Y-8748560*
X-17666327Y-8933263*
X-17668435Y-8943690*
X-17672220Y-8953487*
X-17677579Y-8962491*
X-17684442Y-8970550*
X-17692354Y-8977185*
X-17701196Y-8982400*
X-17711094Y-8986192*
X-17722982Y-8988404*
X-17975435Y-8988247*
X-17978805Y-8987772*
G37*
X-12918424Y-2223950D02*
G36*
X-12918419Y-1910793D01*
G02X-12911394Y-1902261I8298J325*
G01X-12371445*
G02X-12364438Y-1909846I-1279J-8211*
G01X-12364430Y-2224425*
G02X-12371577Y-2232167I-8293J486*
G01X-12911261*
X-12912651Y-2231849*
G02X-12918424Y-2223950I2533J7911*
G37*
G01X-18133928Y-6275387D02*
G36*
X-18133921Y-5733605D01*
G02X-18121294Y-5718751I14301J638*
G01X-17575545*
G02X-17562911Y-5732972I-1675J-14210*
G01X-17562918Y-6274754*
G02X-17575718Y-6289606I-14300J-617*
G01X-18121122*
X-18123560Y-6289131*
G02X-18133928Y-6275387I3940J13756*
G37*
G01X-11023287Y-9105219D02*
G36*
X-10979967Y-9148538D01*
Y-9209803*
X-11023287Y-9253123*
X-11084552*
X-11127872Y-9209803*
Y-9148538*
X-11084552Y-9105219*
X-11023287*
G37*
Y-9359219D02*
G36*
X-10979967Y-9402538D01*
Y-9463803*
X-11023287Y-9507123*
X-11084552*
X-11127872Y-9463803*
Y-9402538*
X-11084552Y-9359219*
X-11023287*
G37*
Y-9613219D02*
G36*
X-10979967Y-9656538D01*
Y-9717803*
X-11023287Y-9761123*
X-11084552*
X-11127872Y-9717803*
Y-9656538*
X-11084552Y-9613219*
X-11023287*
G37*
X-11277287D02*
G36*
X-11233967Y-9656538D01*
Y-9717803*
X-11277287Y-9761123*
X-11338552*
X-11381872Y-9717803*
Y-9656538*
X-11338552Y-9613219*
X-11277287*
G37*
Y-9359219D02*
G36*
X-11233967Y-9402538D01*
Y-9463803*
X-11277287Y-9507123*
X-11338552*
X-11381872Y-9463803*
Y-9402538*
X-11338552Y-9359219*
X-11277287*
G37*
X-13753787Y-2755219D02*
G36*
X-13710467Y-2798538D01*
Y-2859803*
X-13753787Y-2903123*
X-13815052*
X-13858372Y-2859803*
Y-2798538*
X-13815052Y-2755219*
X-13753787*
G37*
X-14296788Y-2728219D02*
G36*
X-14253469Y-2771538D01*
Y-2832803*
X-14296788Y-2876123*
X-14358053*
X-14401373Y-2832803*
Y-2771538*
X-14358053Y-2728219*
X-14296788*
G37*
X-14496788D02*
G36*
X-14453468Y-2771538D01*
Y-2832803*
X-14496788Y-2876123*
X-14558053*
X-14601372Y-2832803*
Y-2771538*
X-14558053Y-2728219*
X-14496788*
G37*
X-14696787D02*
G36*
X-14653468Y-2771538D01*
Y-2832803*
X-14696787Y-2876123*
X-14758052*
X-14801372Y-2832803*
Y-2771538*
X-14758052Y-2728219*
X-14696787*
G37*
Y-2528219D02*
G36*
X-14653468Y-2571539D01*
Y-2632803*
X-14696787Y-2676123*
X-14758052*
X-14801372Y-2632803*
Y-2571539*
X-14758052Y-2528219*
X-14696787*
G37*
X-14896787D02*
G36*
X-14853467Y-2571539D01*
Y-2632803*
X-14896787Y-2676123*
X-14958052*
X-15001372Y-2632803*
Y-2571539*
X-14958052Y-2528219*
X-14896787*
G37*
X-15096787D02*
G36*
X-15053467Y-2571539D01*
Y-2632803*
X-15096787Y-2676123*
X-15158051*
X-15201371Y-2632803*
Y-2571539*
X-15158051Y-2528219*
X-15096787*
G37*
Y-2728219D02*
G36*
X-15053467Y-2771538D01*
Y-2832803*
X-15096787Y-2876123*
X-15158051*
X-15201371Y-2832803*
Y-2771538*
X-15158051Y-2728219*
X-15096787*
G37*
X-14896787D02*
G36*
X-14853467Y-2771538D01*
Y-2832803*
X-14896787Y-2876123*
X-14958052*
X-15001372Y-2832803*
Y-2771538*
X-14958052Y-2728219*
X-14896787*
G37*
X-15296786D02*
G36*
X-15253467Y-2771538D01*
Y-2832803*
X-15296786Y-2876123*
X-15358051*
X-15401371Y-2832803*
Y-2771538*
X-15358051Y-2728219*
X-15296786*
G37*
Y-2528219D02*
G36*
X-15253467Y-2571539D01*
Y-2632803*
X-15296786Y-2676123*
X-15358051*
X-15401371Y-2632803*
Y-2571539*
X-15358051Y-2528219*
X-15296786*
G37*
X-15496786D02*
G36*
X-15453466Y-2571539D01*
Y-2632803*
X-15496786Y-2676123*
X-15558051*
X-15601370Y-2632803*
Y-2571539*
X-15558051Y-2528219*
X-15496786*
G37*
Y-2728219D02*
G36*
X-15453466Y-2771538D01*
Y-2832803*
X-15496786Y-2876123*
X-15558051*
X-15601370Y-2832803*
Y-2771538*
X-15558051Y-2728219*
X-15496786*
G37*
X-14496788Y-2528219D02*
G36*
X-14453468Y-2571539D01*
Y-2632803*
X-14496788Y-2676123*
X-14558053*
X-14601372Y-2632803*
Y-2571539*
X-14558053Y-2528219*
X-14496788*
G37*
D1074*
X-17848420Y-5654159D03*
Y-6354183D03*
D1075*
X-18198432Y-6004171D03*
X-17498408D03*
D1076*
X-19053421Y-6639171D03*
X-19183418D03*
D1077*
X-17975420Y-4707171D03*
Y-4507171D03*
D1078*
Y-3563180D03*
Y-3873162D03*
D1079*
X-18130410Y-3718171D03*
X-17820429D03*
D1083*
X-15308419Y-5051671D03*
Y-5115171D03*
Y-5178671D03*
D1084*
X-16959420Y-1400421D03*
X-17848420D03*
X-18356420Y-5115171D03*
X-17626170Y-5845421D03*
X-17848420Y-6067671D03*
X-17880170Y-6226421D03*
X-17594420Y-6258171D03*
X-18800920Y-5750171D03*
X-18927920D03*
X-19086670Y-6575671D03*
X-19213670D03*
X-18737420Y-5115171D03*
X-17975420Y-5781921D03*
D1085*
X-16365415Y-3872171D03*
X-19245420Y-1622671D03*
X-16365415Y-7272164D03*
X-19245420Y-9560171D03*
X-11965424Y-7272164D03*
X-10418920Y-9560171D03*
X-11965424Y-3872171D03*
X-10418920Y-1622671D03*
D1086*
X-12435044Y-2586550D03*
Y-2976542D03*
D1087*
X-12006419Y-2924167D03*
Y-2734175D03*
X-11752419D03*
Y-2924167D03*
X-11879419Y-2035167D03*
Y-1845175D03*
X-12133419D03*
Y-2035167D03*
X-11625419D03*
Y-1845175D03*
X-11371419D03*
Y-2035167D03*
X-12816044Y-1543042D03*
Y-1353050D03*
D1088*
X-18356420Y-5226982D03*
Y-5511360D03*
X-18737420D03*
Y-5226982D03*
X-18007170Y-6909732D03*
Y-7194110D03*
X-17689670D03*
Y-6909732D03*
X-14165419Y-5765360D03*
X-13911419D03*
Y-5480982D03*
X-14165419D03*
D1089*
X-14354421Y-5369171D03*
X-14484418D03*
X-13722418D03*
X-13592421D03*
X-15211671Y-3559421D03*
X-15341668D03*
X-17021421Y-2321171D03*
X-17151418D03*
Y-1813171D03*
X-17021421D03*
X-17910421D03*
X-18040418D03*
Y-2321171D03*
X-17910421D03*
X-18291421Y-3591171D03*
X-18421418D03*
Y-3845171D03*
X-18291421D03*
X-18418421Y-5718421D03*
X-18548418D03*
X-18799421Y-5813671D03*
X-18929418D03*
X-18548418Y-6004171D03*
X-18418421D03*
Y-6226421D03*
X-18548418D03*
Y-6385171D03*
X-18418421D03*
X-18802418Y-7401171D03*
X-18672421D03*
Y-7655171D03*
X-18802418D03*
X-17913418Y-7401171D03*
X-17783421D03*
X-17405418Y-6353421D03*
X-17275421D03*
X-17087918Y-6194671D03*
X-16957921D03*
Y-5877171D03*
X-17087918D03*
D1090*
X-17340420Y-5688169D03*
Y-5558172D03*
X-16641919Y-5243669D03*
Y-5113672D03*
X-17753170Y-4672169D03*
Y-4542172D03*
X-17848420Y-4291169D03*
Y-4161172D03*
X-18102420D03*
Y-4291169D03*
X-17975420Y-4923172D03*
Y-5053169D03*
X-17657920Y-3624419D03*
Y-3494422D03*
X-16070419Y-3402169D03*
Y-3272172D03*
X-15530669Y-3275169D03*
Y-3145172D03*
X-14927419D03*
Y-3275169D03*
X-14736919D03*
Y-3145172D03*
X-14546419D03*
Y-3275169D03*
X-14038419Y-3021169D03*
Y-2891172D03*
Y-2703669D03*
Y-2573672D03*
X-13530419Y-3399172D03*
X-13403419D03*
X-13276419D03*
X-13149419D03*
Y-3529169D03*
X-13276419D03*
X-13403419D03*
X-13530419D03*
X-12958919D03*
Y-3399172D03*
X-12768419D03*
Y-3529169D03*
X-13435169Y-4415172D03*
Y-4545169D03*
X-13593919D03*
Y-4415172D03*
X-13752669D03*
Y-4545169D03*
X-13911419D03*
Y-4415172D03*
X-14673419Y-1624169D03*
Y-1494172D03*
X-14832169D03*
Y-1624169D03*
X-12641419Y-1560669D03*
Y-1430672D03*
X-17022920Y-7971172D03*
X-17149920D03*
X-17276920D03*
Y-8101169D03*
X-17149920D03*
X-17022920D03*
X-18864420Y-6450169D03*
X-18991420D03*
Y-6320172D03*
X-18864420D03*
X-19118420Y-7463172D03*
Y-7593169D03*
D1091*
X-17975420Y-3718171D03*
D1092*
X-17615908Y-3845171D03*
X-17445931D03*
X-18049181Y-3337171D03*
X-18219158D03*
D1093*
X-17848420Y-2152159D03*
Y-1982182D03*
X-16959420D03*
Y-2152159D03*
D1094*
X-16768919Y-6702671D03*
Y-6543921D03*
Y-6385171D03*
X-16832420Y-4226171D03*
X-17467420Y-4099171D03*
X-17848420Y-1622671D03*
X-16959420D03*
X-15022669Y-3559421D03*
X-12641419Y-7686921D03*
D1095*
X-16705419Y-1349621D03*
X-17213420D03*
X-17594420D03*
X-18102420D03*
D1096*
X-14168417Y-1618175D03*
X-14103418D03*
X-14038419D03*
X-13973421D03*
X-13908422D03*
D1097*
X-13788407Y-1593181D03*
X-14288432D03*
D1098*
X-13938420Y-1323179D03*
X-14138419D03*
D1099*
X-13797424Y-1940171D03*
X-13517415D03*
D1100*
X-10982419Y-4341182D03*
Y-8659182D03*
D37*
X-17098408Y-9306171D03*
Y-9056159D03*
X-18548418D03*
Y-9556183D03*
D38*
X-15390411Y-7357178D03*
X-15340423D03*
X-15290411D03*
X-15240424D03*
X-15190411D03*
X-15140424D03*
X-15090411D03*
X-15040424D03*
X-14990411D03*
X-14940424D03*
X-14890412D03*
X-14840424D03*
X-14790412D03*
X-14740425D03*
X-14690412D03*
X-14640425D03*
X-14590412D03*
X-14540425D03*
X-14490412D03*
X-14440425D03*
X-14390413D03*
X-14340425D03*
X-14290413D03*
X-14240426D03*
X-14190413D03*
X-14140426D03*
X-14090413D03*
X-14040426D03*
X-13990413D03*
X-13940426D03*
X-13890414D03*
X-13840426D03*
X-13790414D03*
X-13740427D03*
X-13690414D03*
X-13640427D03*
X-13590414D03*
X-13540427D03*
X-13490414D03*
X-13440427D03*
X-13390415D03*
X-13340427D03*
X-13290415D03*
X-13240428D03*
X-13190415D03*
X-13140428D03*
X-13090415D03*
X-13040428D03*
X-12990415D03*
X-12940428D03*
Y-6987176D03*
X-12990415D03*
X-13040428D03*
X-13090415D03*
X-13140428D03*
X-13190415D03*
X-13240428D03*
X-13290415D03*
X-13340427D03*
X-13390415D03*
X-13440427D03*
X-13490414D03*
X-13540427D03*
X-13590414D03*
X-13640427D03*
X-13690414D03*
X-13740427D03*
X-13790414D03*
X-13840426D03*
X-13890414D03*
X-13940426D03*
X-13990413D03*
X-14040426D03*
X-14090413D03*
X-14140426D03*
X-14190413D03*
X-14240426D03*
X-14290413D03*
X-14340425D03*
X-14390413D03*
X-14440425D03*
X-14490412D03*
X-14540425D03*
X-14590412D03*
X-14640425D03*
X-14690412D03*
X-14740425D03*
X-14790412D03*
X-14840424D03*
X-14890412D03*
X-14940424D03*
X-14990411D03*
X-15040424D03*
X-15090411D03*
X-15140424D03*
X-15190411D03*
X-15240424D03*
X-15290411D03*
X-15340423D03*
X-15390411D03*
Y-4157159D03*
X-15340423D03*
X-15290411D03*
X-15240424D03*
X-15190411D03*
X-15140424D03*
X-15090411D03*
X-15040424D03*
X-14990411D03*
X-14940424D03*
X-14890412D03*
X-14840424D03*
X-14790412D03*
X-14740425D03*
X-14690412D03*
X-14640425D03*
X-14590412D03*
X-14540425D03*
X-14490412D03*
X-14440425D03*
X-14390413D03*
X-14340425D03*
X-14290413D03*
X-14240426D03*
X-14190413D03*
X-14140426D03*
X-14090413D03*
X-14040426D03*
X-13990413D03*
X-13940426D03*
X-13890414D03*
X-13840426D03*
X-13790414D03*
X-13740427D03*
X-13690414D03*
X-13640427D03*
X-13590414D03*
X-13540427D03*
X-13490414D03*
X-13440427D03*
X-13390415D03*
X-13340427D03*
X-13290415D03*
X-13240428D03*
X-13190415D03*
X-13140428D03*
X-13090415D03*
X-13040428D03*
X-12990415D03*
X-12940428D03*
Y-3787183D03*
X-12990415D03*
X-13040428D03*
X-13090415D03*
X-13140428D03*
X-13190415D03*
X-13240428D03*
X-13290415D03*
X-13340427D03*
X-13390415D03*
X-13440427D03*
X-13490414D03*
X-13540427D03*
X-13590414D03*
X-13640427D03*
X-13690414D03*
X-13740427D03*
X-13790414D03*
X-13840426D03*
X-13890414D03*
X-13940426D03*
X-13990413D03*
X-14040426D03*
X-14090413D03*
X-14140426D03*
X-14190413D03*
X-14240426D03*
X-14290413D03*
X-14340425D03*
X-14390413D03*
X-14440425D03*
X-14490412D03*
X-14540425D03*
X-14590412D03*
X-14640425D03*
X-14690412D03*
X-14740425D03*
X-14790412D03*
X-14840424D03*
X-14890412D03*
X-14940424D03*
X-14990411D03*
X-15040424D03*
X-15090411D03*
X-15140424D03*
X-15190411D03*
X-15240424D03*
X-15290411D03*
X-15340423D03*
X-15390411D03*
D39*
X-15662927Y-4087182D03*
X-16150429Y-4574659D03*
Y-6569676D03*
X-15662927Y-7287176D03*
X-12667912D03*
Y-4087182D03*
D40*
X-16080427Y-4847175D03*
Y-4897163D03*
Y-4947175D03*
Y-4997162D03*
Y-5047175D03*
Y-5097162D03*
Y-5147175D03*
Y-5197162D03*
Y-5247175D03*
Y-5297162D03*
Y-5347174D03*
Y-5397162D03*
Y-5447174D03*
Y-5497161D03*
Y-5547174D03*
Y-5597161D03*
Y-5647174D03*
Y-5697161D03*
Y-5747174D03*
Y-5797161D03*
Y-5847173D03*
Y-5897161D03*
Y-5947173D03*
Y-5997160D03*
Y-6047173D03*
Y-6097160D03*
Y-6147173D03*
Y-6197160D03*
Y-6247173D03*
Y-6297160D03*
X-16450429D03*
Y-6247173D03*
Y-6197160D03*
Y-6147173D03*
Y-6097160D03*
Y-6047173D03*
Y-5997160D03*
Y-5947173D03*
Y-5897161D03*
Y-5847173D03*
Y-5797161D03*
Y-5747174D03*
Y-5697161D03*
Y-5647174D03*
Y-5597161D03*
Y-5547174D03*
Y-5497161D03*
Y-5447174D03*
Y-5397162D03*
Y-5347174D03*
Y-5297162D03*
Y-5247175D03*
Y-5197162D03*
Y-5147175D03*
Y-5097162D03*
Y-5047175D03*
Y-4997162D03*
Y-4947175D03*
Y-4897163D03*
Y-4847175D03*
D41*
X-10990420Y-2237173D03*
Y-1897169D03*
X-13149419D03*
Y-2237173D03*
D42*
X-12303422Y-1559171D03*
X-11963417D03*
D43*
X-12990415Y-3019671D03*
X-12800423D03*
X-12037915Y-2448171D03*
X-11847923D03*
X-11593415D03*
X-11403423D03*
D44*
X-14327421Y-2602171D03*
X-13784419Y-2575171D03*
X-11307919Y-9179171D03*
D45*
X-15181419Y-1537174D03*
Y-1327167D03*
X-15435419D03*
Y-1537174D03*
D46*
X-10267790Y-4988171D03*
Y-6258171D03*
D47*
X-16070419Y-3052183D03*
Y-2352159D03*
D1084*
X-16959420Y-1400421D03*
X-17848420D03*
X-18197670Y-2924421D03*
X-17753170Y-2956171D03*
X-17578545Y-3495921D03*
Y-3622921D03*
X-17372170Y-3749921D03*
X-17327720Y-3972171D03*
X-17689670D03*
X-17816670Y-3940421D03*
X-18292920Y-3924546D03*
X-18324670Y-4035671D03*
X-18419920Y-3924546D03*
X-18197670Y-4035671D03*
X-18292920Y-3511796D03*
X-18419920D03*
X-17665540Y-4543671D03*
Y-4686546D03*
X-18102420Y-4778621D03*
X-18388170Y-4670671D03*
X-18356420Y-5115171D03*
X-18197670D03*
X-18102420Y-5146921D03*
X-18007170Y-5210421D03*
X-17848420Y-5496171D03*
X-17790660Y-5559671D03*
X-17715679D03*
X-17626170Y-5527921D03*
X-17467420Y-5337421D03*
Y-5210421D03*
X-17261045Y-5559671D03*
X-17340420Y-5813671D03*
X-17403920Y-5877171D03*
X-17372170Y-6194671D03*
X-17197545Y-6385171D03*
X-17312022Y-6610774D03*
X-17368817Y-6667568D03*
X-17470772Y-6737774D03*
X-17527567Y-6794568D03*
X-17741663Y-6618927D03*
X-17975420Y-6766171D03*
X-18165920Y-6893171D03*
X-18483420Y-6543921D03*
X-18388170Y-6480421D03*
X-18292920Y-6258171D03*
Y-6067671D03*
Y-5988296D03*
Y-5877171D03*
X-18419920Y-5845421D03*
X-18292920Y-5686671D03*
X-18610420Y-5496171D03*
X-18800920Y-5750171D03*
X-18927920D03*
X-18705670Y-6226421D03*
X-19086670Y-6575671D03*
X-19213670D03*
Y-7464671D03*
Y-7591671D03*
X-18673920Y-7528171D03*
X-17911920Y-7480546D03*
X-17784920D03*
X-17689670Y-7032871D03*
X-17019567Y-6572318D03*
X-16962772Y-6515524D03*
X-16864170Y-6226421D03*
X-16800670Y-6131171D03*
X-16927670Y-6035921D03*
X-16800670Y-5940671D03*
X-16864170Y-5813671D03*
X-16546669Y-6385171D03*
Y-6543921D03*
Y-6702671D03*
X-16260919Y-6194671D03*
Y-6035921D03*
Y-5877171D03*
Y-5750171D03*
Y-5591421D03*
Y-5432671D03*
Y-5210421D03*
X-16737169Y-5115171D03*
X-15848169Y-5813671D03*
X-15530669Y-6035921D03*
X-15435419Y-5972421D03*
X-15340169Y-5718421D03*
X-15283019Y-5623171D03*
X-15308419Y-5496171D03*
X-15498919Y-5115171D03*
X-15721169Y-5369171D03*
X-15298259Y-4797671D03*
X-15086169Y-4702421D03*
X-14959169Y-4765921D03*
X-14768669Y-4797671D03*
Y-4988171D03*
X-14927419D03*
Y-5178671D03*
X-14482919Y-5273921D03*
X-14197169Y-5337421D03*
X-14038419D03*
X-13943169D03*
X-13593919Y-5273921D03*
X-13498669Y-5210421D03*
X-13435169Y-5369171D03*
Y-5496171D03*
X-13498669Y-5597771D03*
X-13403419Y-5654921D03*
X-13466919Y-5718421D03*
Y-5845421D03*
X-13720919Y-5893173D03*
X-13847919Y-5908921D03*
X-14038419Y-6258171D03*
X-14324169Y-6448671D03*
X-14419419Y-6512171D03*
X-14609919Y-6575671D03*
X-14800419Y-6416921D03*
X-14895669D03*
X-14736919Y-6321671D03*
X-14387669Y-6067671D03*
X-14324169Y-5803181D03*
X-14355919Y-5718421D03*
Y-5623171D03*
X-14641669Y-5686671D03*
X-14959169Y-5813671D03*
X-14260669Y-6639171D03*
X-14324169Y-6702671D03*
Y-6829671D03*
X-14578169D03*
Y-7147171D03*
X-14736919Y-7178921D03*
X-15121272Y-7118774D03*
X-15178067Y-7175568D03*
X-15311772D03*
X-15368567Y-7118774D03*
X-15403669Y-6829671D03*
X-15213169D03*
X-15181419Y-7496421D03*
X-15086169D03*
X-15340169D03*
X-15213169Y-7718671D03*
X-15689419Y-7782171D03*
Y-7623421D03*
X-16070419Y-6956671D03*
X-15848169Y-6480421D03*
X-17245170Y-7877421D03*
X-16895920Y-8004421D03*
X-16768919Y-8401296D03*
X-16038669Y-8353671D03*
X-15848169D03*
X-15158077Y-8321921D03*
X-15077762D03*
X-14904077Y-8258421D03*
X-14823762D03*
X-14681827Y-8004421D03*
X-14601512D03*
X-14260669Y-7718671D03*
X-14101919Y-7528171D03*
X-13974919Y-7210671D03*
X-13879669Y-7147171D03*
X-13816169Y-7210671D03*
X-13593919Y-7178921D03*
X-13339919D03*
X-13181169Y-7210671D03*
X-13085919D03*
X-13022419Y-7115421D03*
X-12946219Y-7134471D03*
X-12927169Y-7210671D03*
X-12997019Y-7496421D03*
X-13085919Y-7528171D03*
X-13181169Y-7496421D03*
X-13276419Y-7591671D03*
X-12958919Y-7655171D03*
X-13625669Y-7813921D03*
X-14228919Y-8417171D03*
X-14292419Y-8639421D03*
X-14387669Y-8734671D03*
X-14641669Y-9020421D03*
X-13498669Y-8988671D03*
Y-9179171D03*
Y-9369671D03*
Y-9560171D03*
X-11688919Y-8099671D03*
Y-8004421D03*
Y-7909171D03*
Y-7813921D03*
X-11381579Y-7073511D03*
X-11386659Y-6829671D03*
X-11434919Y-6639171D03*
X-11371419Y-6480421D03*
X-11593669Y-6258171D03*
X-11657169Y-6162921D03*
X-11720669Y-6353421D03*
X-11784169Y-6543921D03*
X-11244419Y-6067671D03*
X-11149170Y-5940671D03*
X-11339669Y-5845421D03*
X-12419169Y-6734421D03*
X-12514419D03*
X-12609669Y-6575671D03*
X-12546169Y-6131171D03*
X-12800169Y-6035921D03*
X-12990669Y-5813671D03*
Y-5623171D03*
X-13212919Y-5654921D03*
Y-5813671D03*
Y-6004171D03*
X-13498669Y-6258171D03*
Y-6353421D03*
Y-6448671D03*
X-13149419Y-6861421D03*
X-13943169Y-6766171D03*
X-13974919Y-6861421D03*
X-14070169D03*
Y-6702671D03*
X-14133669Y-6639171D03*
X-14387669Y-7115421D03*
X-14324169Y-7178921D03*
X-14228919D03*
X-12800169Y-5400921D03*
X-12831919Y-5146921D03*
X-12927169Y-5051671D03*
X-13181169Y-5210421D03*
X-12958919Y-4702421D03*
X-13149419Y-4638921D03*
Y-4321421D03*
X-12958919D03*
X-12831919Y-4416671D03*
X-12673169Y-4670671D03*
X-12546169Y-5210421D03*
X-13720919Y-4924671D03*
X-13879669Y-4797671D03*
X-14165419Y-4861171D03*
X-14197169Y-4670671D03*
Y-4575421D03*
X-14260669Y-4353171D03*
X-14165419Y-3972171D03*
X-13974919D03*
X-13784419Y-4003921D03*
X-13689169Y-3972171D03*
X-13435169D03*
X-13181169D03*
X-13117669Y-3908671D03*
X-13080839Y-3977251D03*
X-12863669Y-3718171D03*
X-13054169Y-3464171D03*
X-12965269Y-3324471D03*
X-12863669D03*
X-12768419D03*
X-12673169Y-3019671D03*
X-13117669D03*
X-13244669Y-3114921D03*
X-13276419Y-3324471D03*
X-13403419D03*
X-13149419D03*
X-13339919Y-3622921D03*
X-13466919D03*
X-13625669Y-3559421D03*
X-13657419Y-3464171D03*
X-13752669Y-3051421D03*
X-13149419Y-2733921D03*
X-13022419D03*
X-12831919Y-2479921D03*
X-12736669D03*
X-12990669Y-2352921D03*
X-13022419Y-2086221D03*
X-13149419Y-2003671D03*
X-13212919Y-2130671D03*
X-13403419Y-2321171D03*
X-13924450Y-2238951D03*
X-13911419Y-2130671D03*
X-14165419Y-1749671D03*
X-14959169Y-2130671D03*
Y-2257671D03*
Y-2384671D03*
X-14863919Y-3495921D03*
X-14800419Y-3940421D03*
X-14736919Y-4035671D03*
X-14673419Y-3972171D03*
X-14419419D03*
X-14705169Y-4321421D03*
X-14768669Y-4384921D03*
X-15022669Y-4321421D03*
X-15213169D03*
X-15340169D03*
X-15308419Y-3972171D03*
X-15022669D03*
X-14927419D03*
X-15784669Y-3940421D03*
X-15975169Y-3686421D03*
X-15816419Y-4416671D03*
X-18737420Y-5115171D03*
X-18007170Y-5559671D03*
X-16102169Y-9560171D03*
X-12577919Y-3781671D03*
X-12546169Y-3622921D03*
X-11879419Y-3019671D03*
Y-2670421D03*
X-12186759Y-2606921D03*
X-12133419Y-2162421D03*
X-11752419Y-2098921D03*
X-11180920Y-2797421D03*
X-11244419Y-2924421D03*
X-11339669Y-2860921D03*
X-12673169Y-1717921D03*
X-12863669Y-1686171D03*
X-12958919D03*
X-13022419Y-1781421D03*
X-12958919Y-1336921D03*
X-12641419Y-1305171D03*
X-12482669Y-1432171D03*
D48*
X-12815440Y-7087191D03*
X-15515440D03*
X-16350439Y-6422191D03*
Y-4722190D03*
X-15515440Y-3887190D03*
X-12815440D03*
M02*
