G04 Filename: d:\work\silk_6 *
G04 Creator: GC-CAM (TM) 4.1.4  Mon Jun 29 19:03:02 2020 *
G04 This file contains layer(s): *
G04 Layer 12: CLIPPED *
%FSLAX35Y35*%
G04 Units: mm   *
%MOMM*%
G71*
%SFA1.00000B1.00000*%
%OFA0.00000B0.00000*%
G75*
%AD*%
G04 D1035 (position 1 of UNTITLED):0.152400 Round     *
%ADD1035C,0.152400*%
G04 D901 (position 2 of UNTITLED):0.100000 Round     *
%ADD901C,0.100000*%
G04 D916 (position 17 of UNTITLED):0.203200 Round     *
%ADD916C,0.203200*%
G04 D56 (position 47 of UNTITLED):0.299974 Round     *
%ADD56C,0.299974*%
G04 D78 (position 69 of UNTITLED):0.254000 Round     *
%ADD78C,0.254000*%
G04 D139 (position 130 of UNTITLED):0.127000 Round     *
%ADD139C,0.127000*%
G04 D142 (position 133 of UNTITLED):0.199898 Round     *
%ADD142C,0.199898*%
G04 D146 (position 137 of UNTITLED):0.299974 Square    *
%ADD146R,0.299974X0.299974*%
G04 D148 (position 139 of UNTITLED):0.050800X0.025400 Rectangle *
%ADD148R,0.050800X0.025400*%
G04 D149 (position 140 of UNTITLED):0.076200X0.025400 Rectangle *
%ADD149R,0.076200X0.025400*%
G04 D150 (position 141 of UNTITLED):0.101600X0.025400 Rectangle *
%ADD150R,0.101600X0.025400*%
G04 D151 (position 142 of UNTITLED):0.152400X0.025400 Rectangle *
%ADD151R,0.152400X0.025400*%
G04 D152 (position 143 of UNTITLED):0.177800X0.025400 Rectangle *
%ADD152R,0.177800X0.025400*%
G04 D153 (position 144 of UNTITLED):0.203200X0.025400 Rectangle *
%ADD153R,0.203200X0.025400*%
G04 D154 (position 145 of UNTITLED):0.228600X0.025400 Rectangle *
%ADD154R,0.228600X0.025400*%
G04 D155 (position 146 of UNTITLED):0.254000X0.025400 Rectangle *
%ADD155R,0.254000X0.025400*%
G04 D156 (position 147 of UNTITLED):0.279400X0.025400 Rectangle *
%ADD156R,0.279400X0.025400*%
G04 D157 (position 148 of UNTITLED):0.304800X0.025400 Rectangle *
%ADD157R,0.304800X0.025400*%
G04 D158 (position 149 of UNTITLED):0.330200X0.025400 Rectangle *
%ADD158R,0.330200X0.025400*%
G04 D159 (position 150 of UNTITLED):0.355600X0.025400 Rectangle *
%ADD159R,0.355600X0.025400*%
G04 D160 (position 151 of UNTITLED):0.381000X0.025400 Rectangle *
%ADD160R,0.381000X0.025400*%
G04 D161 (position 152 of UNTITLED):0.406400X0.025400 Rectangle *
%ADD161R,0.406400X0.025400*%
G04 D162 (position 153 of UNTITLED):0.431800X0.025400 Rectangle *
%ADD162R,0.431800X0.025400*%
G04 D163 (position 154 of UNTITLED):0.457200X0.025400 Rectangle *
%ADD163R,0.457200X0.025400*%
G04 D164 (position 155 of UNTITLED):0.482600X0.025400 Rectangle *
%ADD164R,0.482600X0.025400*%
G04 D165 (position 156 of UNTITLED):0.127000X0.025400 Rectangle *
%ADD165R,0.127000X0.025400*%
G04 D166 (position 157 of UNTITLED):0.508000X0.025400 Rectangle *
%ADD166R,0.508000X0.025400*%
G04 D167 (position 158 of UNTITLED):0.609600X0.025400 Rectangle *
%ADD167R,0.609600X0.025400*%
G04 D168 (position 159 of UNTITLED):0.558800X0.025400 Rectangle *
%ADD168R,0.558800X0.025400*%
G04 D169 (position 160 of UNTITLED):0.762000X0.025400 Rectangle *
%ADD169R,0.762000X0.025400*%
G04 D170 (position 161 of UNTITLED):0.889000X0.025400 Rectangle *
%ADD170R,0.889000X0.025400*%
G04 D171 (position 162 of UNTITLED):1.016000X0.025400 Rectangle *
%ADD171R,1.016000X0.025400*%
G04 D172 (position 163 of UNTITLED):1.066800X0.025400 Rectangle *
%ADD172R,1.066800X0.025400*%
G04 D173 (position 164 of UNTITLED):1.168400X0.025400 Rectangle *
%ADD173R,1.168400X0.025400*%
G04 D174 (position 165 of UNTITLED):1.270000X0.025400 Rectangle *
%ADD174R,1.270000X0.025400*%
G04 D175 (position 166 of UNTITLED):1.320800X0.025400 Rectangle *
%ADD175R,1.320800X0.025400*%
G04 D176 (position 167 of UNTITLED):1.397000X0.025400 Rectangle *
%ADD176R,1.397000X0.025400*%
G04 D177 (position 168 of UNTITLED):1.473200X0.025400 Rectangle *
%ADD177R,1.473200X0.025400*%
G04 D178 (position 169 of UNTITLED):1.524000X0.025400 Rectangle *
%ADD178R,1.524000X0.025400*%
G04 D179 (position 170 of UNTITLED):1.574800X0.025400 Rectangle *
%ADD179R,1.574800X0.025400*%
G04 D180 (position 171 of UNTITLED):1.625600X0.025400 Rectangle *
%ADD180R,1.625600X0.025400*%
G04 D181 (position 172 of UNTITLED):1.676400X0.025400 Rectangle *
%ADD181R,1.676400X0.025400*%
G04 D182 (position 173 of UNTITLED):1.727200X0.025400 Rectangle *
%ADD182R,1.727200X0.025400*%
G04 D183 (position 174 of UNTITLED):1.778000X0.025400 Rectangle *
%ADD183R,1.778000X0.025400*%
G04 D184 (position 175 of UNTITLED):1.828800X0.025400 Rectangle *
%ADD184R,1.828800X0.025400*%
G04 D185 (position 176 of UNTITLED):1.879600X0.025400 Rectangle *
%ADD185R,1.879600X0.025400*%
G04 D186 (position 177 of UNTITLED):1.930400X0.025400 Rectangle *
%ADD186R,1.930400X0.025400*%
G04 D187 (position 178 of UNTITLED):4.114800X0.025400 Rectangle *
%ADD187R,4.114800X0.025400*%
G04 D188 (position 179 of UNTITLED):0.787400X0.025400 Rectangle *
%ADD188R,0.787400X0.025400*%
G04 D189 (position 180 of UNTITLED):4.089400X0.025400 Rectangle *
%ADD189R,4.089400X0.025400*%
G04 D190 (position 181 of UNTITLED):4.038600X0.025400 Rectangle *
%ADD190R,4.038600X0.025400*%
G04 D191 (position 182 of UNTITLED):0.685800X0.025400 Rectangle *
%ADD191R,0.685800X0.025400*%
G04 D192 (position 183 of UNTITLED):3.987800X0.025400 Rectangle *
%ADD192R,3.987800X0.025400*%
G04 D193 (position 184 of UNTITLED):3.937000X0.025400 Rectangle *
%ADD193R,3.937000X0.025400*%
G04 D194 (position 185 of UNTITLED):0.635000X0.025400 Rectangle *
%ADD194R,0.635000X0.025400*%
G04 D195 (position 186 of UNTITLED):3.911600X0.025400 Rectangle *
%ADD195R,3.911600X0.025400*%
G04 D196 (position 187 of UNTITLED):3.886200X0.025400 Rectangle *
%ADD196R,3.886200X0.025400*%
G04 D197 (position 188 of UNTITLED):3.860800X0.025400 Rectangle *
%ADD197R,3.860800X0.025400*%
G04 D198 (position 189 of UNTITLED):3.835400X0.025400 Rectangle *
%ADD198R,3.835400X0.025400*%
G04 D199 (position 190 of UNTITLED):0.533400X0.025400 Rectangle *
%ADD199R,0.533400X0.025400*%
G04 D200 (position 191 of UNTITLED):0.584200X0.025400 Rectangle *
%ADD200R,0.584200X0.025400*%
G04 D201 (position 192 of UNTITLED):3.810000X0.025400 Rectangle *
%ADD201R,3.810000X0.025400*%
G04 D202 (position 193 of UNTITLED):3.784600X0.025400 Rectangle *
%ADD202R,3.784600X0.025400*%
G04 D203 (position 194 of UNTITLED):0.736600X0.025400 Rectangle *
%ADD203R,0.736600X0.025400*%
G04 D204 (position 195 of UNTITLED):3.759200X0.025400 Rectangle *
%ADD204R,3.759200X0.025400*%
G04 D205 (position 196 of UNTITLED):0.812800X0.025400 Rectangle *
%ADD205R,0.812800X0.025400*%
G04 D206 (position 197 of UNTITLED):0.838200X0.025400 Rectangle *
%ADD206R,0.838200X0.025400*%
G04 D207 (position 198 of UNTITLED):0.863600X0.025400 Rectangle *
%ADD207R,0.863600X0.025400*%
G04 D208 (position 199 of UNTITLED):0.914400X0.025400 Rectangle *
%ADD208R,0.914400X0.025400*%
G04 D209 (position 200 of UNTITLED):0.939800X0.025400 Rectangle *
%ADD209R,0.939800X0.025400*%
G04 D210 (position 201 of UNTITLED):0.711200X0.025400 Rectangle *
%ADD210R,0.711200X0.025400*%
G04 D211 (position 202 of UNTITLED):0.660400X0.025400 Rectangle *
%ADD211R,0.660400X0.025400*%
G04 D212 (position 203 of UNTITLED):1.041400X0.025400 Rectangle *
%ADD212R,1.041400X0.025400*%
G04 D213 (position 204 of UNTITLED):1.092200X0.025400 Rectangle *
%ADD213R,1.092200X0.025400*%
G04 D214 (position 205 of UNTITLED):1.143000X0.025400 Rectangle *
%ADD214R,1.143000X0.025400*%
G04 D215 (position 206 of UNTITLED):1.193800X0.025400 Rectangle *
%ADD215R,1.193800X0.025400*%
G04 D216 (position 207 of UNTITLED):2.209800X0.025400 Rectangle *
%ADD216R,2.209800X0.025400*%
G04 D217 (position 208 of UNTITLED):2.184400X0.025400 Rectangle *
%ADD217R,2.184400X0.025400*%
G04 D218 (position 209 of UNTITLED):2.133600X0.025400 Rectangle *
%ADD218R,2.133600X0.025400*%
G04 D219 (position 210 of UNTITLED):2.082800X0.025400 Rectangle *
%ADD219R,2.082800X0.025400*%
G04 D220 (position 211 of UNTITLED):2.032000X0.025400 Rectangle *
%ADD220R,2.032000X0.025400*%
G04 D221 (position 212 of UNTITLED):1.981200X0.025400 Rectangle *
%ADD221R,1.981200X0.025400*%
G04 D222 (position 213 of UNTITLED):1.701800X0.025400 Rectangle *
%ADD222R,1.701800X0.025400*%
G04 D223 (position 214 of UNTITLED):1.651000X0.025400 Rectangle *
%ADD223R,1.651000X0.025400*%
G04 D224 (position 215 of UNTITLED):0.990600X0.025400 Rectangle *
%ADD224R,0.990600X0.025400*%
G04 D225 (position 216 of UNTITLED):0.965200X0.025400 Rectangle *
%ADD225R,0.965200X0.025400*%
G04 D226 (position 217 of UNTITLED):1.447800X0.025400 Rectangle *
%ADD226R,1.447800X0.025400*%
G04 D227 (position 218 of UNTITLED):1.371600X0.025400 Rectangle *
%ADD227R,1.371600X0.025400*%
G04 D228 (position 219 of UNTITLED):1.498600X0.025400 Rectangle *
%ADD228R,1.498600X0.025400*%
G04 D229 (position 220 of UNTITLED):2.336800X0.025400 Rectangle *
%ADD229R,2.336800X0.025400*%
G04 D230 (position 221 of UNTITLED):2.362200X0.025400 Rectangle *
%ADD230R,2.362200X0.025400*%
G04 D231 (position 222 of UNTITLED):2.387600X0.025400 Rectangle *
%ADD231R,2.387600X0.025400*%
G04 D232 (position 223 of UNTITLED):2.413000X0.025400 Rectangle *
%ADD232R,2.413000X0.025400*%
G04 D233 (position 224 of UNTITLED):2.438400X0.025400 Rectangle *
%ADD233R,2.438400X0.025400*%
G04 D234 (position 225 of UNTITLED):2.463800X0.025400 Rectangle *
%ADD234R,2.463800X0.025400*%
G04 D235 (position 226 of UNTITLED):2.489200X0.025400 Rectangle *
%ADD235R,2.489200X0.025400*%
G04 D236 (position 227 of UNTITLED):1.905000X0.025400 Rectangle *
%ADD236R,1.905000X0.025400*%
G04 D237 (position 228 of UNTITLED):1.955800X0.025400 Rectangle *
%ADD237R,1.955800X0.025400*%
G04 D238 (position 229 of UNTITLED):1.854200X0.025400 Rectangle *
%ADD238R,1.854200X0.025400*%
G04 D239 (position 230 of UNTITLED):1.803400X0.025400 Rectangle *
%ADD239R,1.803400X0.025400*%
G04 D240 (position 231 of UNTITLED):1.752600X0.025400 Rectangle *
%ADD240R,1.752600X0.025400*%
G04 D241 (position 232 of UNTITLED):1.600200X0.025400 Rectangle *
%ADD241R,1.600200X0.025400*%
G04 D242 (position 233 of UNTITLED):1.422400X0.025400 Rectangle *
%ADD242R,1.422400X0.025400*%
G04 D243 (position 234 of UNTITLED):6.832600X0.025400 Rectangle *
%ADD243R,6.832600X0.025400*%
G04 D244 (position 235 of UNTITLED):6.858000X0.025400 Rectangle *
%ADD244R,6.858000X0.025400*%
G04 D245 (position 236 of UNTITLED):6.908800X0.025400 Rectangle *
%ADD245R,6.908800X0.025400*%
G04 D246 (position 237 of UNTITLED):6.934200X0.025400 Rectangle *
%ADD246R,6.934200X0.025400*%
G04 D247 (position 238 of UNTITLED):6.959600X0.025400 Rectangle *
%ADD247R,6.959600X0.025400*%
G04 D248 (position 239 of UNTITLED):6.985000X0.025400 Rectangle *
%ADD248R,6.985000X0.025400*%
G04 D249 (position 240 of UNTITLED):7.010400X0.025400 Rectangle *
%ADD249R,7.010400X0.025400*%
G04 D250 (position 241 of UNTITLED):7.035800X0.025400 Rectangle *
%ADD250R,7.035800X0.025400*%
G04 D251 (position 242 of UNTITLED):7.061200X0.025400 Rectangle *
%ADD251R,7.061200X0.025400*%
G04 D252 (position 243 of UNTITLED):7.086600X0.025400 Rectangle *
%ADD252R,7.086600X0.025400*%
G04 D253 (position 244 of UNTITLED):1.219200X0.025400 Rectangle *
%ADD253R,1.219200X0.025400*%
G04 D254 (position 245 of UNTITLED):1.244600X0.025400 Rectangle *
%ADD254R,1.244600X0.025400*%
G04 D255 (position 246 of UNTITLED):1.295400X0.025400 Rectangle *
%ADD255R,1.295400X0.025400*%
G04 D256 (position 247 of UNTITLED):1.346200X0.025400 Rectangle *
%ADD256R,1.346200X0.025400*%
G04 D257 (position 248 of UNTITLED):1.117600X0.025400 Rectangle *
%ADD257R,1.117600X0.025400*%
G04 D258 (position 249 of UNTITLED):2.235200X0.025400 Rectangle *
%ADD258R,2.235200X0.025400*%
G04 D259 (position 250 of UNTITLED):2.159000X0.025400 Rectangle *
%ADD259R,2.159000X0.025400*%
G04 D260 (position 251 of UNTITLED):2.057400X0.025400 Rectangle *
%ADD260R,2.057400X0.025400*%
G04 D261 (position 252 of UNTITLED):2.006600X0.025400 Rectangle *
%ADD261R,2.006600X0.025400*%
G04 D262 (position 253 of UNTITLED):4.191000X0.025400 Rectangle *
%ADD262R,4.191000X0.025400*%
G04 D263 (position 254 of UNTITLED):3.302000X0.025400 Rectangle *
%ADD263R,3.302000X0.025400*%
G04 D264 (position 255 of UNTITLED):2.819400X0.025400 Rectangle *
%ADD264R,2.819400X0.025400*%
G04 D265 (position 256 of UNTITLED):2.260600X0.025400 Rectangle *
%ADD265R,2.260600X0.025400*%
G04 D266 (position 257 of UNTITLED):0.025400 Square    *
%ADD266R,0.025400X0.025400*%
G04 D267 (position 258 of UNTITLED):1.009904 Round     *
%ADD267C,1.009904*%
%IPPOS*%
G04 Layer 12: CLIPPED *
%LN(12)CLIPPED*%
%LPD*%
X0Y0D02*
D901*
X-17687130Y-3644332D02*
Y-3681594D01*
X-17649843Y-3644332*
X-17640521*
X-17631199Y-3653654*
Y-3672298*
X-17640521Y-3681594*
Y-3700441D02*
X-17631199Y-3709763D01*
Y-3728406*
X-17640521Y-3737728*
Y-3756575D02*
X-17649843D01*
X-17659165Y-3765897*
Y-3784540*
X-17649843Y-3793862*
X-17640521*
X-17631199Y-3784540*
Y-3765897*
X-17640521Y-3756575*
X-17659165Y-3765897D02*
X-17668486Y-3756575D01*
X-17677808*
X-17687130Y-3765897*
Y-3784540*
X-17677808Y-3793862*
X-17668486*
X-17659165Y-3784540*
X-17640521Y-3812709D02*
X-17677808Y-3849996D01*
X-17687130Y-3840674*
Y-3822031*
X-17677808Y-3812709*
X-17640521*
X-17631199Y-3822031*
Y-3840674*
X-17640521Y-3849996*
X-17677808*
X-17687130Y-3868843D02*
X-17668486Y-3887486D01*
Y-3878165D02*
Y-3906130D01*
X-17687130D02*
X-17631199D01*
Y-3878165*
X-17640521Y-3868843*
X-17659165*
X-17668486Y-3878165*
X-17687130Y-3737728D02*
X-17649843Y-3700441D01*
X-17640521*
X-17687130D02*
Y-3737728D01*
X-17601989Y-4072449D02*
Y-4128380D01*
X-17583371D02*
X-17620633D01*
X-17583371Y-4091093D02*
X-17601989Y-4072449D01*
X-17564524Y-4081771D02*
X-17555202Y-4072449D01*
X-17536559*
X-17527237Y-4081771*
X-17508390D02*
Y-4091093D01*
X-17499068Y-4100415*
X-17480425*
X-17471103Y-4091093*
Y-4081771*
X-17480425Y-4072449*
X-17499068*
X-17508390Y-4081771*
X-17499068Y-4100415D02*
X-17508390Y-4109736D01*
Y-4119058*
X-17499068Y-4128380*
X-17480425*
X-17471103Y-4119058*
Y-4109736*
X-17480425Y-4100415*
X-17452256Y-4081771D02*
X-17414969Y-4119058D01*
X-17424291Y-4128380*
X-17442934*
X-17452256Y-4119058*
Y-4081771*
X-17442934Y-4072449*
X-17424291*
X-17414969Y-4081771*
Y-4119058*
X-17396122Y-4128380D02*
X-17377479Y-4109736D01*
X-17386800D02*
X-17358835D01*
Y-4128380D02*
Y-4072449D01*
X-17386800*
X-17396122Y-4081771*
Y-4100415*
X-17386800Y-4109736*
X-17527237Y-4128380D02*
X-17564524Y-4091093D01*
Y-4081771*
Y-4128380D02*
X-17527237D01*
X-17958021Y-4787332D02*
X-17967343D01*
X-17976665Y-4796654*
X-17985986Y-4787332*
X-17995308*
X-18004630Y-4796654*
Y-4815298*
X-17995308Y-4824594*
Y-4843441D02*
X-17985986D01*
X-17976665Y-4852763*
Y-4880728*
X-17995308*
X-18004630Y-4871406*
Y-4852763*
X-17995308Y-4843441*
X-17958021Y-4862084D02*
X-17976665Y-4880728D01*
X-17967343Y-4899575D02*
X-17976665Y-4908897D01*
Y-4927540*
X-17967343Y-4936862*
X-17958021*
X-17948699Y-4927540*
Y-4908897*
X-17958021Y-4899575*
X-17967343*
X-17976665Y-4908897D02*
X-17985986Y-4899575D01*
X-17995308*
X-18004630Y-4908897*
Y-4927540*
X-17995308Y-4936862*
X-17985986*
X-17976665Y-4927540*
X-17958021Y-4955709D02*
X-17995308Y-4992996D01*
X-18004630Y-4983674*
Y-4965031*
X-17995308Y-4955709*
X-17958021*
X-17948699Y-4965031*
Y-4983674*
X-17958021Y-4992996*
X-17995308*
X-18004630Y-5011843D02*
X-17985986Y-5030486D01*
Y-5021165D02*
Y-5049130D01*
X-18004630D02*
X-17948699D01*
Y-5021165*
X-17958021Y-5011843*
X-17976665*
X-17985986Y-5021165*
X-17958021Y-4862084D02*
X-17948699Y-4843441D01*
X-17958021Y-4824594D02*
X-17948699Y-4815298D01*
Y-4796654*
X-17958021Y-4787332*
X-17976665Y-4796654D02*
Y-4805976D01*
X-17817686Y-5120199D02*
X-17799042D01*
X-17789746Y-5129521*
X-17770899D02*
X-17761577Y-5120199D01*
X-17742934*
X-17733612Y-5129521*
X-17714765D02*
X-17677478Y-5166808D01*
Y-5176130*
X-17658631Y-5166808D02*
X-17649309Y-5176130D01*
X-17630666*
X-17621344Y-5166808*
X-17658631Y-5129521*
Y-5166808*
Y-5129521D02*
X-17649309Y-5120199D01*
X-17630666*
X-17621344Y-5129521*
Y-5166808*
X-17602497Y-5176130D02*
X-17565210D01*
Y-5120199*
X-17677478D02*
X-17714765D01*
Y-5129521*
X-17733612Y-5176130D02*
X-17770899Y-5138843D01*
Y-5129521*
Y-5176130D02*
X-17733612D01*
X-17789746D02*
X-17827008Y-5138843D01*
Y-5129521*
X-17817686Y-5120199*
X-17827008Y-5176130D02*
X-17789746D01*
X-18329699Y-5049130D02*
Y-5021165D01*
X-18339021Y-5011843*
X-18357665*
X-18366986Y-5021165*
Y-5049130*
Y-5030486D02*
X-18385630Y-5011843D01*
X-18376308Y-4992996D02*
X-18339021Y-4955709D01*
X-18376308*
X-18385630Y-4965031*
Y-4983674*
X-18376308Y-4992996*
X-18339021*
X-18329699Y-4983674*
Y-4965031*
X-18339021Y-4955709*
Y-4936862D02*
X-18348343D01*
X-18357665Y-4927540*
Y-4908897*
X-18366986Y-4899575*
X-18376308*
X-18385630Y-4908897*
Y-4927540*
X-18376308Y-4936862*
X-18366986*
X-18357665Y-4927540*
Y-4908897D02*
X-18348343Y-4899575D01*
X-18339021*
X-18329699Y-4908897*
Y-4927540*
X-18339021Y-4936862*
X-18357665Y-4880728D02*
Y-4852763D01*
X-18366986Y-4843441*
X-18376308*
X-18385630Y-4852763*
Y-4871406*
X-18376308Y-4880728*
X-18357665*
X-18339021Y-4862084*
X-18329699Y-4843441*
X-18339021Y-4824594D02*
X-18329699Y-4815298D01*
Y-4796654*
X-18339021Y-4787332*
X-18348343*
X-18385630Y-4824594*
Y-4787332*
Y-5049130D02*
X-18329699D01*
X-18368282Y-5342449D02*
X-18358960Y-5351771D01*
Y-5389058*
X-18368282Y-5398380*
X-18386925*
X-18396247Y-5389058*
X-18415094D02*
X-18452381Y-5351771D01*
Y-5389058*
X-18443059Y-5398380*
X-18424416*
X-18415094Y-5389058*
Y-5351771*
X-18424416Y-5342449*
X-18443059*
X-18452381Y-5351771*
X-18471228Y-5342449D02*
X-18508515D01*
Y-5351771*
X-18471228Y-5389058*
Y-5398380*
X-18527362Y-5389058D02*
X-18564649Y-5351771D01*
Y-5389058*
X-18555327Y-5398380*
X-18536684*
X-18527362Y-5389058*
Y-5351771*
X-18536684Y-5342449*
X-18555327*
X-18564649Y-5351771*
X-18583496Y-5370415D02*
X-18620758D01*
X-18611436Y-5342449D02*
X-18583496Y-5370415D01*
X-18611436Y-5398380D02*
Y-5342449D01*
X-18396247Y-5351771D02*
X-18386925Y-5342449D01*
X-18368282*
X-17881186Y-6707699D02*
X-17890508Y-6717021D01*
Y-6726343*
X-17881186Y-6735665*
X-17890508Y-6744986*
Y-6754308*
X-17881186Y-6763630*
X-17862542*
X-17853246Y-6754308*
X-17834399D02*
X-17825077Y-6763630D01*
X-17806434*
X-17797112Y-6754308*
X-17834399Y-6717021*
Y-6754308*
Y-6717021D02*
X-17825077Y-6707699D01*
X-17806434*
X-17797112Y-6717021*
Y-6754308*
X-17778265Y-6717021D02*
X-17740978Y-6754308D01*
Y-6763630*
X-17722131Y-6754308D02*
X-17712809Y-6763630D01*
X-17694166*
X-17684844Y-6754308*
X-17722131Y-6717021*
Y-6754308*
Y-6717021D02*
X-17712809Y-6707699D01*
X-17694166*
X-17684844Y-6717021*
Y-6754308*
X-17665997D02*
X-17656675Y-6763630D01*
X-17638032*
X-17628710Y-6754308*
Y-6717021*
X-17638032Y-6707699*
X-17656675*
X-17665997Y-6717021*
X-17740978Y-6707699D02*
X-17778265D01*
Y-6717021*
X-17853246D02*
X-17862542Y-6707699D01*
X-17881186*
Y-6735665D02*
X-17871864D01*
X-15953758Y-4826880D02*
X-15916496D01*
X-15935114D02*
Y-4770949D01*
X-15916496Y-4789593*
X-15897649D02*
Y-4780271D01*
X-15888327Y-4770949*
X-15869684*
X-15860362Y-4780271*
X-15841515D02*
X-15832193Y-4770949D01*
X-15813550*
X-15804228Y-4780271*
X-15841515D02*
Y-4789593D01*
X-15804228Y-4826880*
X-15841515*
X-15860362D02*
X-15897649Y-4789593D01*
Y-4826880D02*
X-15860362D01*
X-15785381D02*
X-15748094D01*
X-15766738D02*
Y-4770949D01*
X-15748094Y-4789593*
X-15729247Y-4780271D02*
X-15719925Y-4770949D01*
X-15701282*
X-15691960Y-4780271*
Y-4817558*
X-15701282Y-4826880*
X-15719925*
X-15729247Y-4817558*
X-15639255Y-4668130D02*
X-15583324D01*
Y-4640165*
X-15592646Y-4630843*
X-15611290*
X-15620611Y-4640165*
Y-4668130*
Y-4649486D02*
X-15639255Y-4630843D01*
X-15629933Y-4611996D02*
X-15592646Y-4574709D01*
X-15629933*
X-15639255Y-4584031*
Y-4602674*
X-15629933Y-4611996*
X-15592646*
X-15583324Y-4602674*
Y-4584031*
X-15592646Y-4574709*
Y-4555862D02*
X-15583324Y-4546540D01*
Y-4527897*
X-15592646Y-4518575*
X-15601968*
X-15639255Y-4555862*
Y-4518575*
X-15629933Y-4499728D02*
X-15592646Y-4462441D01*
X-15629933*
X-15639255Y-4471763*
Y-4490406*
X-15629933Y-4499728*
X-15592646*
X-15583324Y-4490406*
Y-4471763*
X-15592646Y-4462441*
X-15601968Y-4443594D02*
X-15583324Y-4424976D01*
X-15639255*
Y-4443594D02*
Y-4406332D01*
X-15242380D02*
Y-4443594D01*
X-15205093Y-4406332*
X-15195771*
X-15186449Y-4415654*
Y-4434298*
X-15195771Y-4443594*
Y-4462441D02*
X-15233058Y-4499728D01*
X-15242380Y-4490406*
Y-4471763*
X-15233058Y-4462441*
X-15195771*
X-15186449Y-4471763*
Y-4490406*
X-15195771Y-4499728*
X-15233058*
X-15242380Y-4518575D02*
Y-4555862D01*
X-15205093Y-4518575*
X-15195771*
X-15186449Y-4527897*
Y-4546540*
X-15195771Y-4555862*
Y-4574709D02*
X-15233058Y-4611996D01*
X-15242380Y-4602674*
Y-4584031*
X-15233058Y-4574709*
X-15195771*
X-15186449Y-4584031*
Y-4602674*
X-15195771Y-4611996*
X-15233058*
X-15242380Y-4630843D02*
X-15223736Y-4649486D01*
Y-4640165D02*
Y-4668130D01*
X-15242380D02*
X-15186449D01*
Y-4640165*
X-15195771Y-4630843*
X-15214415*
X-15223736Y-4640165*
X-14893130Y-4946082D02*
Y-4954439D01*
X-14885421Y-4964726D02*
X-14837199D01*
X-14855843Y-4983344*
X-14846521Y-5002191D02*
X-14883808Y-5039478D01*
X-14893130Y-5030156*
Y-5021901*
X-14881408Y-5002191D02*
X-14846521D01*
X-14837199Y-5011513*
Y-5030156*
X-14846521Y-5039478*
X-14883808*
X-14893130Y-5058325D02*
Y-5095612D01*
X-14855843Y-5058325*
X-14846521*
X-14837199Y-5067647*
Y-5086290*
X-14846521Y-5095612*
X-14837199Y-5133102D02*
X-14893130D01*
Y-5144939D02*
Y-5114459D01*
X-14855843Y-5151746D02*
X-14837199Y-5133102D01*
X-14846521Y-5170593D02*
X-14837199Y-5179915D01*
Y-5198558*
X-14846521Y-5207880*
X-14883808*
X-14886978Y-5204710*
X-15059449Y-5282226D02*
X-15078093Y-5300844D01*
X-15059449Y-5282226D02*
X-15115380D01*
Y-5300844D02*
Y-5263582D01*
Y-5319691D02*
Y-5356978D01*
Y-5338334D02*
X-15059449D01*
X-15078093Y-5356978*
Y-5375825D02*
X-15068771D01*
X-15059449Y-5385147*
Y-5403790*
X-15068771Y-5413112*
X-15078093Y-5375825D02*
X-15115380Y-5413112D01*
Y-5375825*
Y-5431959D02*
Y-5469246D01*
Y-5450602D02*
X-15059449D01*
X-15078093Y-5469246*
X-15068771Y-5488093D02*
X-15087415D01*
X-15096736Y-5497415*
Y-5525380*
Y-5506736D02*
X-15115380Y-5488093D01*
Y-5525380D02*
X-15059449D01*
Y-5497415*
X-15068771Y-5488093*
X-15083300Y-5564699D02*
X-15073978Y-5574021D01*
Y-5583343*
X-15083300Y-5592665*
X-15111265*
Y-5574021D02*
X-15101943Y-5564699D01*
X-15083300*
X-15111265Y-5574021D02*
Y-5611308D01*
X-15101943Y-5620630*
X-15083300*
X-15073978Y-5611308*
X-15055131D02*
X-15045809Y-5620630D01*
X-15027166*
X-15017844Y-5611308*
X-15055131Y-5574021*
Y-5611308*
Y-5574021D02*
X-15045809Y-5564699D01*
X-15027166*
X-15017844Y-5574021*
Y-5611308*
X-14998997Y-5620630D02*
X-14980354Y-5601986D01*
X-14989675D02*
X-14961710D01*
Y-5620630D02*
Y-5564699D01*
X-14989675*
X-14998997Y-5574021*
Y-5592665*
X-14989675Y-5601986*
Y-5691699D02*
X-14971032D01*
X-14961710Y-5701021*
Y-5738308*
X-14971032Y-5747630*
X-14989675*
X-14998997Y-5738308*
X-15017844D02*
X-15055131Y-5701021D01*
Y-5738308*
X-15045809Y-5747630*
X-15027166*
X-15017844Y-5738308*
Y-5701021*
X-15027166Y-5691699*
X-15045809*
X-15055131Y-5701021*
X-15073978D02*
Y-5710343D01*
X-15083300Y-5719665*
X-15111265*
Y-5701021D02*
X-15101943Y-5691699D01*
X-15083300*
X-15073978Y-5701021*
X-15111265D02*
Y-5738308D01*
X-15101943Y-5747630*
X-15083300*
X-15073978Y-5738308*
X-15130112Y-5747630D02*
X-15167399D01*
X-15148756D02*
Y-5691699D01*
X-15130112Y-5710343*
X-15186246D02*
X-15204864Y-5691699D01*
Y-5747630*
X-15186246D02*
X-15223508D01*
X-15214186Y-5818699D02*
X-15195542D01*
X-15186246Y-5828021*
X-15214186Y-5818699D02*
X-15223508Y-5828021D01*
Y-5837343*
X-15186246Y-5874630*
X-15223508*
X-15167399D02*
X-15130112D01*
X-15148756D02*
Y-5818699D01*
X-15130112Y-5837343*
X-15111265Y-5828021D02*
X-15101943Y-5818699D01*
X-15083300*
X-15073978Y-5828021*
Y-5837343*
X-15083300Y-5846665*
X-15111265*
Y-5865308D02*
Y-5828021D01*
Y-5865308D02*
X-15101943Y-5874630D01*
X-15083300*
X-15073978Y-5865308*
X-15055131D02*
X-15045809Y-5874630D01*
X-15027166*
X-15017844Y-5865308*
X-15055131Y-5828021*
Y-5865308*
Y-5828021D02*
X-15045809Y-5818699D01*
X-15027166*
X-15017844Y-5828021*
Y-5865308*
X-14998997D02*
X-14989675Y-5874630D01*
X-14971032*
X-14961710Y-5865308*
Y-5861704*
X-14989675Y-5945699D02*
X-14971032D01*
X-14961710Y-5955021*
Y-5992308*
X-14971032Y-6001630*
X-14989675*
X-14998997Y-5992308*
X-15017844D02*
X-15055131Y-5955021D01*
Y-5992308*
X-15045809Y-6001630*
X-15027166*
X-15017844Y-5992308*
Y-5955021*
X-15027166Y-5945699*
X-15045809*
X-15055131Y-5955021*
X-15073978D02*
Y-5964343D01*
X-15083300Y-5973665*
X-15111265*
Y-5992308D02*
Y-5955021D01*
X-15101943Y-5945699*
X-15083300*
X-15073978Y-5955021*
Y-5992308D02*
X-15083300Y-6001630D01*
X-15101943*
X-15111265Y-5992308*
X-15130112Y-6001630D02*
X-15167399D01*
X-15148756D02*
Y-5945699D01*
X-15130112Y-5964343*
X-15186246Y-5955021D02*
X-15195542Y-5945699D01*
X-15214186*
X-15223508Y-5955021*
Y-5964343*
X-15214186Y-5973665*
X-15223508Y-5982986*
Y-5992308*
X-15214186Y-6001630*
X-15195542*
X-15186246Y-5992308*
X-15204864Y-5973665D02*
X-15214186D01*
X-14998997Y-5955021D02*
X-14989675Y-5945699D01*
X-14998997Y-5701021D02*
X-14989675Y-5691699D01*
X-15130112Y-5611308D02*
X-15139434Y-5620630D01*
X-15158077*
X-15167399Y-5611308*
Y-5601986*
X-15158077Y-5592665*
X-15148756*
X-15158077D02*
X-15167399Y-5583343D01*
Y-5574021*
X-15158077Y-5564699*
X-15139434*
X-15130112Y-5574021*
X-15186246Y-5583343D02*
X-15204864Y-5564699D01*
Y-5620630*
X-15186246D02*
X-15223508D01*
X-15333591Y-5417379D02*
X-15352235D01*
X-15361557Y-5408057*
Y-5361448*
X-15380404Y-5380092D02*
X-15399047Y-5361448D01*
Y-5417379*
X-15380404D02*
X-15417691D01*
X-15436538D02*
X-15473825Y-5380092D01*
Y-5370770*
X-15464503Y-5361448*
X-15445859*
X-15436538Y-5370770*
Y-5417379D02*
X-15473825D01*
X-15492672D02*
X-15529959D01*
X-15511315D02*
Y-5361448D01*
X-15492672Y-5380092*
X-15548806D02*
X-15567424Y-5361448D01*
Y-5417379*
X-15548806D02*
X-15586067D01*
X-15805574Y-5239630D02*
X-15861505D01*
Y-5202343*
Y-5183496D02*
Y-5146209D01*
Y-5164852D02*
X-15805574D01*
X-15824218Y-5183496*
X-15814896Y-5127362D02*
X-15805574Y-5118040D01*
Y-5099397*
X-15814896Y-5090075*
X-15824218*
X-15861505Y-5127362*
Y-5090075*
Y-5071228D02*
Y-5033941D01*
Y-5052584D02*
X-15805574D01*
X-15824218Y-5071228*
Y-5015094D02*
X-15805574Y-4996476D01*
X-15861505*
Y-5015094D02*
Y-4977832D01*
X-15324270Y-5361448D02*
Y-5408057D01*
X-15333591Y-5417379*
X-14610936Y-6167949D02*
X-14592292D01*
X-14582996Y-6177271*
X-14610936Y-6167949D02*
X-14620258Y-6177271D01*
Y-6186593*
X-14582996Y-6223880*
X-14620258*
X-14564149D02*
X-14526862D01*
X-14545506D02*
Y-6167949D01*
X-14526862Y-6186593*
X-14508015Y-6177271D02*
X-14498693Y-6167949D01*
X-14480050*
X-14470728Y-6177271*
Y-6186593*
X-14480050Y-6195915*
X-14508015*
Y-6214558D02*
Y-6177271D01*
Y-6214558D02*
X-14498693Y-6223880D01*
X-14480050*
X-14470728Y-6214558*
X-14451881D02*
X-14442559Y-6223880D01*
X-14423916*
X-14414594Y-6214558*
X-14451881Y-6177271*
Y-6214558*
Y-6177271D02*
X-14442559Y-6167949D01*
X-14423916*
X-14414594Y-6177271*
Y-6214558*
X-14395747Y-6223880D02*
X-14377104Y-6205236D01*
X-14386425D02*
X-14358460D01*
Y-6223880D02*
Y-6167949D01*
X-14386425*
X-14395747Y-6177271*
Y-6195915*
X-14386425Y-6205236*
X-14131130Y-6257154D02*
Y-6275798D01*
X-14121808Y-6285094*
X-14131130Y-6303941D02*
Y-6341228D01*
Y-6322584D02*
X-14075199D01*
X-14093843Y-6341228*
X-14084521Y-6360075D02*
X-14075199Y-6369397D01*
Y-6388040*
X-14084521Y-6397362*
X-14093843*
X-14103165Y-6388040*
Y-6360075*
X-14121808D02*
X-14084521D01*
X-14121808D02*
X-14131130Y-6369397D01*
Y-6388040*
X-14121808Y-6397362*
Y-6416209D02*
X-14131130Y-6425531D01*
Y-6444174*
X-14121808Y-6453496*
X-14084521Y-6416209*
X-14121808*
X-14084521D02*
X-14075199Y-6425531D01*
Y-6444174*
X-14084521Y-6453496*
X-14121808*
X-14131130Y-6472343D02*
X-14112486Y-6490986D01*
Y-6481665D02*
Y-6509630D01*
X-14131130D02*
X-14075199D01*
Y-6481665*
X-14084521Y-6472343*
X-14103165*
X-14112486Y-6481665*
X-14071186Y-6548949D02*
X-14080508Y-6558271D01*
Y-6567593*
X-14043246Y-6604880*
X-14080508*
X-14071186Y-6548949D02*
X-14052542D01*
X-14043246Y-6558271*
X-14024399D02*
X-13987112Y-6595558D01*
Y-6604880*
X-13968265Y-6595558D02*
Y-6558271D01*
X-13958943Y-6548949*
X-13940300*
X-13930978Y-6558271*
Y-6567593*
X-13940300Y-6576915*
X-13968265*
Y-6595558D02*
X-13958943Y-6604880D01*
X-13940300*
X-13930978Y-6595558*
X-13912131D02*
X-13902809Y-6604880D01*
X-13884166*
X-13874844Y-6595558*
X-13912131Y-6558271*
Y-6595558*
Y-6558271D02*
X-13902809Y-6548949D01*
X-13884166*
X-13874844Y-6558271*
Y-6595558*
X-13855997Y-6604880D02*
X-13837354Y-6586236D01*
X-13846675D02*
X-13818710D01*
Y-6604880D02*
Y-6548949D01*
X-13846675*
X-13855997Y-6558271*
Y-6576915*
X-13846675Y-6586236*
X-13686630Y-6477880D02*
X-13630699D01*
Y-6449915*
X-13640021Y-6440593*
X-13658665*
X-13667986Y-6449915*
Y-6477880*
Y-6459236D02*
X-13686630Y-6440593D01*
X-13677308Y-6421746D02*
X-13640021Y-6384459D01*
X-13677308*
X-13686630Y-6393781*
Y-6412424*
X-13677308Y-6421746*
X-13640021*
X-13630699Y-6412424*
Y-6393781*
X-13640021Y-6384459*
Y-6365612D02*
X-13649343D01*
X-13658665Y-6356290*
Y-6328325*
X-13677308D02*
X-13640021D01*
X-13630699Y-6337647*
Y-6356290*
X-13640021Y-6365612*
X-13677308D02*
X-13686630Y-6356290D01*
Y-6337647*
X-13677308Y-6328325*
Y-6309478D02*
X-13686630D01*
X-13677308D02*
X-13640021Y-6272191D01*
X-13630699*
Y-6309478*
X-13649343Y-6253344D02*
X-13630699Y-6234726D01*
X-13686630*
Y-6253344D02*
Y-6216082D01*
X-13987112Y-6548949D02*
X-14024399D01*
Y-6558271*
X-14084521Y-6285094D02*
X-14080637Y-6281220D01*
X-14085395Y-6247832D02*
X-14093843D01*
X-14103165Y-6257154*
X-14112486Y-6247832*
X-14121808*
X-14131130Y-6257154*
X-14103165D02*
Y-6266476D01*
X-13413758Y-5738308D02*
X-13404436Y-5747630D01*
X-13385792*
X-13376496Y-5738308*
Y-5719665D02*
X-13395114Y-5710343D01*
X-13404436*
X-13413758Y-5719665*
Y-5738308*
X-13376496Y-5719665D02*
Y-5694778D01*
X-13357649Y-5691699D02*
X-13339006Y-5701021D01*
X-13320362Y-5719665*
X-13348327*
X-13357649Y-5728986*
Y-5738308*
X-13348327Y-5747630*
X-13329684*
X-13320362Y-5738308*
Y-5719665*
X-13301515D02*
X-13273550D01*
X-13264228Y-5710343*
Y-5701021*
X-13273550Y-5691699*
X-13292193*
X-13301515Y-5701021*
Y-5738308*
X-13292193Y-5747630*
X-13273550*
X-13264228Y-5738308*
X-13245381D02*
X-13236059Y-5747630D01*
X-13217416*
X-13208094Y-5738308*
X-13245381Y-5701021*
Y-5738308*
Y-5701021D02*
X-13239422Y-5695062D01*
X-13208094Y-5702776D02*
Y-5738308D01*
X-13189247Y-5747630D02*
X-13170604Y-5728986D01*
X-13179925D02*
X-13151960D01*
Y-5747630D02*
Y-5691699D01*
X-13179925*
X-13189247Y-5701021*
Y-5719665*
X-13179925Y-5728986*
X-13115130Y-5557130D02*
X-13059199D01*
Y-5529165*
X-13068521Y-5519843*
X-13087165*
X-13096486Y-5529165*
Y-5557130*
Y-5538486D02*
X-13115130Y-5519843D01*
X-13105808Y-5500996D02*
X-13068521Y-5463709D01*
X-13105808*
X-13115130Y-5473031*
Y-5491674*
X-13105808Y-5500996*
X-13068521*
X-13059199Y-5491674*
Y-5473031*
X-13068521Y-5463709*
Y-5444862D02*
X-13077843D01*
X-13087165Y-5435540*
Y-5407575*
X-13068521D02*
X-13059199Y-5416897D01*
Y-5435540*
X-13068521Y-5444862*
Y-5407575D02*
X-13105808D01*
X-13115130Y-5416897*
Y-5435540*
X-13105808Y-5444862*
Y-5388728D02*
X-13115130Y-5379406D01*
Y-5360763*
X-13105808Y-5351441*
X-13096486*
X-13087165Y-5360763*
Y-5388728*
X-13105808*
X-13087165D02*
X-13068521Y-5370084D01*
X-13059199Y-5351441*
X-13068521Y-5332594D02*
X-13059199Y-5323298D01*
Y-5304654*
X-13068521Y-5295332*
X-13077843*
X-13087165Y-5304654*
X-13096486Y-5295332*
X-13105808*
X-13115130Y-5304654*
Y-5323298*
X-13105808Y-5332594*
X-13087165Y-5313976D02*
Y-5304654D01*
X-12924630Y-5310496D02*
Y-5273209D01*
Y-5291852D02*
X-12868699D01*
X-12887343Y-5310496*
X-12878021Y-5329343D02*
X-12868699Y-5338665D01*
Y-5357308*
X-12878021Y-5366630*
X-12915308*
X-12924630Y-5357308*
Y-5338665*
X-12915308Y-5329343*
X-12896665Y-5254362D02*
Y-5217075D01*
Y-5198228D02*
Y-5160941D01*
X-12887343Y-5142094D02*
X-12877841Y-5132605D01*
X-12873919Y-5123476D02*
X-12924630D01*
Y-5142094D02*
Y-5104832D01*
Y-5170263D02*
X-12873977D01*
X-12871981Y-5173544D02*
X-12896665Y-5198228D01*
X-12868699Y-5226397D02*
X-12896665Y-5254362D01*
X-12924630Y-5226397D02*
X-12868699D01*
X-12734130D02*
X-12678199D01*
X-12706165Y-5254362*
Y-5217075*
Y-5198228D02*
Y-5160941D01*
X-12687521Y-5142094D02*
X-12678199Y-5132798D01*
Y-5114154*
X-12687521Y-5104832*
X-12696843*
X-12734130Y-5142094*
Y-5104832*
Y-5170263D02*
X-12678199D01*
X-12706165Y-5198228*
X-12734130Y-5273209D02*
Y-5310496D01*
Y-5291852D02*
X-12678199D01*
X-12696843Y-5310496*
X-12687521Y-5329343D02*
X-12678199Y-5338665D01*
Y-5357308*
X-12687521Y-5366630*
X-12724808*
X-12734130Y-5357308*
Y-5338665*
X-12724808Y-5329343*
X-13151960Y-5144380D02*
Y-5088449D01*
X-13179925*
X-13189247Y-5097771*
Y-5116415*
X-13179925Y-5125736*
X-13151960*
X-13170604D02*
X-13189247Y-5144380D01*
X-13208094Y-5135058D02*
X-13245381Y-5097771D01*
Y-5135058*
X-13236059Y-5144380*
X-13217416*
X-13208094Y-5135058*
Y-5097771*
X-13217416Y-5088449*
X-13236059*
X-13245381Y-5097771*
X-13264228D02*
Y-5107093D01*
X-13273550Y-5116415*
X-13301515*
Y-5097771D02*
X-13292193Y-5088449D01*
X-13273550*
X-13264228Y-5097771*
X-13301515D02*
Y-5135058D01*
X-13292193Y-5144380*
X-13273550*
X-13264228Y-5135058*
X-13320362D02*
X-13329684Y-5144380D01*
X-13348327*
X-13357649Y-5135058*
Y-5125736*
X-13348327Y-5116415*
X-13320362*
Y-5135058*
Y-5116415D02*
X-13339006Y-5097771D01*
X-13357649Y-5088449*
X-13376496Y-5107093D02*
X-13395114Y-5088449D01*
Y-5144380*
X-13376496D02*
X-13413758D01*
X-13744948Y-5089059D02*
X-13754270Y-5098381D01*
X-13772914*
X-13782236Y-5089059*
Y-5042450*
X-13801082Y-5051772D02*
X-13810404Y-5042450D01*
X-13829048*
X-13838370Y-5051772*
X-13801082Y-5089059*
X-13810404Y-5098381*
X-13829048*
X-13838370Y-5089059*
Y-5051772*
X-13857216D02*
Y-5061093D01*
X-13866538Y-5070415*
X-13894504*
Y-5089059D02*
Y-5051772D01*
X-13885182Y-5042450*
X-13866538*
X-13857216Y-5051772*
Y-5089059D02*
X-13866538Y-5098381D01*
X-13885182*
X-13894504Y-5089059*
X-13913350Y-5098381D02*
X-13950638D01*
X-13931994D02*
Y-5042450D01*
X-13913350Y-5061093*
X-13969484D02*
X-13988128Y-5042450D01*
Y-5098381*
X-13969484D02*
X-14006772D01*
X-13801082Y-5089059D02*
Y-5051772D01*
X-13744948Y-5042450D02*
Y-5089059D01*
X-13738649Y-4699880D02*
X-13701362D01*
X-13720006D02*
Y-4643949D01*
X-13701362Y-4662593*
X-13682515Y-4653271D02*
X-13673193Y-4643949D01*
X-13654550*
X-13645228Y-4653271*
Y-4662593*
X-13654550Y-4671915*
X-13682515*
Y-4690558D02*
Y-4653271D01*
Y-4690558D02*
X-13673193Y-4699880D01*
X-13654550*
X-13645228Y-4690558*
X-13626381D02*
X-13617059Y-4699880D01*
X-13598416*
X-13589094Y-4690558*
X-13626381Y-4653271*
Y-4690558*
Y-4653271D02*
X-13617059Y-4643949D01*
X-13598416*
X-13589094Y-4653271*
Y-4690558*
X-13570247Y-4699880D02*
X-13551604Y-4681236D01*
X-13560925D02*
X-13532960D01*
Y-4699880D02*
Y-4643949D01*
X-13560925*
X-13570247Y-4653271*
Y-4671915*
X-13560925Y-4681236*
X-13757496Y-4662593D02*
X-13776114Y-4643949D01*
Y-4699880*
X-13757496D02*
X-13794758D01*
X-13305630Y-4604630D02*
X-13249699D01*
Y-4576665*
X-13259021Y-4567343*
X-13277665*
X-13286986Y-4576665*
Y-4604630*
Y-4585986D02*
X-13305630Y-4567343D01*
Y-4548496D02*
Y-4511209D01*
Y-4529852D02*
X-13249699D01*
X-13268343Y-4548496*
X-13259021Y-4492362D02*
X-13249699Y-4483040D01*
Y-4464397*
X-13259021Y-4455075*
X-13268343*
X-13277665Y-4464397*
X-13286986Y-4455075*
X-13296308*
X-13305630Y-4464397*
Y-4483040*
X-13296308Y-4492362*
X-13277665Y-4473718D02*
Y-4464397D01*
X-13259021Y-4436228D02*
X-13249699Y-4426906D01*
Y-4408263*
X-13259021Y-4398941*
X-13268343*
X-13277665Y-4408263*
X-13286986Y-4398941*
X-13296308*
X-13305630Y-4408263*
Y-4426906*
X-13296308Y-4436228*
X-13277665Y-4417584D02*
Y-4408263D01*
X-13268343Y-4380094D02*
X-13249699Y-4361476D01*
X-13305630*
Y-4380094D02*
Y-4342832D01*
X-12861130Y-4479154D02*
Y-4497798D01*
X-12851808Y-4507094*
X-12833165D02*
X-12823843Y-4488476D01*
Y-4479154*
X-12833165Y-4469832*
X-12851808*
X-12861130Y-4479154*
X-12833165Y-4507094D02*
X-12805199D01*
Y-4469832*
X-12814521Y-4525941D02*
X-12823843D01*
X-12833165Y-4535263*
X-12842486Y-4525941*
X-12851808*
X-12861130Y-4535263*
Y-4553906*
X-12851808Y-4563228*
Y-4582075D02*
X-12861130Y-4591397D01*
Y-4610040*
X-12851808Y-4619362*
X-12861130Y-4638209D02*
Y-4675496D01*
Y-4656852D02*
X-12805199D01*
X-12823843Y-4675496*
X-12814521Y-4694343D02*
X-12833165D01*
X-12842486Y-4703665*
Y-4731630*
Y-4712986D02*
X-12861130Y-4694343D01*
Y-4731630D02*
X-12805199D01*
Y-4703665*
X-12814521Y-4694343*
Y-4619362D02*
X-12805199Y-4610040D01*
Y-4591397*
X-12814521Y-4582075*
X-12823843*
X-12833165Y-4591397*
X-12842486Y-4582075*
X-12851808*
X-12833165Y-4591397D02*
Y-4600718D01*
X-12814521Y-4563228D02*
X-12805199Y-4553906D01*
Y-4535263*
X-12814521Y-4525941*
X-12833165Y-4535263D02*
Y-4544584D01*
X-12543630Y-4535593D02*
X-12524986Y-4554236D01*
Y-4544915D02*
Y-4572880D01*
X-12543630D02*
X-12487699D01*
Y-4544915*
X-12497021Y-4535593*
X-12515665*
X-12524986Y-4544915*
X-12506343Y-4516746D02*
X-12487699Y-4498102D01*
X-12543630*
Y-4516746D02*
Y-4479459D01*
X-12515665Y-4460612D02*
Y-4423325D01*
X-12497021Y-4404478D02*
X-12487699Y-4395156D01*
Y-4376513*
X-12497021Y-4367191*
X-12506343*
X-12543630Y-4404478*
Y-4367191*
Y-4348344D02*
X-12506343Y-4311082D01*
X-12497021*
X-12487699Y-4320404*
Y-4339048*
X-12497021Y-4348344*
X-12543630D02*
Y-4311082D01*
Y-4432647D02*
X-12487699D01*
X-12515665Y-4460612*
X-12741699Y-3620380D02*
Y-3592415D01*
X-12751021Y-3583093*
X-12769665*
X-12778986Y-3592415*
Y-3620380*
Y-3601736D02*
X-12797630Y-3583093D01*
X-12788308Y-3564246D02*
X-12751021Y-3526959D01*
X-12788308*
X-12797630Y-3536281*
Y-3554924*
X-12788308Y-3564246*
X-12751021*
X-12741699Y-3554924*
Y-3536281*
X-12751021Y-3526959*
Y-3508112D02*
X-12760343D01*
X-12769665Y-3498790*
Y-3470825*
X-12751021D02*
X-12741699Y-3480147D01*
Y-3498790*
X-12751021Y-3508112*
Y-3470825D02*
X-12788308D01*
X-12797630Y-3480147*
Y-3498790*
X-12788308Y-3508112*
X-12769665Y-3451978D02*
Y-3414691D01*
X-12760343Y-3395844D02*
X-12741699Y-3377226D01*
X-12797630*
Y-3395844D02*
Y-3362684D01*
Y-3424013D02*
X-12741699D01*
X-12769665Y-3451978*
X-12797630Y-3620380D02*
X-12741699D01*
X-12407308Y-3207630D02*
X-12416630Y-3198308D01*
Y-3179665*
X-12407308Y-3170343*
X-12416630Y-3151496D02*
Y-3114209D01*
Y-3132852D02*
X-12360699D01*
X-12379343Y-3151496*
X-12370021Y-3170343D02*
X-12360699Y-3179665D01*
Y-3198308*
X-12370021Y-3207630*
X-12407308*
X-12416630Y-3095362D02*
Y-3058075D01*
Y-3076718D02*
X-12360699D01*
X-12379343Y-3095362*
X-12370021Y-3039228D02*
X-12360699Y-3029906D01*
Y-3011263*
X-12370021Y-3001941*
X-12379343*
X-12388665Y-3011263*
X-12397986Y-3001941*
X-12407308*
X-12416630Y-3011263*
Y-3029906*
X-12407308Y-3039228*
X-12388665Y-3020584D02*
Y-3011263D01*
X-12379343Y-2983094D02*
X-12360699Y-2964476D01*
X-12416630*
Y-2983094D02*
Y-2945832D01*
X-12582949Y-2858380D02*
Y-2830415D01*
X-12592271Y-2821093*
X-12610915*
X-12620236Y-2830415*
Y-2858380*
Y-2839736D02*
X-12638880Y-2821093D01*
Y-2802246D02*
Y-2764959D01*
Y-2783602D02*
X-12582949D01*
X-12601593Y-2802246*
Y-2746112D02*
X-12582949Y-2727468D01*
X-12638880*
Y-2746112D02*
Y-2708825D01*
X-12629558Y-2689978D02*
X-12592271Y-2652691D01*
X-12629558*
X-12638880Y-2662013*
Y-2680656*
X-12629558Y-2689978*
X-12592271*
X-12582949Y-2680656*
Y-2662013*
X-12592271Y-2652691*
Y-2633844D02*
X-12601593D01*
X-12610915Y-2624548*
Y-2605904*
X-12620236Y-2596582*
X-12629558*
X-12638880Y-2605904*
Y-2624548*
X-12629558Y-2633844*
X-12620236*
X-12610915Y-2624548*
Y-2605904D02*
X-12601593Y-2596582D01*
X-12592271*
X-12582949Y-2605904*
Y-2624548*
X-12592271Y-2633844*
X-12524758Y-2563308D02*
X-12515436Y-2572630D01*
X-12496792*
X-12487496Y-2563308*
Y-2553986*
X-12496792Y-2544665*
X-12515436*
X-12524758Y-2553986*
Y-2563308*
X-12515436Y-2544665D02*
X-12524758Y-2535343D01*
Y-2526021*
X-12515436Y-2516699*
X-12496792*
X-12487496Y-2526021*
Y-2535343*
X-12496792Y-2544665*
X-12468649Y-2526021D02*
X-12431362Y-2563308D01*
X-12440684Y-2572630*
X-12459327*
X-12468649Y-2563308*
Y-2526021*
X-12459327Y-2516699*
X-12440684*
X-12431362Y-2526021*
Y-2563308*
X-12412515Y-2572630D02*
X-12375228D01*
X-12393872D02*
Y-2516699D01*
X-12375228Y-2535343*
X-12356381Y-2572630D02*
X-12319094D01*
X-12337738D02*
Y-2516699D01*
X-12319094Y-2535343*
X-12300247Y-2526021D02*
X-12290925Y-2516699D01*
X-12272282*
X-12262960Y-2526021*
Y-2563308*
X-12272282Y-2572630*
X-12290925*
X-12300247Y-2563308*
X-12582949Y-2858380D02*
X-12638880D01*
X-12995699Y-2852513D02*
X-13005021Y-2843191D01*
X-13042308Y-2880478*
X-13051630Y-2871156*
Y-2852513*
X-13042308Y-2843191*
X-13005021*
X-12995699Y-2852513D02*
Y-2871156D01*
X-13005021Y-2880478*
X-13042308*
X-13051630Y-2899325D02*
Y-2936612D01*
Y-2917968D02*
X-12995699D01*
X-13014343Y-2936612*
X-13051630Y-2955459D02*
Y-2992746D01*
Y-2974102D02*
X-12995699D01*
X-13014343Y-2992746*
X-13005021Y-3011593D02*
X-13023665D01*
X-13032986Y-3020915*
Y-3048880*
Y-3030236D02*
X-13051630Y-3011593D01*
Y-3048880D02*
X-12995699D01*
Y-3020915*
X-13005021Y-3011593*
X-13159986Y-3042538D02*
Y-3048880D01*
X-13165503Y-3024719D02*
X-13178630Y-3011593D01*
Y-2992746D02*
Y-2955459D01*
Y-2974102D02*
X-13133073D01*
X-13155884Y-3048880D02*
X-13178630D01*
X-13249699Y-3039558D02*
X-13259021Y-3048880D01*
X-13296308*
X-13305630Y-3039558*
Y-3020915*
X-13296308Y-3011593*
X-13305630Y-2992746D02*
Y-2955459D01*
Y-2974102D02*
X-13249699D01*
X-13268343Y-2992746*
X-13259021Y-3011593D02*
X-13249699Y-3020915D01*
Y-3039558*
X-13268343Y-2936612D02*
X-13249699Y-2917968D01*
X-13305630*
Y-2936612D02*
Y-2899325D01*
X-13296308Y-2880478D02*
X-13305630Y-2871156D01*
Y-2852513*
X-13296308Y-2843191*
X-13286986*
X-13277665Y-2852513*
Y-2861834*
Y-2852513D02*
X-13268343Y-2843191D01*
X-13259021*
X-13249699Y-2852513*
Y-2871156*
X-13259021Y-2880478*
Y-2824344D02*
X-13249699Y-2815048D01*
Y-2796404*
X-13259021Y-2787082*
X-13268343*
X-13305630Y-2824344*
Y-2787082*
X-13178630D02*
Y-2824344D01*
X-13141343Y-2787082*
X-13132021*
X-13122699Y-2796404*
Y-2815048*
X-13132021Y-2824344*
Y-2843191D02*
X-13169308Y-2880478D01*
X-13178630Y-2871156*
Y-2852513*
X-13169308Y-2843191*
X-13132021*
X-13122699Y-2852513*
Y-2871156*
X-13132021Y-2880478*
X-13169308*
X-13178630Y-2899325D02*
Y-2936612D01*
Y-2917968D02*
X-13122699D01*
X-13141343Y-2936612*
X-13051630Y-2824344D02*
X-13042308D01*
X-13005021Y-2787082*
X-12995699*
Y-2824344*
X-12937508Y-2382130D02*
X-12900246D01*
X-12918864D02*
Y-2326199D01*
X-12900246Y-2344843*
X-12881399Y-2335521D02*
X-12844112Y-2372808D01*
X-12853434Y-2382130*
X-12872077*
X-12881399Y-2372808*
Y-2335521*
X-12872077Y-2326199*
X-12853434*
X-12844112Y-2335521*
Y-2372808*
X-12825265Y-2382130D02*
X-12787978D01*
X-12806622D02*
Y-2326199D01*
X-12787978Y-2344843*
X-12769131Y-2382130D02*
X-12731844D01*
X-12750488D02*
Y-2326199D01*
X-12731844Y-2344843*
X-12712997Y-2335521D02*
Y-2354165D01*
X-12703675Y-2363486*
X-12675710*
X-12694354D02*
X-12712997Y-2382130D01*
X-12675710D02*
Y-2326199D01*
X-12703675*
X-12712997Y-2335521*
X-13186199Y-2064630D02*
Y-2036665D01*
X-13195521Y-2027343*
X-13214165*
X-13223486Y-2036665*
Y-2064630*
Y-2045986D02*
X-13242130Y-2027343D01*
Y-2008496D02*
Y-1971209D01*
Y-1989852D02*
X-13195493D01*
X-13197451Y-2001105D02*
X-13204843Y-2008496D01*
Y-1952362D02*
X-13186199Y-1933718D01*
X-13242130*
Y-1952362D02*
Y-1915075D01*
X-13232808Y-1896228D02*
X-13195521Y-1858941D01*
X-13232808*
X-13242130Y-1868263*
Y-1886906*
X-13232808Y-1896228*
X-13195521*
X-13186199Y-1886906*
Y-1868263*
X-13195521Y-1858941*
X-13214165Y-1840094D02*
Y-1802832D01*
X-13186199Y-1812154D02*
X-13214165Y-1840094D01*
X-13242130Y-1812154D02*
X-13186199D01*
X-13178630Y-1620130D02*
X-13122699D01*
Y-1592165*
X-13132021Y-1582843*
X-13150665*
X-13159986Y-1592165*
Y-1620130*
Y-1601486D02*
X-13178630Y-1582843D01*
Y-1563996D02*
Y-1526709D01*
Y-1545352D02*
X-13122699D01*
X-13141343Y-1563996*
Y-1507862D02*
X-13122699Y-1489218D01*
X-13178630*
Y-1507862D02*
Y-1470575D01*
X-13169308Y-1451728D02*
X-13132021Y-1414441D01*
X-13169308*
X-13178630Y-1423763*
Y-1442406*
X-13169308Y-1451728*
X-13132021*
X-13122699Y-1442406*
Y-1423763*
X-13132021Y-1414441*
Y-1395594D02*
X-13122699Y-1386298D01*
Y-1367654*
X-13132021Y-1358332*
X-13141343*
X-13150665Y-1367654*
X-13159986Y-1358332*
X-13169308*
X-13178630Y-1367654*
Y-1386298*
X-13169308Y-1395594*
X-13150665Y-1376976D02*
Y-1367654D01*
X-13032758Y-1261558D02*
X-13023436Y-1270880D01*
X-13004792*
X-12995496Y-1261558*
Y-1242915D02*
X-13014114Y-1233593D01*
X-13023436*
X-13032758Y-1242915*
Y-1261558*
X-12995496Y-1242915D02*
Y-1214949D01*
X-13032758*
X-12976649Y-1224271D02*
X-12939362Y-1261558D01*
X-12948684Y-1270880*
X-12967327*
X-12976649Y-1261558*
Y-1224271*
X-12967327Y-1214949*
X-12948684*
X-12939362Y-1224271*
Y-1261558*
X-12920515Y-1270880D02*
X-12883228D01*
X-12901872D02*
Y-1214949D01*
X-12883228Y-1233593*
X-12864381Y-1270880D02*
X-12827094D01*
X-12845738D02*
Y-1214949D01*
X-12827094Y-1233593*
X-12808247Y-1224271D02*
Y-1242915D01*
X-12798925Y-1252236*
X-12770960*
X-12789604D02*
X-12808247Y-1270880D01*
X-12770960D02*
Y-1214949D01*
X-12798925*
X-12808247Y-1224271*
X-12448380Y-1358332D02*
Y-1395594D01*
X-12411093Y-1358332*
X-12401771*
X-12392449Y-1367654*
Y-1386298*
X-12401771Y-1395594*
Y-1414441D02*
X-12438469Y-1451139D01*
X-12437956Y-1414441D02*
X-12401771D01*
X-12392449Y-1423763*
Y-1442406*
X-12401771Y-1451728*
X-12438725*
X-12448380Y-1470575D02*
Y-1507862D01*
Y-1489218D02*
X-12392449D01*
X-12411093Y-1507862*
X-12448380Y-1526709D02*
Y-1563996D01*
Y-1545352D02*
X-12392449D01*
X-12411093Y-1563996*
X-12401771Y-1582843D02*
X-12392449Y-1592165D01*
Y-1610808*
X-12401771Y-1620130*
X-12439058*
X-12448380Y-1610808*
Y-1592165*
X-12439058Y-1582843*
X-12721006Y-1722949D02*
X-12735425D01*
X-12744747Y-1732271*
Y-1750915*
X-12735425Y-1760236*
X-12707460*
X-12726104D02*
X-12744747Y-1778880D01*
X-12763594D02*
X-12800881D01*
X-12782238D02*
Y-1722949D01*
X-12763594Y-1741593*
X-12819728D02*
X-12835887Y-1725433D01*
X-12838372Y-1727079D02*
Y-1778880D01*
X-12819728D02*
X-12857015D01*
X-12875862Y-1769558D02*
X-12913149Y-1732271D01*
Y-1769558*
X-12903827Y-1778880*
X-12885184*
X-12875862Y-1769558*
Y-1732700*
X-12894668Y-1722949D02*
X-12903827D01*
X-12913149Y-1732271*
X-12931996Y-1750915D02*
X-12959936D01*
X-12969258Y-1760236*
Y-1769558*
X-12959936Y-1778880*
X-12941292*
X-12931996Y-1769558*
Y-1750915*
X-12949540Y-1733345*
X-12707460Y-1751651D02*
Y-1778880D01*
X-13186199Y-2064630D02*
X-13242130D01*
X-12162630Y-2945832D02*
Y-2983094D01*
Y-2964476D02*
X-12106699D01*
X-12125343Y-2983094*
Y-3001941D02*
X-12134665Y-3011263D01*
X-12143986Y-3001941*
X-12153308*
X-12162630Y-3011263*
Y-3029906*
X-12153308Y-3039228*
X-12162630Y-3058075D02*
Y-3095362D01*
Y-3076718D02*
X-12106699D01*
X-12125343Y-3095362*
X-12162630Y-3114209D02*
Y-3151496D01*
Y-3132852D02*
X-12106699D01*
X-12125343Y-3151496*
X-12116021Y-3170343D02*
X-12134665D01*
X-12143986Y-3179665*
Y-3207630*
Y-3188986D02*
X-12162630Y-3170343D01*
Y-3207630D02*
X-12106699D01*
Y-3179665*
X-12116021Y-3170343*
Y-3039228D02*
X-12106699Y-3029906D01*
Y-3011263*
X-12116021Y-3001941*
X-12125343*
X-12134665Y-3011263D02*
Y-3020584D01*
X-11667508Y-3056449D02*
X-11648864Y-3065771D01*
X-11630246Y-3084415*
X-11658186*
X-11667508Y-3093736*
Y-3103058*
X-11658186Y-3112380*
X-11639542*
X-11630246Y-3103058*
Y-3084415*
X-11611399Y-3093736D02*
X-11602077Y-3084415D01*
X-11574112*
Y-3103058*
X-11583434Y-3112380*
X-11602077*
X-11611399Y-3103058*
Y-3093736*
X-11592756Y-3065771D02*
X-11574112Y-3084415D01*
X-11555265Y-3075093D02*
X-11545943Y-3084415D01*
X-11555265Y-3093736*
Y-3103058*
X-11545943Y-3112380*
X-11527300*
X-11517978Y-3103058*
X-11499131Y-3112380D02*
X-11461844D01*
X-11480488D02*
Y-3056449D01*
X-11461844Y-3075093*
X-11442997Y-3065771D02*
Y-3084415D01*
X-11433675Y-3093736*
X-11405710*
X-11424354D02*
X-11442997Y-3112380D01*
X-11405710D02*
Y-3056449D01*
X-11433675*
X-11442997Y-3065771*
X-11517978D02*
X-11527300Y-3056449D01*
X-11545943*
X-11555265Y-3065771*
Y-3075093*
X-11545943Y-3084415D02*
X-11536622D01*
X-11592756Y-3065771D02*
X-11611399Y-3056449D01*
Y-3310449D02*
X-11592756Y-3319771D01*
X-11574112Y-3338415*
X-11602077*
X-11611399Y-3347736*
Y-3357058*
X-11602077Y-3366380*
X-11583434*
X-11574112Y-3357058*
Y-3338415*
X-11555265Y-3329093D02*
X-11545943Y-3338415D01*
X-11555265Y-3347736*
Y-3357058*
X-11545943Y-3366380*
X-11527300*
X-11517978Y-3357058*
X-11499131Y-3366380D02*
X-11461844D01*
X-11480488D02*
Y-3310449D01*
X-11461844Y-3329093*
X-11442997Y-3319771D02*
Y-3338415D01*
X-11433675Y-3347736*
X-11405710*
X-11424354D02*
X-11442997Y-3366380D01*
X-11405710D02*
Y-3310449D01*
X-11433675*
X-11442997Y-3319771*
X-11517978D02*
X-11527300Y-3310449D01*
X-11545943*
X-11555265Y-3319771*
Y-3329093*
X-11545943Y-3338415D02*
X-11536622D01*
X-11630246D02*
X-11648864Y-3329093D01*
X-11658186*
X-11667508Y-3338415*
Y-3357058*
X-11658186Y-3366380*
X-11639542*
X-11630246Y-3357058*
Y-3338415D02*
Y-3310449D01*
X-11667508*
X-11658186Y-3564449D02*
X-11630246Y-3592415D01*
X-11667508*
X-11658186Y-3620380D02*
Y-3564449D01*
X-11611399D02*
X-11592756Y-3573771D01*
X-11574112Y-3592415*
X-11602077*
X-11611399Y-3601736*
Y-3611058*
X-11602077Y-3620380*
X-11583434*
X-11574112Y-3611058*
Y-3592415*
X-11555265Y-3583093D02*
X-11545943Y-3592415D01*
X-11555265Y-3601736*
Y-3611058*
X-11545943Y-3620380*
X-11527300*
X-11517978Y-3611058*
X-11499131Y-3620380D02*
X-11461844D01*
X-11480488D02*
Y-3564449D01*
X-11461844Y-3583093*
X-11442997Y-3573771D02*
Y-3592415D01*
X-11433675Y-3601736*
X-11405710*
X-11424354D02*
X-11442997Y-3620380D01*
X-11405710D02*
Y-3564449D01*
X-11433675*
X-11442997Y-3573771*
X-11517978D02*
X-11527300Y-3564449D01*
X-11545943*
X-11555265Y-3573771*
Y-3583093*
X-11545943Y-3592415D02*
X-11536622D01*
X-11454808Y-3707832D02*
X-11464130Y-3717154D01*
Y-3735798*
X-11454808Y-3745094*
Y-3763941D02*
X-11445486D01*
X-11436165Y-3773263*
Y-3801228*
X-11454808*
X-11464130Y-3791906*
Y-3773263*
X-11454808Y-3763941*
X-11417521Y-3782584D02*
X-11436165Y-3801228D01*
X-11426843Y-3820075D02*
X-11436165Y-3829397D01*
X-11445486Y-3820075*
X-11454808*
X-11464130Y-3829397*
Y-3848040*
X-11454808Y-3857362*
X-11464130Y-3876209D02*
Y-3913496D01*
Y-3894852D02*
X-11408199D01*
X-11426843Y-3913496*
X-11417521Y-3932343D02*
X-11436165D01*
X-11445486Y-3941665*
Y-3969630*
Y-3950986D02*
X-11464130Y-3932343D01*
Y-3969630D02*
X-11408199D01*
Y-3941665*
X-11417521Y-3932343*
Y-3857362D02*
X-11408199Y-3848040D01*
Y-3829397*
X-11417521Y-3820075*
X-11426843*
X-11436165Y-3829397D02*
Y-3838718D01*
X-11417521Y-3782584D02*
X-11408199Y-3763941D01*
X-11417521Y-3745094D02*
X-11408199Y-3735798D01*
Y-3717154*
X-11417521Y-3707832*
X-11426843*
X-11436165Y-3717154*
X-11445486Y-3707832*
X-11454808*
X-11436165Y-3717154D02*
Y-3726476D01*
X-11433675Y-4072449D02*
X-11442997Y-4081771D01*
Y-4100415*
X-11433675Y-4109736*
X-11405710*
X-11424354D02*
X-11442997Y-4128380D01*
X-11461844D02*
X-11499131D01*
X-11480488D02*
Y-4072449D01*
X-11461844Y-4091093*
X-11433675Y-4072449D02*
X-11405710D01*
Y-4128380*
X-11517978Y-4119058D02*
X-11527300Y-4128380D01*
X-11545943*
X-11555265Y-4119058*
Y-4109736*
X-11545943Y-4100415*
X-11536622*
X-11545943D02*
X-11555265Y-4091093D01*
Y-4081771*
X-11545943Y-4072449*
X-11527300*
X-11517978Y-4081771*
X-11574112Y-4100415D02*
X-11602077D01*
X-11611399Y-4109736*
Y-4119058*
X-11602077Y-4128380*
X-11583434*
X-11574112Y-4119058*
Y-4100415*
X-11592756Y-4081771*
X-11611399Y-4072449*
X-11630246Y-4081771D02*
X-11639542Y-4072449D01*
X-11658186*
X-11667508Y-4081771*
Y-4091093*
X-11630246Y-4128380*
X-11667508*
X-11648864Y-4326449D02*
Y-4382380D01*
X-11630246D02*
X-11667508D01*
X-11630246Y-4345093D02*
X-11648864Y-4326449D01*
X-11611399D02*
X-11592756Y-4335771D01*
X-11574112Y-4354415*
X-11602077*
X-11611399Y-4363736*
Y-4373058*
X-11602077Y-4382380*
X-11583434*
X-11574112Y-4373058*
Y-4354415*
X-11555265Y-4345093D02*
X-11545943Y-4354415D01*
X-11555265Y-4363736*
Y-4373058*
X-11545943Y-4382380*
X-11527300*
X-11517978Y-4373058*
X-11499131Y-4382380D02*
X-11461844D01*
X-11480488D02*
Y-4326449D01*
X-11461844Y-4345093*
X-11442997Y-4335771D02*
Y-4354415D01*
X-11433675Y-4363736*
X-11405710*
X-11424354D02*
X-11442997Y-4382380D01*
X-11405710D02*
Y-4326449D01*
X-11433675*
X-11442997Y-4335771*
X-11517978D02*
X-11527300Y-4326449D01*
X-11545943*
X-11555265Y-4335771*
Y-4345093*
X-11545943Y-4354415D02*
X-11536622D01*
X-12687521Y-6057332D02*
X-12678199Y-6066654D01*
Y-6085298*
X-12687521Y-6094594*
Y-6113441D02*
X-12696843D01*
X-12706165Y-6122763*
X-12715486Y-6113441*
X-12724808*
X-12734130Y-6122763*
Y-6141406*
X-12724808Y-6150728*
X-12706165Y-6132084D02*
Y-6122763D01*
X-12687521Y-6113441D02*
X-12678199Y-6122763D01*
Y-6141406*
X-12687521Y-6150728*
X-12706165Y-6169575D02*
Y-6206862D01*
X-12678199Y-6178897*
X-12734130*
Y-6225709D02*
Y-6262996D01*
Y-6244352D02*
X-12678199D01*
X-12696843Y-6262996*
X-12687521Y-6281843D02*
X-12678199Y-6291165D01*
Y-6309808*
X-12687521Y-6319130*
X-12724808*
X-12734130Y-6309808*
Y-6291165*
X-12724808Y-6281843*
X-12868699Y-6291165D02*
Y-6309808D01*
X-12878021Y-6319130*
X-12915308*
X-12924630Y-6309808*
Y-6291165*
X-12915308Y-6281843*
X-12924630Y-6262996D02*
Y-6225709D01*
Y-6244352D02*
X-12868699D01*
X-12887343Y-6262996*
X-12878021Y-6281843D02*
X-12868699Y-6291165D01*
X-12896665Y-6206862D02*
Y-6169575D01*
X-12878021Y-6150728D02*
X-12868699Y-6141406D01*
Y-6122763*
X-12878021Y-6113441*
X-12887343*
X-12896665Y-6122763*
X-12905986Y-6113441*
X-12915308*
X-12924630Y-6122763*
Y-6141406*
X-12915308Y-6150728*
X-12896665Y-6132084D02*
Y-6122763D01*
X-12887343Y-6094594D02*
X-12868699Y-6075976D01*
X-12924630*
Y-6094594D02*
Y-6057332D01*
Y-6178897D02*
X-12868699D01*
X-12896665Y-6206862*
X-12734130Y-6094594D02*
X-12696843Y-6057332D01*
X-12687521*
X-12734130D02*
Y-6094594D01*
X-12416630Y-6374832D02*
Y-6412094D01*
Y-6393476D02*
X-12360699D01*
X-12379343Y-6412094*
Y-6430941D02*
X-12370021D01*
X-12360699Y-6440263*
Y-6458906*
X-12370021Y-6468228*
X-12388665Y-6487075D02*
Y-6524362D01*
X-12360699Y-6496397*
X-12416630*
Y-6468228D02*
X-12379343Y-6430941D01*
X-12416630D02*
Y-6468228D01*
Y-6543209D02*
Y-6580496D01*
Y-6561852D02*
X-12360699D01*
X-12379343Y-6580496*
X-12370021Y-6599343D02*
X-12388665D01*
X-12397986Y-6608665*
Y-6636630*
Y-6617986D02*
X-12416630Y-6599343D01*
Y-6636630D02*
X-12360699D01*
Y-6608665*
X-12370021Y-6599343*
X-11667508Y-6907521D02*
Y-6916843D01*
X-11658186Y-6926165*
X-11639542*
X-11630246Y-6916843*
Y-6907521*
X-11639542Y-6898199*
X-11658186*
X-11667508Y-6907521*
X-11658186Y-6926165D02*
X-11667508Y-6935486D01*
Y-6944808*
X-11658186Y-6954130*
X-11639542*
X-11630246Y-6944808*
Y-6935486*
X-11639542Y-6926165*
X-11611399D02*
Y-6944808D01*
X-11602077Y-6954130*
X-11583434*
X-11574112Y-6944808*
Y-6926165D02*
X-11592756Y-6916843D01*
X-11602077*
X-11611399Y-6926165*
Y-6898199D02*
X-11574112D01*
Y-6926165*
X-11555265Y-6916843D02*
X-11545943Y-6926165D01*
X-11555265Y-6935486*
Y-6944808*
X-11545943Y-6954130*
X-11527300*
X-11517978Y-6944808*
X-11499131Y-6954130D02*
X-11461844D01*
X-11480488D02*
Y-6898199D01*
X-11461844Y-6916843*
X-11442997Y-6907521D02*
Y-6926165D01*
X-11433675Y-6935486*
X-11405710*
X-11424354D02*
X-11442997Y-6954130D01*
X-11405710D02*
Y-6898199D01*
X-11433675*
X-11442997Y-6907521*
X-11517978D02*
X-11527300Y-6898199D01*
X-11545943*
X-11555265Y-6907521*
Y-6916843*
X-11545943Y-6926165D02*
X-11536622D01*
X-11545943Y-7152199D02*
X-11555265Y-7161521D01*
Y-7170843*
X-11545943Y-7180165*
X-11555265Y-7189486*
Y-7198808*
X-11545943Y-7208130*
X-11527300*
X-11517978Y-7198808*
X-11499131Y-7208130D02*
X-11461844D01*
X-11480488D02*
Y-7152199D01*
X-11461844Y-7170843*
X-11442997Y-7161521D02*
Y-7180165D01*
X-11433675Y-7189486*
X-11405710*
X-11424354D02*
X-11442997Y-7208130D01*
X-11405710D02*
Y-7152199D01*
X-11433675*
X-11442997Y-7161521*
X-11517978D02*
X-11527300Y-7152199D01*
X-11545943*
Y-7180165D02*
X-11536622D01*
X-11574112D02*
X-11592756Y-7170843D01*
X-11602077*
X-11611399Y-7180165*
Y-7198808*
X-11602077Y-7208130*
X-11583434*
X-11574112Y-7198808*
Y-7180165D02*
Y-7152199D01*
X-11611399*
X-11630246D02*
X-11667508D01*
Y-7161521*
X-11630246Y-7198808*
Y-7208130*
X-11611399Y-7374449D02*
X-11574112D01*
Y-7402415*
X-11592756Y-7393093*
X-11602077*
X-11611399Y-7402415*
Y-7421058*
X-11602077Y-7430380*
X-11583434*
X-11574112Y-7421058*
X-11555265D02*
X-11545943Y-7430380D01*
X-11527300*
X-11517978Y-7421058*
X-11499131Y-7430380D02*
X-11461844D01*
X-11480488D02*
Y-7374449D01*
X-11461844Y-7393093*
X-11442997Y-7383771D02*
Y-7402415D01*
X-11433675Y-7411736*
X-11405710*
X-11424354D02*
X-11442997Y-7430380D01*
X-11405710D02*
Y-7374449D01*
X-11433675*
X-11442997Y-7383771*
X-11517978D02*
X-11527300Y-7374449D01*
X-11545943*
X-11555265Y-7383771*
Y-7393093*
X-11545943Y-7402415*
X-11555265Y-7411736*
Y-7421058*
X-11545943Y-7402415D02*
X-11536622D01*
X-11630246D02*
X-11658186D01*
X-11667508Y-7411736*
Y-7421058*
X-11658186Y-7430380*
X-11639542*
X-11630246Y-7421058*
Y-7402415*
X-11648864Y-7383771*
X-11667508Y-7374449*
Y-7628449D02*
X-11630246D01*
Y-7656415*
X-11648864Y-7647093*
X-11658186*
X-11667508Y-7656415*
Y-7675058*
X-11658186Y-7684380*
X-11639542*
X-11630246Y-7675058*
X-11611399D02*
X-11602077Y-7684380D01*
X-11583434*
X-11574112Y-7675058*
Y-7656415D02*
X-11592756Y-7647093D01*
X-11602077*
X-11611399Y-7656415*
Y-7675058*
X-11574112Y-7656415D02*
Y-7628449D01*
X-11611399*
X-11555265Y-7637771D02*
Y-7647093D01*
X-11545943Y-7656415*
X-11555265Y-7665736*
Y-7675058*
X-11545943Y-7684380*
X-11527300*
X-11517978Y-7675058*
X-11499131Y-7684380D02*
X-11461844D01*
X-11480488D02*
Y-7628449D01*
X-11461844Y-7647093*
X-11442997Y-7637771D02*
Y-7656415D01*
X-11433675Y-7665736*
X-11405710*
X-11424354D02*
X-11442997Y-7684380D01*
X-11405710D02*
Y-7628449D01*
X-11433675*
X-11442997Y-7637771*
X-11517978D02*
X-11527300Y-7628449D01*
X-11545943*
X-11555265Y-7637771*
X-11545943Y-7656415D02*
X-11536622D01*
X-11464130Y-7812904D02*
X-11408199D01*
X-11436165Y-7840844*
Y-7803582*
Y-7859691D02*
X-11454808D01*
X-11464130Y-7869013*
Y-7887656*
X-11454808Y-7896978*
X-11436165D02*
X-11426843Y-7878334D01*
Y-7869013*
X-11436165Y-7859691*
X-11408199D02*
Y-7896978D01*
X-11436165*
X-11426843Y-7915825D02*
X-11436165Y-7925147D01*
X-11445486Y-7915825*
X-11454808*
X-11464130Y-7925147*
Y-7943790*
X-11454808Y-7953112*
X-11464130Y-7971959D02*
Y-8009246D01*
Y-7990602D02*
X-11408199D01*
X-11426843Y-8009246*
X-11417521Y-8028093D02*
X-11436165D01*
X-11445486Y-8037415*
Y-8065380*
Y-8046736D02*
X-11464130Y-8028093D01*
Y-8065380D02*
X-11408199D01*
Y-8037415*
X-11417521Y-8028093*
Y-7953112D02*
X-11408199Y-7943790D01*
Y-7925147*
X-11417521Y-7915825*
X-11426843*
X-11436165Y-7925147D02*
Y-7934468D01*
X-11433675Y-8168199D02*
X-11442997Y-8177521D01*
Y-8196165*
X-11433675Y-8205486*
X-11405710*
X-11424354D02*
X-11442997Y-8224130D01*
X-11461844D02*
X-11499131D01*
X-11480488D02*
Y-8168199D01*
X-11461844Y-8186843*
X-11433675Y-8168199D02*
X-11405710D01*
Y-8224130*
X-11417521Y-8279832D02*
X-11408199Y-8289154D01*
Y-8307798*
X-11417521Y-8317094*
X-11408199Y-8335941D02*
Y-8373228D01*
X-11436165*
X-11426843Y-8354584*
Y-8345263*
X-11436165Y-8335941*
X-11454808*
X-11464130Y-8345263*
Y-8363906*
X-11454808Y-8373228*
Y-8392075D02*
X-11464130Y-8401397D01*
Y-8420040*
X-11454808Y-8429362*
X-11464130Y-8448209D02*
Y-8485496D01*
Y-8466852D02*
X-11408199D01*
X-11426843Y-8485496*
X-11417521Y-8504343D02*
X-11436165D01*
X-11445486Y-8513665*
Y-8541630*
Y-8522986D02*
X-11464130Y-8504343D01*
Y-8541630D02*
X-11408199D01*
Y-8513665*
X-11417521Y-8504343*
Y-8429362D02*
X-11408199Y-8420040D01*
Y-8401397*
X-11417521Y-8392075*
X-11426843*
X-11436165Y-8401397*
X-11445486Y-8392075*
X-11454808*
X-11436165Y-8401397D02*
Y-8410718D01*
X-11464130Y-8317094D02*
X-11426843Y-8279832D01*
X-11417521*
X-11464130D02*
Y-8317094D01*
X-11527300Y-8224130D02*
X-11545943D01*
X-11555265Y-8214808*
Y-8205486*
X-11545943Y-8196165*
X-11536622*
X-11545943D02*
X-11555265Y-8186843D01*
Y-8177521*
X-11545943Y-8168199*
X-11527300*
X-11517978Y-8177521*
Y-8214808D02*
X-11527300Y-8224130D01*
X-11574112Y-8214808D02*
X-11583434Y-8224130D01*
X-11602077*
X-11611399Y-8214808*
Y-8196165*
X-11602077Y-8186843*
X-11592756*
X-11574112Y-8196165*
Y-8168199*
X-11611399*
X-11630246Y-8177521D02*
X-11639542Y-8168199D01*
X-11658186*
X-11667508Y-8177521*
Y-8186843*
X-11658186Y-8196165*
X-11667508Y-8205486*
Y-8214808*
X-11658186Y-8224130*
X-11639542*
X-11630246Y-8214808*
X-11648864Y-8196165D02*
X-11658186D01*
X-12019755Y-8517957D02*
Y-8555219D01*
Y-8536601D02*
X-11963824D01*
X-11982468Y-8555219*
X-11991790Y-8574066D02*
X-12010433D01*
X-12019755Y-8583388*
Y-8602031*
X-12010433Y-8611353*
X-11991790D02*
X-11982468Y-8592709D01*
Y-8583388*
X-11991790Y-8574066*
X-11963824D02*
Y-8611353D01*
X-11991790*
Y-8630200D02*
X-12010433D01*
X-12019755Y-8639522*
Y-8658165*
X-12010433Y-8667487*
X-11991790D02*
X-11982468Y-8648843D01*
Y-8639522*
X-11991790Y-8630200*
X-11963824D02*
Y-8667487D01*
X-11991790*
X-11973146Y-8686334D02*
X-12010433Y-8723621D01*
X-12019755Y-8714299*
Y-8695656*
X-12010433Y-8686334*
X-11973146*
X-11963824Y-8695656*
Y-8714299*
X-11973146Y-8723621*
X-12010433*
X-12019755Y-8761111D02*
X-11963824D01*
Y-8779755D02*
Y-8742468D01*
X-12233699Y-8965226D02*
X-12289630D01*
Y-8983844D02*
Y-8946582D01*
X-12252343Y-8983844D02*
X-12233699Y-8965226D01*
Y-9002691D02*
Y-9039978D01*
X-12261665*
X-12252343Y-9021334*
Y-9012013*
X-12261665Y-9002691*
X-12280308*
X-12289630Y-9012013*
Y-9030656*
X-12280308Y-9039978*
Y-9058825D02*
X-12289630Y-9068147D01*
Y-9086790*
X-12280308Y-9096112*
X-12261665D02*
X-12252343Y-9077468D01*
Y-9068147*
X-12261665Y-9058825*
X-12280308*
X-12261665Y-9096112D02*
X-12233699D01*
Y-9058825*
X-12243021Y-9114959D02*
X-12280308Y-9152246D01*
X-12289630Y-9142924*
Y-9124281*
X-12280308Y-9114959*
X-12243021*
X-12233699Y-9124281*
Y-9142924*
X-12243021Y-9152246*
X-12280308*
X-12289630Y-9171093D02*
X-12270986Y-9189736D01*
Y-9180415D02*
Y-9208380D01*
X-12289630D02*
X-12233699D01*
Y-9180415*
X-12243021Y-9171093*
X-12261665*
X-12270986Y-9180415*
X-12487699Y-8859130D02*
Y-8831165D01*
X-12497021Y-8821843*
X-12515665*
X-12524986Y-8831165*
Y-8859130*
Y-8840486D02*
X-12543630Y-8821843D01*
X-12534308Y-8802996D02*
X-12497021Y-8765709D01*
X-12534308*
X-12543630Y-8775031*
Y-8793674*
X-12534308Y-8802996*
X-12497021*
X-12487699Y-8793674*
Y-8775031*
X-12497021Y-8765709*
X-12487699Y-8746862D02*
X-12515665D01*
X-12506343Y-8728218*
Y-8718897*
X-12515665Y-8709575*
X-12534308*
X-12543630Y-8718897*
Y-8737540*
X-12534308Y-8746862*
X-12487699D02*
Y-8709575D01*
Y-8690728D02*
X-12515665D01*
X-12506343Y-8672084*
Y-8662763*
X-12515665Y-8653441*
X-12534308*
X-12543630Y-8662763*
Y-8681406*
X-12534308Y-8690728*
X-12487699D02*
Y-8653441D01*
X-12497021Y-8634594D02*
X-12487699Y-8625298D01*
Y-8606654*
X-12497021Y-8597332*
X-12506343*
X-12543630Y-8634594*
Y-8597332*
Y-8859130D02*
X-12487699D01*
X-11667508Y-8700380D02*
X-11630246D01*
X-11648864D02*
Y-8644449D01*
X-11630246Y-8663093*
X-11611399Y-8672415D02*
Y-8691058D01*
X-11602077Y-8700380*
X-11583434*
X-11574112Y-8691058*
Y-8672415D02*
X-11592756Y-8663093D01*
X-11602077*
X-11611399Y-8672415*
Y-8644449D02*
X-11574112D01*
Y-8672415*
X-11555265Y-8663093D02*
X-11545943Y-8672415D01*
X-11555265Y-8681736*
Y-8691058*
X-11545943Y-8700380*
X-11527300*
X-11517978Y-8691058*
X-11499131Y-8700380D02*
X-11461844D01*
X-11480488D02*
Y-8644449D01*
X-11461844Y-8663093*
X-11442997Y-8653771D02*
Y-8672415D01*
X-11433675Y-8681736*
X-11405710*
X-11424354D02*
X-11442997Y-8700380D01*
X-11405710D02*
Y-8644449D01*
X-11433675*
X-11442997Y-8653771*
X-11517978D02*
X-11527300Y-8644449D01*
X-11545943*
X-11555265Y-8653771*
Y-8663093*
X-11545943Y-8672415D02*
X-11536622D01*
X-12233699Y-7843130D02*
X-12289630D01*
X-12270986D02*
Y-7815165D01*
X-12261665Y-7805843*
X-12243021*
X-12233699Y-7815165*
Y-7843130*
X-12270986Y-7824486D02*
X-12289630Y-7805843D01*
X-12280308Y-7786996D02*
X-12243021Y-7749709D01*
X-12280308*
X-12289630Y-7759031*
Y-7777674*
X-12280308Y-7786996*
X-12243021*
X-12233699Y-7777674*
Y-7759031*
X-12243021Y-7749709*
X-12233699Y-7730862D02*
X-12261665D01*
X-12252343Y-7712218*
Y-7702897*
X-12261665Y-7693575*
X-12280308*
X-12289630Y-7702897*
Y-7721540*
X-12280308Y-7730862*
X-12233699D02*
Y-7693575D01*
Y-7674728D02*
X-12261665D01*
X-12252343Y-7656084*
Y-7646763*
X-12261665Y-7637441*
X-12280308*
X-12289630Y-7646763*
Y-7665406*
X-12280308Y-7674728*
X-12233699D02*
Y-7637441D01*
X-12243021Y-7618594D02*
X-12233699Y-7609298D01*
Y-7590654*
X-12243021Y-7581332*
X-12252343*
X-12261665Y-7590654*
X-12270986Y-7581332*
X-12280308*
X-12289630Y-7590654*
Y-7609298*
X-12280308Y-7618594*
X-12261665Y-7599976D02*
Y-7590654D01*
X-13979949Y-8892404D02*
Y-8911048D01*
X-13989271Y-8920344*
Y-8939191D02*
X-13998593D01*
X-14007915Y-8948513*
X-14017236Y-8939191*
X-14026558*
X-14035880Y-8948513*
Y-8967156*
X-14026558Y-8976478*
Y-8995325D02*
X-14035880Y-9004647D01*
Y-9023290*
X-14026558Y-9032612*
X-14007915D02*
X-13998593Y-9013968D01*
Y-9004647*
X-14007915Y-8995325*
X-14026558*
X-14007915Y-9032612D02*
X-13979949D01*
Y-8995325*
X-13989271Y-8976478D02*
X-13979949Y-8967156D01*
Y-8948513*
X-13989271Y-8939191*
X-14007915Y-8948513D02*
Y-8957834D01*
X-14035880Y-8920344D02*
X-13998593Y-8883082D01*
X-13989271*
X-13979949Y-8892404*
X-14035880Y-8883082D02*
Y-8920344D01*
X-14026558Y-9051459D02*
X-14035880Y-9060781D01*
Y-9079424*
X-14026558Y-9088746*
X-13989271Y-9051459*
X-14026558*
X-13989271D02*
X-13979949Y-9060781D01*
Y-9079424*
X-13989271Y-9088746*
X-14026558*
X-14035880Y-9107593D02*
X-14017236Y-9126236D01*
Y-9116915D02*
Y-9144880D01*
X-14035880D02*
X-13979949D01*
Y-9116915*
X-13989271Y-9107593*
X-14007915*
X-14017236Y-9116915*
X-14256657Y-9406449D02*
X-14247335Y-9415771D01*
Y-9453058*
X-14256657Y-9462380*
X-14275300*
X-14284622Y-9453058*
X-14303469D02*
X-14340756Y-9415771D01*
Y-9453058*
X-14331434Y-9462380*
X-14312791*
X-14303469Y-9453058*
Y-9415771*
X-14312791Y-9406449*
X-14331434*
X-14340756Y-9415771*
X-14359603Y-9406449D02*
Y-9434415D01*
X-14378247Y-9425093*
X-14387568*
X-14396890Y-9434415*
Y-9453058*
X-14387568Y-9462380*
X-14368925*
X-14359603Y-9453058*
Y-9406449D02*
X-14396890D01*
X-14415737Y-9415771D02*
X-14425059Y-9406449D01*
X-14443702*
X-14453024Y-9415771*
X-14415737Y-9453058*
X-14425059Y-9462380*
X-14443702*
X-14453024Y-9453058*
Y-9415771*
X-14471871Y-9425093D02*
X-14490489Y-9406449D01*
Y-9462380*
X-14471871D02*
X-14509133D01*
X-14415737Y-9453058D02*
Y-9415771D01*
X-14284622D02*
X-14275300Y-9406449D01*
X-14256657*
X-13918989Y-9533449D02*
Y-9589380D01*
X-13900371D02*
X-13937633D01*
X-13900371Y-9552093D02*
X-13918989Y-9533449D01*
X-13881524Y-9542771D02*
X-13872202Y-9533449D01*
X-13853559*
X-13844237Y-9542771*
X-13825390Y-9533449D02*
X-13788103D01*
Y-9561415*
X-13806747Y-9552093*
X-13816068*
X-13825390Y-9561415*
Y-9580058*
X-13816068Y-9589380*
X-13797425*
X-13788103Y-9580058*
X-13769256D02*
X-13759934Y-9589380D01*
X-13741291*
X-13731969Y-9580058*
X-13769256Y-9542771*
Y-9580058*
Y-9542771D02*
X-13759934Y-9533449D01*
X-13741291*
X-13731969Y-9542771*
Y-9580058*
X-13713122Y-9589380D02*
X-13694479Y-9570736D01*
X-13703800D02*
X-13675835D01*
Y-9589380D02*
Y-9533449D01*
X-13703800*
X-13713122Y-9542771*
Y-9561415*
X-13703800Y-9570736*
X-13844237Y-9580058D02*
X-13853559Y-9589380D01*
X-13872202*
X-13881524Y-9580058*
Y-9570736*
X-13872202Y-9561415*
X-13862881*
X-13872202D02*
X-13881524Y-9552093D01*
Y-9542771*
X-14628335Y-9453058D02*
X-14637657Y-9462380D01*
X-14656300*
X-14665622Y-9453058*
X-14684469D02*
X-14721756Y-9415771D01*
Y-9453058*
X-14712434Y-9462380*
X-14693791*
X-14684469Y-9453058*
Y-9415771*
X-14693791Y-9406449*
X-14712434*
X-14721756Y-9415771*
X-14740603Y-9406449D02*
Y-9434415D01*
X-14759247Y-9425093*
X-14768568*
X-14777890Y-9434415*
Y-9453058*
X-14768568Y-9462380*
X-14749925*
X-14740603Y-9453058*
Y-9406449D02*
X-14777890D01*
X-14796737Y-9425093D02*
X-14815381Y-9406449D01*
Y-9462380*
X-14796737D02*
X-14834024D01*
X-14852871D02*
X-14890133D01*
X-14871489D02*
Y-9406449D01*
X-14852871Y-9425093*
X-14665622Y-9415771D02*
X-14656300Y-9406449D01*
X-14637657*
X-14628335Y-9415771*
Y-9453058*
X-15199835Y-9542771D02*
Y-9580058D01*
X-15209157Y-9589380*
X-15227800*
X-15237122Y-9580058*
X-15255969D02*
X-15293256Y-9542771D01*
Y-9580058*
X-15283934Y-9589380*
X-15265291*
X-15255969Y-9580058*
Y-9542771*
X-15265291Y-9533449*
X-15283934*
X-15293256Y-9542771*
X-15312103Y-9533449D02*
Y-9561415D01*
X-15330747Y-9552093*
X-15340068*
X-15349390Y-9561415*
Y-9580058*
X-15340068Y-9589380*
X-15321425*
X-15312103Y-9580058*
Y-9533449D02*
X-15349390D01*
X-15368237Y-9552093D02*
X-15386881Y-9533449D01*
Y-9589380*
X-15368237D02*
X-15405524D01*
X-15424371D02*
X-15461633Y-9552093D01*
Y-9542771*
X-15452311Y-9533449*
X-15433667*
X-15424371Y-9542771*
Y-9589380D02*
X-15461633D01*
X-15237122Y-9542771D02*
X-15227800Y-9533449D01*
X-15209157*
X-15199835Y-9542771*
X-16295210Y-9462380D02*
Y-9406449D01*
X-16323175*
X-16332497Y-9415771*
Y-9434415*
X-16323175Y-9443736*
X-16295210*
X-16313854D02*
X-16332497Y-9462380D01*
X-16351344D02*
X-16388631D01*
X-16369988D02*
Y-9406449D01*
X-16351344Y-9425093*
X-16407478Y-9415771D02*
Y-9453058D01*
X-16444765Y-9415771*
Y-9453058*
X-16435443Y-9462380*
X-16416800*
X-16407478Y-9453058*
Y-9415771D02*
X-16416800Y-9406449D01*
X-16435443*
X-16444765Y-9415771*
X-16463612Y-9425093D02*
X-16482256Y-9406449D01*
Y-9462380*
X-16463612D02*
X-16500899D01*
X-16519746D02*
X-16557008D01*
X-16538364D02*
Y-9406449D01*
X-16519746Y-9425093*
X-16726324Y-9449959D02*
X-16782255D01*
Y-9468603D02*
Y-9431316D01*
Y-9412469D02*
Y-9375207D01*
Y-9393851D02*
X-16726324D01*
X-16744968Y-9412469*
X-16726324Y-9449959D02*
X-16744968Y-9468603D01*
X-16735646Y-9487450D02*
X-16772933Y-9524737D01*
X-16782255Y-9515415*
Y-9496772*
X-16772933Y-9487450*
X-16735646*
X-16726324Y-9496772*
Y-9515415*
X-16735646Y-9524737*
X-16772933*
X-16782255Y-9543584D02*
Y-9580871D01*
Y-9562227D02*
X-16726324D01*
X-16744968Y-9580871*
X-16735646Y-9599718D02*
X-16726324Y-9609040D01*
Y-9627683*
X-16735646Y-9637005*
X-16772933*
X-16782255Y-9627683*
Y-9609040*
X-16772933Y-9599718*
Y-9256005D02*
X-16782255Y-9246683D01*
Y-9228040*
X-16772933Y-9218718*
X-16782255Y-9199871D02*
Y-9162584D01*
Y-9181227D02*
X-16726324D01*
X-16744968Y-9199871*
X-16735646Y-9218718D02*
X-16726324Y-9228040D01*
Y-9246683*
X-16735646Y-9256005*
X-16772933*
Y-9143737D02*
X-16735646Y-9106450D01*
X-16772933*
X-16782255Y-9115772*
Y-9134415*
X-16772933Y-9143737*
X-16735646*
X-16726324Y-9134415*
Y-9115772*
X-16735646Y-9106450*
X-16744968Y-9087603D02*
X-16726324Y-9068959D01*
X-16782255*
Y-9087603D02*
Y-9050316D01*
Y-9031469D02*
X-16744968Y-8994207D01*
X-16735646*
X-16726324Y-9003529*
Y-9022173*
X-16735646Y-9031469*
X-16782255D02*
Y-8994207D01*
X-16557008Y-8954380D02*
X-16519746D01*
X-16557008Y-8917093*
Y-8907771*
X-16547686Y-8898449*
X-16529042*
X-16519746Y-8907771*
X-16482256Y-8898449D02*
Y-8954380D01*
X-16463612D02*
X-16500899D01*
X-16463612Y-8917093D02*
X-16482256Y-8898449D01*
X-16444765Y-8907771D02*
X-16407478Y-8945058D01*
X-16416800Y-8954380*
X-16435443*
X-16444765Y-8945058*
Y-8907771*
X-16435443Y-8898449*
X-16416800*
X-16407478Y-8907771*
Y-8945058*
X-16388631Y-8954380D02*
X-16351344D01*
X-16369988D02*
Y-8898449D01*
X-16351344Y-8917093*
X-16332497Y-8907771D02*
Y-8926415D01*
X-16323175Y-8935736*
X-16295210*
X-16313854D02*
X-16332497Y-8954380D01*
X-16295210D02*
Y-8898449D01*
X-16323175*
X-16332497Y-8907771*
X-15147130Y-8087808D02*
X-15137808Y-8097130D01*
X-15100521*
X-15091199Y-8087808*
Y-8069165*
X-15100521Y-8059843*
X-15109843Y-8040996D02*
X-15091199Y-8022352D01*
X-15147130*
Y-8040996D02*
Y-8003709D01*
X-15137808Y-7984862D02*
X-15147130Y-7975540D01*
Y-7956897*
X-15137808Y-7947575*
X-15128486*
X-15119165Y-7956897*
Y-7966218*
Y-7956897D02*
X-15109843Y-7947575D01*
X-15100521*
X-15091199Y-7956897*
Y-7975540*
X-15100521Y-7984862*
Y-7928728D02*
X-15109843D01*
X-15119165Y-7919406*
Y-7900763*
X-15128486Y-7891441*
X-15137808*
X-15147130Y-7900763*
Y-7919406*
X-15137808Y-7928728*
X-15128486*
X-15119165Y-7919406*
Y-7900763D02*
X-15109843Y-7891441D01*
X-15100521*
X-15091199Y-7900763*
Y-7919406*
X-15100521Y-7928728*
X-15109843Y-7872594D02*
X-15091199Y-7853976D01*
X-15147130*
Y-7872594D02*
Y-7835332D01*
X-15137808Y-8059843D02*
X-15147130Y-8069165D01*
Y-8087808*
X-18136710Y-8898449D02*
X-18164675D01*
X-18173997Y-8907771*
Y-8926415*
X-18164675Y-8935736*
X-18136710*
X-18155354D02*
X-18173997Y-8954380D01*
X-18192844D02*
X-18230131D01*
X-18211488D02*
Y-8898449D01*
X-18192844Y-8917093*
X-18248978Y-8907771D02*
X-18258300Y-8898449D01*
X-18276943*
X-18286265Y-8907771*
X-18248978Y-8945058*
X-18258300Y-8954380*
X-18276943*
X-18286265Y-8945058*
Y-8907771*
X-18305112Y-8917093D02*
X-18323756Y-8898449D01*
Y-8954380*
X-18305112D02*
X-18342399D01*
X-18361246Y-8945058D02*
X-18370542Y-8954380D01*
X-18389186*
X-18398508Y-8945058*
Y-8935736*
X-18389186Y-8926415*
X-18379864*
X-18389186D02*
X-18398508Y-8917093D01*
Y-8907771*
X-18389186Y-8898449*
X-18370542*
X-18361246Y-8907771*
X-18248978D02*
Y-8945058D01*
X-18136710Y-8954380D02*
Y-8898449D01*
X-18402521Y-9184707D02*
X-18411843D01*
X-18421165Y-9194029*
X-18430486Y-9184707*
X-18439808*
X-18449130Y-9194029*
Y-9212673*
X-18439808Y-9221969*
X-18449130Y-9240816D02*
Y-9278103D01*
Y-9259459D02*
X-18393199D01*
X-18411843Y-9278103*
X-18402521Y-9296950D02*
X-18439808D01*
X-18449130Y-9306272*
Y-9324915*
X-18439808Y-9334237*
X-18402521Y-9296950*
X-18393199Y-9306272*
Y-9324915*
X-18402521Y-9334237*
X-18439808*
X-18449130Y-9353084D02*
Y-9390371D01*
Y-9371727D02*
X-18393199D01*
X-18411843Y-9390371*
X-18402521Y-9409218D02*
X-18393199Y-9418540D01*
Y-9437183*
X-18402521Y-9446505*
X-18439808*
X-18449130Y-9437183*
Y-9418540*
X-18439808Y-9409218*
X-18402521Y-9221969D02*
X-18393199Y-9212673D01*
Y-9194029*
X-18402521Y-9184707*
X-18421165Y-9194029D02*
Y-9203351D01*
X-14620258Y-4668130D02*
X-14582996D01*
X-14601614D02*
Y-4612199D01*
X-14582996Y-4630843*
X-14564149Y-4668130D02*
X-14526862D01*
X-14545506D02*
Y-4612199D01*
X-14526862Y-4630843*
X-14508015Y-4621521D02*
Y-4658808D01*
X-14498693Y-4668130*
X-14480050*
X-14470728Y-4658808*
X-14451881D02*
X-14442559Y-4668130D01*
X-14423916*
X-14414594Y-4658808*
X-14451881Y-4621521*
Y-4658808*
X-14470728Y-4630843D02*
X-14480050Y-4640165D01*
X-14508015*
Y-4621521D02*
X-14498693Y-4612199D01*
X-14480050*
X-14470728Y-4621521*
Y-4630843*
X-14451881Y-4621521D02*
X-14442559Y-4612199D01*
X-14423916*
X-14414594Y-4621521*
Y-4658808*
X-14395747Y-4668130D02*
X-14358460D01*
Y-4612199*
D139*
X-19649432Y-8806908D02*
Y-9106932D01*
X-19349408*
Y-8806908*
X-19649432*
X-17720650Y-5437420D02*
X-17658690D01*
Y-5237420D02*
X-17720650D01*
X-15370815Y-5270161D02*
X-15246025D01*
Y-4960179D02*
X-15370815D01*
X-12330270Y-4886570D02*
Y-4670670D01*
X-10482730*
X-10052850D02*
X-9932271D01*
Y-6575670D02*
X-10052850D01*
X-10482730D02*
X-11746258D01*
X-11822082D02*
X-12330270D01*
Y-6359770*
X-10314932Y-8806908D02*
Y-9106932D01*
X-10014908*
Y-8806908*
X-10314932*
X-10888033Y-1518682D02*
X-11188057D01*
Y-1218658*
X-10888033*
Y-1518682*
X-18492158D02*
X-18792182D01*
Y-1218658*
X-18492158*
Y-1518682*
D142*
X-17617178Y-5202419D02*
X-17617128Y-5201428D01*
X-17616975Y-5200438*
X-17616721Y-5199473*
X-17616391Y-5198533*
X-17615959Y-5197644*
X-17615451Y-5196780*
X-17614842Y-5195993*
X-17614156Y-5195256*
X-17613419Y-5194596*
X-17612606Y-5194012*
X-17611743Y-5193504*
X-17610828Y-5193097*
X-17609889Y-5192792*
X-17608898Y-5192564*
X-17607907Y-5192437*
X-17606917Y-5192411*
X-17605926Y-5192488*
X-17604936Y-5192665*
X-17603996Y-5192945*
X-17603056Y-5193300*
X-17602167Y-5193758*
X-17601329Y-5194291*
X-17600541Y-5194926*
X-17599830Y-5195612*
X-17599195Y-5196374*
X-17598636Y-5197212*
X-17598154Y-5198076*
X-17597773Y-5198990*
X-17597468Y-5199955*
X-17597265Y-5200920*
X-17597163Y-5201911*
Y-5202927*
X-17597265Y-5203918*
X-17597468Y-5204883*
X-17597773Y-5205848*
X-17598154Y-5206762*
X-17598636Y-5207626*
X-17599195Y-5208464*
X-17599830Y-5209226*
X-17600541Y-5209912*
X-17601329Y-5210547*
X-17602167Y-5211080*
X-17603056Y-5211538*
X-17603996Y-5211893*
X-17604936Y-5212173*
X-17605926Y-5212350*
X-17606917Y-5212427*
X-17607907Y-5212401*
X-17608898Y-5212274*
X-17609889Y-5212046*
X-17610828Y-5211741*
X-17611743Y-5211334*
X-17612606Y-5210826*
X-17613419Y-5210242*
X-17614156Y-5209582*
X-17614842Y-5208845*
X-17615451Y-5208058*
X-17615959Y-5207194*
X-17616391Y-5206305*
X-17616721Y-5205365*
X-17616975Y-5204400*
X-17617128Y-5203410*
X-17617178Y-5202419*
D78*
X-17806510Y-1297550D02*
X-17808618Y-1296153D01*
X-17810777Y-1294832*
X-17812987Y-1293588*
X-17815248Y-1292445*
X-17817559Y-1291378*
X-17819870Y-1290387*
X-17822258Y-1289498*
X-17824646Y-1288711*
X-17827084Y-1288000*
X-17829548Y-1287390*
X-17832012Y-1286857*
X-17834526Y-1286425*
X-17837041Y-1286095*
X-17839555Y-1285866*
X-17842070Y-1285714*
X-17844610Y-1285663*
X-17847150Y-1285714*
X-17849665Y-1285866*
X-17852179Y-1286095*
X-17854694Y-1286425*
X-17857208Y-1286857*
X-17859672Y-1287390*
X-17862136Y-1288000*
X-17864574Y-1288711*
X-17866962Y-1289498*
X-17869350Y-1290387*
X-17871661Y-1291378*
X-17873972Y-1292445*
X-17876233Y-1293588*
X-17878443Y-1294832*
X-17880602Y-1296153*
X-17882710Y-1297550*
X-17966530Y-1221350D02*
X-17963634Y-1218531D01*
X-17960688Y-1215787*
X-17957665Y-1213120*
X-17954592Y-1210530*
X-17951442Y-1208015*
X-17948217Y-1205602*
X-17944940Y-1203240*
X-17941613Y-1200979*
X-17938234Y-1198769*
X-17934780Y-1196687*
X-17931300Y-1194655*
X-17927770Y-1192724*
X-17924188Y-1190895*
X-17920556Y-1189143*
X-17916873Y-1187492*
X-17913165Y-1185917*
X-17909405Y-1184444*
X-17905621Y-1183072*
X-17901785Y-1181802*
X-17897950Y-1180608*
X-17894064Y-1179516*
X-17890152Y-1178526*
X-17886241Y-1177611*
X-17882278Y-1176824*
X-17878316Y-1176113*
X-17874328Y-1175528*
X-17870340Y-1175020*
X-17866327Y-1174614*
X-17862288Y-1174309*
X-17858275Y-1174106*
X-17854237Y-1174004*
X-17850223*
X-17846185Y-1174106*
X-17842172Y-1174309*
X-17838133Y-1174614*
X-17834120Y-1175020*
X-17830132Y-1175528*
X-17826144Y-1176113*
X-17822182Y-1176824*
X-17818219Y-1177611*
X-17814308Y-1178526*
X-17810396Y-1179516*
X-17806510Y-1180608*
X-17802675Y-1181802*
X-17798839Y-1183072*
X-17795055Y-1184444*
X-17791295Y-1185917*
X-17787587Y-1187492*
X-17783904Y-1189143*
X-17780272Y-1190895*
X-17776690Y-1192724*
X-17773160Y-1194655*
X-17769680Y-1196687*
X-17766226Y-1198769*
X-17762847Y-1200979*
X-17759520Y-1203240*
X-17756243Y-1205602*
X-17753018Y-1208015*
X-17749868Y-1210530*
X-17746795Y-1213120*
X-17743772Y-1215787*
X-17740826Y-1218531*
X-17737930Y-1221350*
X-17770950Y-1260720D02*
X-17773439Y-1258485D01*
X-17776030Y-1256351*
X-17778646Y-1254294*
X-17781339Y-1252287*
X-17784082Y-1250382*
X-17786901Y-1248553*
X-17789746Y-1246826*
X-17792642Y-1245175*
X-17795613Y-1243600*
X-17798611Y-1242102*
X-17801633Y-1240730*
X-17804732Y-1239409*
X-17807856Y-1238216*
X-17811006Y-1237098*
X-17814181Y-1236082*
X-17817407Y-1235142*
X-17820632Y-1234304*
X-17823909Y-1233567*
X-17827186Y-1232932*
X-17830488Y-1232399*
X-17833790Y-1231942*
X-17837117Y-1231612*
X-17840470Y-1231358*
X-17843797Y-1231205*
X-17847150Y-1231154*
X-17850503Y-1231205*
X-17853830Y-1231358*
X-17857183Y-1231612*
X-17860510Y-1231942*
X-17863812Y-1232399*
X-17867114Y-1232932*
X-17870391Y-1233567*
X-17873668Y-1234304*
X-17876893Y-1235142*
X-17880119Y-1236082*
X-17883294Y-1237098*
X-17886444Y-1238216*
X-17889568Y-1239409*
X-17892667Y-1240730*
X-17895689Y-1242102*
X-17898687Y-1243600*
X-17901658Y-1245175*
X-17904554Y-1246826*
X-17907399Y-1248553*
X-17910218Y-1250382*
X-17912961Y-1252287*
X-17915654Y-1254294*
X-17918270Y-1256351*
X-17920861Y-1258485*
X-17923350Y-1260720*
X-17077530Y-1221350D02*
X-17074634Y-1218531D01*
X-17071688Y-1215787*
X-17068665Y-1213120*
X-17065592Y-1210530*
X-17062442Y-1208015*
X-17059217Y-1205602*
X-17055940Y-1203240*
X-17052613Y-1200979*
X-17049234Y-1198769*
X-17045780Y-1196687*
X-17042300Y-1194655*
X-17038770Y-1192724*
X-17035188Y-1190895*
X-17031556Y-1189143*
X-17027873Y-1187492*
X-17024165Y-1185917*
X-17020405Y-1184444*
X-17016621Y-1183072*
X-17012785Y-1181802*
X-17008950Y-1180608*
X-17005064Y-1179516*
X-17001152Y-1178526*
X-16997241Y-1177611*
X-16993278Y-1176824*
X-16989316Y-1176113*
X-16985328Y-1175528*
X-16981340Y-1175020*
X-16977327Y-1174614*
X-16973288Y-1174309*
X-16969275Y-1174106*
X-16965237Y-1174004*
X-16961223*
X-16957185Y-1174106*
X-16953172Y-1174309*
X-16949133Y-1174614*
X-16945120Y-1175020*
X-16941132Y-1175528*
X-16937144Y-1176113*
X-16933182Y-1176824*
X-16929219Y-1177611*
X-16925308Y-1178526*
X-16921396Y-1179516*
X-16917510Y-1180608*
X-16913675Y-1181802*
X-16909839Y-1183072*
X-16906055Y-1184444*
X-16902295Y-1185917*
X-16898587Y-1187492*
X-16894904Y-1189143*
X-16891272Y-1190895*
X-16887690Y-1192724*
X-16884160Y-1194655*
X-16880680Y-1196687*
X-16877226Y-1198769*
X-16873847Y-1200979*
X-16870520Y-1203240*
X-16867243Y-1205602*
X-16864018Y-1208015*
X-16860868Y-1210530*
X-16857795Y-1213120*
X-16854772Y-1215787*
X-16851826Y-1218531*
X-16848930Y-1221350*
X-16881950Y-1260720D02*
X-16884439Y-1258485D01*
X-16887030Y-1256351*
X-16889646Y-1254294*
X-16892339Y-1252287*
X-16895082Y-1250382*
X-16897901Y-1248553*
X-16900746Y-1246826*
X-16903642Y-1245175*
X-16906613Y-1243600*
X-16909611Y-1242102*
X-16912633Y-1240730*
X-16915732Y-1239409*
X-16918856Y-1238216*
X-16922006Y-1237098*
X-16925181Y-1236082*
X-16928407Y-1235142*
X-16931632Y-1234304*
X-16934909Y-1233567*
X-16938186Y-1232932*
X-16941488Y-1232399*
X-16944790Y-1231942*
X-16948117Y-1231612*
X-16951470Y-1231358*
X-16954797Y-1231205*
X-16958150Y-1231154*
X-16961503Y-1231205*
X-16964830Y-1231358*
X-16968183Y-1231612*
X-16971510Y-1231942*
X-16974812Y-1232399*
X-16978114Y-1232932*
X-16981391Y-1233567*
X-16984668Y-1234304*
X-16987893Y-1235142*
X-16991119Y-1236082*
X-16994294Y-1237098*
X-16997444Y-1238216*
X-17000568Y-1239409*
X-17003667Y-1240730*
X-17006689Y-1242102*
X-17009687Y-1243600*
X-17012658Y-1245175*
X-17015554Y-1246826*
X-17018399Y-1248553*
X-17021218Y-1250382*
X-17023961Y-1252287*
X-17026654Y-1254294*
X-17029270Y-1256351*
X-17031861Y-1258485*
X-17034350Y-1260720*
X-16993710Y-1297550D02*
X-16991602Y-1296153D01*
X-16989443Y-1294832*
X-16987233Y-1293588*
X-16984972Y-1292445*
X-16982661Y-1291378*
X-16980350Y-1290387*
X-16977962Y-1289498*
X-16975574Y-1288711*
X-16973136Y-1288000*
X-16970672Y-1287390*
X-16968208Y-1286857*
X-16965694Y-1286425*
X-16963179Y-1286095*
X-16960665Y-1285866*
X-16958150Y-1285714*
X-16955610Y-1285663*
X-16953070Y-1285714*
X-16950555Y-1285866*
X-16948041Y-1286095*
X-16945526Y-1286425*
X-16943012Y-1286857*
X-16940548Y-1287390*
X-16938084Y-1288000*
X-16935646Y-1288711*
X-16933258Y-1289498*
X-16930870Y-1290387*
X-16928559Y-1291378*
X-16926248Y-1292445*
X-16923987Y-1293588*
X-16921777Y-1294832*
X-16919618Y-1296153*
X-16917510Y-1297550*
D56*
X-15504432Y-5296170D02*
X-15504381Y-5294951D01*
X-15504229Y-5293732*
X-15503975Y-5292538*
X-15503644Y-5291370*
X-15503187Y-5290227*
X-15502679Y-5289109*
X-15502044Y-5288042*
X-15501333Y-5287052*
X-15500571Y-5286112*
X-15499707Y-5285248*
X-15498768Y-5284436*
X-15497802Y-5283699*
X-15496761Y-5283064*
X-15495669Y-5282505*
X-15494526Y-5282048*
X-15493357Y-5281692*
X-15492164Y-5281413*
X-15490944Y-5281235*
X-15489725Y-5281159*
X-15488506Y-5281184*
X-15487287Y-5281311*
X-15486068Y-5281540*
X-15484899Y-5281845*
X-15483756Y-5282277*
X-15482639Y-5282785*
X-15481572Y-5283369*
X-15480556Y-5284055*
X-15479591Y-5284817*
X-15478702Y-5285655*
X-15477889Y-5286569*
X-15477127Y-5287534*
X-15476466Y-5288576*
X-15475908Y-5289668*
X-15475400Y-5290786*
X-15475019Y-5291929*
X-15474714Y-5293122*
X-15474511Y-5294342*
X-15474409Y-5295561*
Y-5296780*
X-15474511Y-5297999*
X-15474714Y-5299218*
X-15475019Y-5300412*
X-15475400Y-5301555*
X-15475908Y-5302673*
X-15476466Y-5303765*
X-15477127Y-5304806*
X-15477889Y-5305772*
X-15478702Y-5306686*
X-15479591Y-5307524*
X-15480556Y-5308286*
X-15481572Y-5308972*
X-15482639Y-5309556*
X-15483756Y-5310064*
X-15484899Y-5310496*
X-15486068Y-5310801*
X-15487287Y-5311029*
X-15488506Y-5311156*
X-15489725Y-5311182*
X-15490944Y-5311106*
X-15492164Y-5310928*
X-15493357Y-5310648*
X-15494526Y-5310293*
X-15495669Y-5309836*
X-15496761Y-5309277*
X-15497802Y-5308642*
X-15498768Y-5307905*
X-15499707Y-5307092*
X-15500571Y-5306229*
X-15501333Y-5305289*
X-15502044Y-5304298*
X-15502679Y-5303232*
X-15503187Y-5302114*
X-15503644Y-5300971*
X-15503975Y-5299803*
X-15504229Y-5298609*
X-15504381Y-5297390*
X-15504432Y-5296170*
D916*
X-14388432Y-5323171D02*
Y-5326546D01*
X-14386253Y-5925349D02*
X-14338419Y-5973182D01*
X-14335044*
X-13736241Y-5971003D02*
X-13710676Y-5945438D01*
X-13690587Y-5320991D02*
X-13738421Y-5273158D01*
X-13741796*
X-14340599Y-5275337D02*
X-14388432Y-5323171D01*
D1035*
X-10354683Y-4556370D02*
X-10310614D01*
X-10332636D02*
Y-4490279D01*
X-10310614Y-4512301*
X-10279830Y-4556370D02*
X-10235786D01*
X-10257808D02*
Y-4490279D01*
X-10235786Y-4512301*
X-10205001Y-4523325D02*
X-10160932D01*
X-10193978Y-4490279*
Y-4556370*
X-10130147D02*
X-10086104D01*
X-10108126D02*
Y-4490279D01*
X-10086104Y-4512301*
X-10055319Y-4490279D02*
X-10033272D01*
X-10044295D02*
Y-4545346D01*
X-10033272Y-4556370*
X-10022274*
X-10011250Y-4545346*
D148*
X-19424490Y-3253350D03*
Y-3250810D03*
X-18365310Y-3215250D03*
X-18370390Y-2140830D03*
X-19419410Y-2112890D03*
D149*
X-19418140Y-2115430D03*
X-18371660Y-2143370D03*
X-18366580Y-3212710D03*
X-19423220Y-3248270D03*
D150*
X-19421950Y-3245730D03*
X-18367850Y-3210170D03*
X-18372930Y-2145910D03*
X-19416870Y-2117970D03*
D151*
X-19414330Y-2123050D03*
X-18375470Y-2150990D03*
X-18370390Y-3205090D03*
X-19419410Y-3240650D03*
Y-3243190D03*
D152*
X-19418140Y-3238110D03*
X-18679000Y-3004430D03*
X-18371660Y-3202550D03*
X-18376740Y-2153530D03*
X-19413060Y-2125590D03*
D153*
X-18563430Y-2191630D03*
Y-2290690D03*
X-18378010Y-2156070D03*
X-18372930Y-3200010D03*
X-19416870Y-3235570D03*
D154*
X-19415600Y-3233030D03*
X-18374200Y-3197470D03*
X-18379280Y-2158610D03*
X-19413060Y-2128130D03*
D155*
X-19411790Y-2130670D03*
X-18380550Y-2161150D03*
X-18375470Y-3194930D03*
X-19414330Y-3230490D03*
D156*
X-19413060Y-3227950D03*
X-18679000Y-3095870D03*
X-18376740Y-3192390D03*
X-18381820Y-2163690D03*
X-19410520Y-2133210D03*
D157*
X-19409250Y-2135750D03*
X-18383090Y-2166230D03*
X-18378010Y-3189850D03*
X-19411790Y-3225410D03*
D158*
X-19410520Y-3222870D03*
X-18521520Y-2430390D03*
Y-2427850D03*
Y-2425310D03*
Y-2422770D03*
Y-2420230D03*
Y-2417690D03*
Y-2415150D03*
Y-2412610D03*
Y-2410070D03*
Y-2407530D03*
Y-2404990D03*
Y-2402450D03*
Y-2399910D03*
Y-2397370D03*
Y-2394830D03*
Y-2392290D03*
Y-2389750D03*
Y-2387210D03*
Y-2384670D03*
Y-2382130D03*
Y-2379590D03*
Y-2377050D03*
Y-2374510D03*
Y-2371970D03*
X-18384360Y-2168770D03*
X-18379280Y-3187310D03*
X-19407980Y-2138290D03*
D159*
X-19406710Y-2140830D03*
X-18563430Y-2194170D03*
X-18385630Y-2171310D03*
X-18677730Y-3164450D03*
X-18380550Y-3184770D03*
X-19409250Y-3220330D03*
D160*
X-19407980Y-3217790D03*
X-18679000Y-3006970D03*
X-18381820Y-3182230D03*
X-18386900Y-2173850D03*
X-19405440Y-2143370D03*
D161*
X-19404170Y-2145910D03*
X-18677730Y-3093330D03*
X-18383090Y-3179690D03*
X-18388170Y-2176390D03*
X-19406710Y-3215250D03*
D162*
X-19405440Y-3212710D03*
X-19090480Y-3067930D03*
Y-3065390D03*
Y-3062850D03*
Y-3060310D03*
Y-3057770D03*
Y-3055230D03*
X-19093020Y-3050150D03*
Y-3047610D03*
Y-3045070D03*
Y-3042530D03*
Y-3039990D03*
Y-3037450D03*
Y-3034910D03*
Y-3032370D03*
Y-3029830D03*
X-19095560Y-3024750D03*
Y-3022210D03*
Y-3019670D03*
Y-3017130D03*
Y-3014590D03*
Y-3012050D03*
Y-3009510D03*
X-19098100Y-3001890D03*
Y-2999350D03*
Y-2996810D03*
Y-2994270D03*
Y-2991730D03*
Y-2989190D03*
Y-2986650D03*
Y-2984110D03*
Y-2981570D03*
Y-2979030D03*
X-19100640Y-2976490D03*
Y-2973950D03*
Y-2971410D03*
Y-2968870D03*
Y-2966330D03*
Y-2963790D03*
Y-2961250D03*
Y-2958710D03*
Y-2956170D03*
X-19110800Y-2859650D03*
Y-2857110D03*
Y-2854570D03*
Y-2852030D03*
Y-2849490D03*
Y-2846950D03*
X-19113340Y-2839330D03*
Y-2836790D03*
Y-2834250D03*
Y-2831710D03*
Y-2829170D03*
Y-2826630D03*
Y-2824090D03*
Y-2821550D03*
Y-2819010D03*
Y-2816470D03*
X-19115880Y-2811390D03*
Y-2808850D03*
Y-2806310D03*
Y-2803770D03*
Y-2801230D03*
Y-2798690D03*
Y-2796150D03*
Y-2793610D03*
X-19118420Y-2788530D03*
Y-2785990D03*
Y-2783450D03*
Y-2780910D03*
Y-2778370D03*
Y-2775830D03*
Y-2773290D03*
Y-2770750D03*
Y-2768210D03*
X-19120960Y-2765670D03*
Y-2763130D03*
Y-2760590D03*
Y-2758050D03*
Y-2755510D03*
Y-2752970D03*
Y-2750430D03*
Y-2747890D03*
Y-2745350D03*
Y-2742810D03*
X-19123500Y-2735190D03*
Y-2732650D03*
Y-2730110D03*
Y-2727570D03*
Y-2725030D03*
Y-2722490D03*
Y-2719950D03*
Y-2717410D03*
Y-2714870D03*
Y-2712330D03*
X-19126040Y-2704710D03*
Y-2702170D03*
Y-2699630D03*
Y-2697090D03*
Y-2694550D03*
Y-2692010D03*
Y-2689470D03*
Y-2686930D03*
Y-2684390D03*
X-19128580Y-2679310D03*
Y-2676770D03*
Y-2674230D03*
Y-2671690D03*
Y-2669150D03*
Y-2666610D03*
Y-2664070D03*
X-19131120Y-2658990D03*
Y-2656450D03*
Y-2653910D03*
Y-2651370D03*
Y-2648830D03*
Y-2646290D03*
Y-2643750D03*
Y-2641210D03*
Y-2638670D03*
Y-2636130D03*
X-19133660Y-2628510D03*
Y-2625970D03*
Y-2623430D03*
Y-2620890D03*
Y-2618350D03*
Y-2615810D03*
Y-2613270D03*
Y-2610730D03*
Y-2608190D03*
X-19136200Y-2600570D03*
Y-2598030D03*
Y-2595490D03*
Y-2592950D03*
Y-2590410D03*
Y-2587870D03*
Y-2585330D03*
Y-2582790D03*
Y-2580250D03*
Y-2577710D03*
X-19138740Y-2575170D03*
Y-2572630D03*
Y-2570090D03*
Y-2567550D03*
Y-2565010D03*
Y-2562470D03*
Y-2559930D03*
Y-2557390D03*
X-19141280Y-2552310D03*
Y-2549770D03*
Y-2547230D03*
Y-2544690D03*
Y-2542150D03*
Y-2539610D03*
Y-2537070D03*
Y-2534530D03*
Y-2531990D03*
X-19143820Y-2524370D03*
Y-2521830D03*
Y-2519290D03*
Y-2516750D03*
Y-2514210D03*
Y-2511670D03*
Y-2509130D03*
Y-2506590D03*
Y-2504050D03*
Y-2501510D03*
X-19146360Y-2493890D03*
Y-2491350D03*
Y-2488810D03*
Y-2486270D03*
Y-2483730D03*
Y-2481190D03*
Y-2478650D03*
Y-2476110D03*
X-19148900Y-2468490D03*
Y-2465950D03*
Y-2463410D03*
Y-2460870D03*
X-19161600Y-2338950D03*
Y-2336410D03*
Y-2333870D03*
Y-2331330D03*
Y-2328790D03*
Y-2326250D03*
Y-2323710D03*
X-19164140Y-2313550D03*
Y-2311010D03*
Y-2308470D03*
Y-2305930D03*
Y-2303390D03*
Y-2300850D03*
Y-2298310D03*
Y-2295770D03*
Y-2293230D03*
X-19169220Y-2239890D03*
X-19402900Y-2148450D03*
X-18623120Y-2524370D03*
Y-2526910D03*
Y-2529450D03*
Y-2531990D03*
Y-2534530D03*
Y-2537070D03*
Y-2539610D03*
Y-2542150D03*
Y-2544690D03*
Y-2547230D03*
Y-2549770D03*
Y-2552310D03*
X-18625660Y-2557390D03*
Y-2559930D03*
Y-2562470D03*
Y-2565010D03*
Y-2567550D03*
Y-2570090D03*
Y-2572630D03*
Y-2575170D03*
Y-2577710D03*
Y-2580250D03*
Y-2582790D03*
X-18628200Y-2585330D03*
Y-2587870D03*
Y-2590410D03*
Y-2592950D03*
Y-2595490D03*
Y-2598030D03*
Y-2600570D03*
Y-2603110D03*
Y-2605650D03*
X-18630740Y-2610730D03*
Y-2613270D03*
Y-2615810D03*
Y-2618350D03*
Y-2620890D03*
Y-2623430D03*
Y-2625970D03*
Y-2628510D03*
Y-2631050D03*
Y-2633590D03*
Y-2636130D03*
Y-2638670D03*
X-18633280Y-2643750D03*
Y-2646290D03*
Y-2648830D03*
Y-2651370D03*
Y-2653910D03*
Y-2656450D03*
Y-2658990D03*
Y-2661530D03*
Y-2664070D03*
Y-2666610D03*
Y-2669150D03*
Y-2671690D03*
X-18635820Y-2676770D03*
Y-2679310D03*
Y-2681850D03*
Y-2684390D03*
Y-2686930D03*
Y-2689470D03*
Y-2692010D03*
Y-2694550D03*
Y-2697090D03*
Y-2699630D03*
Y-2702170D03*
X-18638360Y-2707250D03*
Y-2709790D03*
Y-2712330D03*
Y-2714870D03*
Y-2717410D03*
Y-2719950D03*
Y-2722490D03*
Y-2725030D03*
Y-2727570D03*
X-18640900Y-2730110D03*
Y-2732650D03*
Y-2735190D03*
Y-2737730D03*
Y-2740270D03*
Y-2742810D03*
Y-2745350D03*
Y-2747890D03*
X-18643440Y-2763130D03*
Y-2765670D03*
Y-2768210D03*
Y-2770750D03*
Y-2773290D03*
Y-2775830D03*
Y-2778370D03*
Y-2780910D03*
Y-2783450D03*
X-18645980Y-2798690D03*
Y-2801230D03*
Y-2803770D03*
Y-2806310D03*
Y-2808850D03*
Y-2811390D03*
Y-2813930D03*
Y-2816470D03*
Y-2819010D03*
X-18648520Y-2831710D03*
Y-2834250D03*
Y-2836790D03*
Y-2839330D03*
Y-2841870D03*
Y-2844410D03*
X-18651060Y-2852030D03*
Y-2854570D03*
Y-2857110D03*
X-18620580Y-2519290D03*
Y-2516750D03*
Y-2514210D03*
Y-2511670D03*
Y-2509130D03*
Y-2506590D03*
Y-2504050D03*
Y-2501510D03*
Y-2498970D03*
Y-2496430D03*
Y-2493890D03*
Y-2491350D03*
X-18618040Y-2486270D03*
Y-2483730D03*
Y-2481190D03*
Y-2478650D03*
Y-2476110D03*
X-18605340Y-2328790D03*
Y-2326250D03*
Y-2323710D03*
Y-2321170D03*
Y-2318630D03*
Y-2316090D03*
X-18602800Y-2311010D03*
Y-2308470D03*
Y-2305930D03*
Y-2303390D03*
Y-2300850D03*
Y-2298310D03*
Y-2295770D03*
Y-2293230D03*
X-18389440Y-2178930D03*
X-18384360Y-3177150D03*
D163*
X-18385630Y-3174610D03*
X-18388170Y-3172070D03*
X-18649790Y-2849490D03*
Y-2846950D03*
X-18647250Y-2829170D03*
Y-2826630D03*
Y-2824090D03*
Y-2821550D03*
X-18644710Y-2796150D03*
Y-2793610D03*
Y-2791070D03*
Y-2788530D03*
Y-2785990D03*
X-18642170Y-2760590D03*
Y-2758050D03*
Y-2755510D03*
Y-2752970D03*
Y-2750430D03*
X-18637090Y-2704710D03*
X-18634550Y-2674230D03*
X-18632010Y-2641210D03*
X-18629470Y-2608190D03*
X-18624390Y-2554850D03*
X-18621850Y-2521830D03*
X-18619310Y-2488810D03*
X-18604070Y-2313550D03*
X-18601530Y-2290690D03*
X-18390710Y-2184010D03*
Y-2181470D03*
X-19147630Y-2471030D03*
Y-2473570D03*
X-19145090Y-2496430D03*
Y-2498970D03*
X-19142550Y-2526910D03*
Y-2529450D03*
X-19140010Y-2554850D03*
X-19134930Y-2603110D03*
Y-2605650D03*
X-19132390Y-2631050D03*
Y-2633590D03*
X-19129850Y-2661530D03*
X-19127310Y-2681850D03*
X-19124770Y-2707250D03*
Y-2709790D03*
X-19122230Y-2737730D03*
Y-2740270D03*
X-19117150Y-2791070D03*
X-19114610Y-2813930D03*
X-19112070Y-2841870D03*
Y-2844410D03*
X-19096830Y-3004430D03*
Y-3006970D03*
X-19094290Y-3027290D03*
X-19091750Y-3052690D03*
X-19404170Y-3210170D03*
X-19160330Y-2344030D03*
Y-2341490D03*
X-19162870Y-2321170D03*
Y-2318630D03*
Y-2316090D03*
X-19165410Y-2290690D03*
X-19170490Y-2242430D03*
X-19167950Y-2237350D03*
X-19401630Y-2150990D03*
D164*
X-19400360Y-2153530D03*
X-19397820Y-2156070D03*
X-19395280Y-2158610D03*
X-19392740Y-2161150D03*
X-19390200Y-2163690D03*
X-19387660Y-2166230D03*
X-19385120Y-2168770D03*
X-19382580Y-2171310D03*
X-19380040Y-2173850D03*
X-19166680Y-2234810D03*
X-18729800Y-2829170D03*
X-18719640Y-2839330D03*
X-18709480Y-2849490D03*
X-18656140Y-2902830D03*
X-18653600Y-2905370D03*
X-18679000Y-3009510D03*
X-18541840Y-3017130D03*
X-18539300Y-3019670D03*
X-18536760Y-3022210D03*
X-18534220Y-3024750D03*
X-18531680Y-3027290D03*
X-18529140Y-3029830D03*
X-18526600Y-3032370D03*
X-18524060Y-3034910D03*
X-18521520Y-3037450D03*
X-18518980Y-3039990D03*
X-18516440Y-3042530D03*
X-18513900Y-3045070D03*
X-18511360Y-3047610D03*
X-18508820Y-3050150D03*
X-18506280Y-3052690D03*
X-18503740Y-3055230D03*
X-18501200Y-3057770D03*
X-18498660Y-3060310D03*
X-18496120Y-3062850D03*
X-18493580Y-3065390D03*
X-18491040Y-3067930D03*
X-18488500Y-3070470D03*
X-18485960Y-3073010D03*
X-18483420Y-3075550D03*
X-18480880Y-3078090D03*
X-18478340Y-3080630D03*
X-18475800Y-3083170D03*
X-18473260Y-3085710D03*
X-18470720Y-3088250D03*
X-18468180Y-3090790D03*
X-18465640Y-3093330D03*
X-18463100Y-3095870D03*
X-18460560Y-3098410D03*
X-18458020Y-3100950D03*
X-18455480Y-3103490D03*
X-18452940Y-3106030D03*
X-18450400Y-3108570D03*
X-18447860Y-3111110D03*
X-18445320Y-3113650D03*
X-18442780Y-3116190D03*
X-18440240Y-3118730D03*
X-18437700Y-3121270D03*
X-18435160Y-3123810D03*
X-18432620Y-3126350D03*
X-18430080Y-3128890D03*
X-18427540Y-3131430D03*
X-18425000Y-3133970D03*
X-18422460Y-3136510D03*
X-18419920Y-3139050D03*
X-18417380Y-3141590D03*
X-18414840Y-3144130D03*
X-18412300Y-3146670D03*
X-18409760Y-3149210D03*
X-18407220Y-3151750D03*
X-18404680Y-3154290D03*
X-18402140Y-3156830D03*
X-18399600Y-3159370D03*
X-18397060Y-3161910D03*
X-18394520Y-3164450D03*
X-18391980Y-3166990D03*
X-18389440Y-3169530D03*
X-18605340Y-2331330D03*
X-18562160Y-2196710D03*
X-18391980Y-2186550D03*
X-19402900Y-3207630D03*
D165*
X-18369120D03*
X-18374200Y-2148450D03*
X-19415600Y-2120510D03*
D166*
X-19378770Y-2176390D03*
X-19376230Y-2178930D03*
X-19373690Y-2181470D03*
X-19371150Y-2184010D03*
X-19368610Y-2186550D03*
X-19366070Y-2189090D03*
X-19363530Y-2191630D03*
X-19360990Y-2194170D03*
X-19358450Y-2196710D03*
X-19355910Y-2199250D03*
X-19353370Y-2201790D03*
X-19350830Y-2204330D03*
X-19348290Y-2206870D03*
X-19345750Y-2209410D03*
X-19343210Y-2211950D03*
X-19340670Y-2214490D03*
X-19338130Y-2217030D03*
X-19335590Y-2219570D03*
X-19333050Y-2222110D03*
X-19330510Y-2224650D03*
X-19327970Y-2227190D03*
X-19325430Y-2229730D03*
X-19322890Y-2232270D03*
X-19320350Y-2234810D03*
X-19165410Y-2232270D03*
X-19091750Y-2465950D03*
X-19089210Y-2468490D03*
X-19084130Y-2473570D03*
X-19081590Y-2476110D03*
X-19079050Y-2478650D03*
X-19076510Y-2481190D03*
X-19071430Y-2486270D03*
X-19068890Y-2488810D03*
X-19066350Y-2491350D03*
X-19063810Y-2493890D03*
X-19061270Y-2496430D03*
X-19058730Y-2498970D03*
X-19056190Y-2501510D03*
X-19053650Y-2504050D03*
X-19051110Y-2506590D03*
X-19048570Y-2509130D03*
X-19046030Y-2511670D03*
X-19043490Y-2514210D03*
X-19040950Y-2516750D03*
X-19038410Y-2519290D03*
X-19035870Y-2521830D03*
X-19033330Y-2524370D03*
X-19030790Y-2526910D03*
X-19028250Y-2529450D03*
X-19025710Y-2531990D03*
X-19023170Y-2534530D03*
X-19020630Y-2537070D03*
X-19018090Y-2539610D03*
X-19015550Y-2542150D03*
X-19013010Y-2544690D03*
X-19010470Y-2547230D03*
X-19007930Y-2549770D03*
X-19005390Y-2552310D03*
X-19002850Y-2554850D03*
X-19000310Y-2557390D03*
X-18997770Y-2559930D03*
X-18995230Y-2562470D03*
X-18992690Y-2565010D03*
X-18990150Y-2567550D03*
X-18987610Y-2570090D03*
X-18985070Y-2572630D03*
X-18982530Y-2575170D03*
X-18979990Y-2577710D03*
X-18977450Y-2580250D03*
X-18974910Y-2582790D03*
X-18972370Y-2585330D03*
X-18969830Y-2587870D03*
X-18967290Y-2590410D03*
X-18964750Y-2592950D03*
X-18962210Y-2595490D03*
X-18959670Y-2598030D03*
X-18957130Y-2600570D03*
X-18954590Y-2603110D03*
X-18952050Y-2605650D03*
X-18949510Y-2608190D03*
X-18946970Y-2610730D03*
X-18944430Y-2613270D03*
X-18941890Y-2615810D03*
X-18939350Y-2618350D03*
X-18936810Y-2620890D03*
X-18934270Y-2623430D03*
X-18931730Y-2625970D03*
X-18929190Y-2628510D03*
X-18926650Y-2631050D03*
X-18924110Y-2633590D03*
X-18921570Y-2636130D03*
X-18919030Y-2638670D03*
X-18916490Y-2641210D03*
X-18913950Y-2643750D03*
X-18911410Y-2646290D03*
X-18908870Y-2648830D03*
X-18847910Y-2709790D03*
X-18845370Y-2712330D03*
X-18842830Y-2714870D03*
X-18840290Y-2717410D03*
X-18837750Y-2719950D03*
X-18835210Y-2722490D03*
X-18832670Y-2725030D03*
X-18830130Y-2727570D03*
X-18827590Y-2730110D03*
X-18825050Y-2732650D03*
X-18822510Y-2735190D03*
X-18819970Y-2737730D03*
X-18817430Y-2740270D03*
X-18814890Y-2742810D03*
X-18812350Y-2745350D03*
X-18809810Y-2747890D03*
X-18807270Y-2750430D03*
X-18804730Y-2752970D03*
X-18802190Y-2755510D03*
X-18799650Y-2758050D03*
X-18797110Y-2760590D03*
X-18794570Y-2763130D03*
X-18792030Y-2765670D03*
X-18789490Y-2768210D03*
X-18786950Y-2770750D03*
X-18784410Y-2773290D03*
X-18781870Y-2775830D03*
X-18779330Y-2778370D03*
X-18776790Y-2780910D03*
X-18774250Y-2783450D03*
X-18771710Y-2785990D03*
X-18769170Y-2788530D03*
X-18766630Y-2791070D03*
X-18764090Y-2793610D03*
X-18761550Y-2796150D03*
X-18759010Y-2798690D03*
X-18756470Y-2801230D03*
X-18753930Y-2803770D03*
X-18751390Y-2806310D03*
X-18748850Y-2808850D03*
X-18743770Y-2813930D03*
X-18741230Y-2816470D03*
X-18738690Y-2819010D03*
X-18736150Y-2821550D03*
X-18733610Y-2824090D03*
X-18731070Y-2826630D03*
X-18725990Y-2831710D03*
X-18723450Y-2834250D03*
X-18720910Y-2836790D03*
X-18715830Y-2841870D03*
X-18713290Y-2844410D03*
X-18710750Y-2846950D03*
X-18705670Y-2852030D03*
X-18703130Y-2854570D03*
X-18700590Y-2857110D03*
X-18657410Y-2900290D03*
X-18652330Y-2907910D03*
X-18591370Y-3032370D03*
Y-3034910D03*
Y-3037450D03*
Y-3039990D03*
X-18588830Y-3042530D03*
Y-3045070D03*
Y-3047610D03*
Y-3050150D03*
Y-3052690D03*
Y-3055230D03*
Y-3057770D03*
Y-3060310D03*
X-18591370Y-3062850D03*
Y-3065390D03*
Y-3067930D03*
X-18764090Y-3039990D03*
Y-3037450D03*
Y-3034910D03*
Y-3032370D03*
X-18766630Y-3042530D03*
Y-3045070D03*
Y-3047610D03*
Y-3050150D03*
Y-3052690D03*
Y-3055230D03*
Y-3057770D03*
X-19221290Y-3024750D03*
X-19228910Y-3032370D03*
X-19231450Y-3034910D03*
X-19239070Y-3042530D03*
X-19241610Y-3045070D03*
X-19244150Y-3047610D03*
X-19246690Y-3050150D03*
X-19249230Y-3052690D03*
X-19251770Y-3055230D03*
X-19254310Y-3057770D03*
X-19256850Y-3060310D03*
X-19259390Y-3062850D03*
X-19261930Y-3065390D03*
X-19264470Y-3067930D03*
X-19267010Y-3070470D03*
X-19269550Y-3073010D03*
X-19272090Y-3075550D03*
X-19274630Y-3078090D03*
X-19277170Y-3080630D03*
X-19279710Y-3083170D03*
X-19282250Y-3085710D03*
X-19284790Y-3088250D03*
X-19287330Y-3090790D03*
X-19289870Y-3093330D03*
X-19292410Y-3095870D03*
X-19294950Y-3098410D03*
X-19297490Y-3100950D03*
X-19300030Y-3103490D03*
X-19302570Y-3106030D03*
X-19305110Y-3108570D03*
X-19307650Y-3111110D03*
X-19310190Y-3113650D03*
X-19312730Y-3116190D03*
X-19315270Y-3118730D03*
X-19317810Y-3121270D03*
X-19320350Y-3123810D03*
X-19322890Y-3126350D03*
X-19325430Y-3128890D03*
X-19327970Y-3131430D03*
X-19330510Y-3133970D03*
X-19333050Y-3136510D03*
X-19335590Y-3139050D03*
X-19338130Y-3141590D03*
X-19340670Y-3144130D03*
X-19343210Y-3146670D03*
X-19345750Y-3149210D03*
X-19348290Y-3151750D03*
X-19350830Y-3154290D03*
X-19353370Y-3156830D03*
X-19355910Y-3159370D03*
X-19358450Y-3161910D03*
X-19360990Y-3164450D03*
X-19363530Y-3166990D03*
X-19366070Y-3169530D03*
X-19368610Y-3172070D03*
X-19371150Y-3174610D03*
X-19373690Y-3177150D03*
X-19376230Y-3179690D03*
X-19378770Y-3182230D03*
X-19381310Y-3184770D03*
X-19383850Y-3187310D03*
X-19386390Y-3189850D03*
X-19388930Y-3192390D03*
X-19391470Y-3194930D03*
X-19394010Y-3197470D03*
X-19396550Y-3200010D03*
X-19399090Y-3202550D03*
X-19401630Y-3205090D03*
D167*
X-19058730Y-3166990D03*
Y-3164450D03*
Y-3161910D03*
Y-3159370D03*
Y-3156830D03*
Y-3154290D03*
Y-3151750D03*
Y-3149210D03*
Y-3146670D03*
Y-3144130D03*
Y-3141590D03*
Y-3139050D03*
Y-3136510D03*
Y-3133970D03*
Y-3131430D03*
Y-3128890D03*
Y-3126350D03*
Y-3123810D03*
Y-3121270D03*
Y-3118730D03*
Y-3116190D03*
Y-3113650D03*
X-19099370Y-2897750D03*
X-18662490Y-2890130D03*
X-18647250Y-2918070D03*
X-18677730Y-3014590D03*
X-18601530Y-3093330D03*
X-18604070Y-3095870D03*
X-18725990Y-2524370D03*
X-18621850Y-2422770D03*
X-18616770Y-2415150D03*
X-18403410Y-2201790D03*
X-18400870Y-2199250D03*
X-19145090Y-2415150D03*
X-19165410Y-2387210D03*
X-19160330Y-2224650D03*
D168*
X-19081590Y-2211950D03*
X-19079050Y-2145910D03*
X-19160330Y-2394830D03*
X-19147630Y-2410070D03*
Y-2412610D03*
X-18878390Y-2679310D03*
X-18847910Y-2648830D03*
X-18845370Y-2646290D03*
X-18842830Y-2643750D03*
X-18840290Y-2641210D03*
X-18837750Y-2638670D03*
X-18835210Y-2636130D03*
X-18832670Y-2633590D03*
X-18825050Y-2625970D03*
X-18822510Y-2623430D03*
X-18819970Y-2620890D03*
X-18817430Y-2618350D03*
X-18814890Y-2615810D03*
X-18812350Y-2613270D03*
X-18809810Y-2610730D03*
X-18807270Y-2608190D03*
X-18804730Y-2605650D03*
X-18802190Y-2603110D03*
X-18799650Y-2600570D03*
X-18797110Y-2598030D03*
X-18794570Y-2595490D03*
X-18792030Y-2592950D03*
X-18789490Y-2590410D03*
X-18786950Y-2587870D03*
X-18784410Y-2585330D03*
X-18781870Y-2582790D03*
X-18779330Y-2580250D03*
X-18776790Y-2577710D03*
X-18774250Y-2575170D03*
X-18771710Y-2572630D03*
X-18769170Y-2570090D03*
X-18766630Y-2567550D03*
X-18764090Y-2565010D03*
X-18761550Y-2562470D03*
X-18759010Y-2559930D03*
X-18756470Y-2557390D03*
X-18753930Y-2554850D03*
X-18751390Y-2552310D03*
X-18748850Y-2549770D03*
X-18746310Y-2547230D03*
X-18743770Y-2544690D03*
X-18741230Y-2542150D03*
X-18738690Y-2539610D03*
X-18736150Y-2537070D03*
X-18733610Y-2534530D03*
X-18731070Y-2531990D03*
X-18728530Y-2529450D03*
X-18703130Y-2504050D03*
X-18700590Y-2501510D03*
X-18698050Y-2498970D03*
X-18695510Y-2496430D03*
X-18692970Y-2493890D03*
X-18690430Y-2491350D03*
X-18687890Y-2488810D03*
X-18685350Y-2486270D03*
X-18682810Y-2483730D03*
X-18680270Y-2481190D03*
X-18677730Y-2478650D03*
X-18563430Y-2199250D03*
X-18421190Y-2219570D03*
X-18395790Y-2194170D03*
Y-2191630D03*
X-18908870Y-2709790D03*
X-18911410Y-2712330D03*
X-18913950Y-2714870D03*
X-18916490Y-2717410D03*
X-18919030Y-2719950D03*
X-18921570Y-2722490D03*
X-18924110Y-2725030D03*
X-18926650Y-2727570D03*
X-18929190Y-2730110D03*
X-18931730Y-2732650D03*
X-18934270Y-2735190D03*
X-18936810Y-2737730D03*
X-18939350Y-2740270D03*
X-18941890Y-2742810D03*
X-18944430Y-2745350D03*
X-18946970Y-2747890D03*
X-18949510Y-2750430D03*
X-18954590Y-2755510D03*
X-18957130Y-2758050D03*
X-18959670Y-2760590D03*
X-19101910Y-2902830D03*
X-19109530Y-2912990D03*
X-19112070Y-2915530D03*
X-18759010Y-3019670D03*
X-18756470Y-3014590D03*
X-18677730Y-3012050D03*
X-18596450Y-3017130D03*
X-18593910Y-3078090D03*
X-18596450Y-3083170D03*
Y-3085710D03*
X-18677730Y-3161910D03*
X-18649790Y-2912990D03*
X-18659950Y-2895210D03*
D169*
X-18667570Y-2877430D03*
X-18642170Y-2930770D03*
X-18677730Y-3022210D03*
X-18736150Y-2991730D03*
X-18677730Y-3159370D03*
X-18616770Y-3108570D03*
X-19091750Y-2882510D03*
X-19119690Y-2933310D03*
X-19134930Y-2435470D03*
X-19173030Y-2371970D03*
X-18647250Y-2201790D03*
X-18609150Y-2399910D03*
D170*
X-18602800Y-2387210D03*
X-18666300Y-2191630D03*
X-18877120Y-2661530D03*
X-18879660Y-2697090D03*
X-18673920Y-2864730D03*
X-18679000Y-3034910D03*
Y-3067930D03*
X-18676460Y-3156830D03*
X-19126040Y-2946010D03*
X-19087940Y-2872350D03*
X-19181920Y-2356730D03*
D171*
X-18677730Y-2186550D03*
X-18596450Y-2374510D03*
X-18677730Y-3154290D03*
D172*
Y-3151750D03*
X-18573590Y-3014590D03*
X-18576130Y-3012050D03*
X-18586290Y-3001890D03*
X-18588830Y-2999350D03*
X-18591370Y-2996810D03*
X-18647250Y-2940930D03*
X-19106990Y-2194170D03*
X-19104450Y-2191630D03*
D173*
X-19096830Y-2189090D03*
X-19112070Y-2201790D03*
X-18677730Y-3149210D03*
D174*
Y-3146670D03*
X-18652330Y-2946010D03*
X-18576130Y-2232270D03*
X-19117150Y-2209410D03*
D175*
X-18677730Y-3144130D03*
D176*
X-18676460Y-3141590D03*
X-18724720Y-2168770D03*
D177*
X-18720910Y-2173850D03*
X-18596450Y-2209410D03*
X-19076510Y-2186550D03*
X-18677730Y-3139050D03*
D178*
Y-3136510D03*
X-18657410Y-2953630D03*
X-18718370Y-2176390D03*
D179*
X-18715830Y-2178930D03*
X-18583750Y-2432930D03*
X-18657410Y-2956170D03*
X-18677730Y-3133970D03*
D180*
Y-3131430D03*
X-18586290Y-2438010D03*
X-18715830Y-2181470D03*
D181*
X-18588830Y-2443090D03*
X-18677730Y-3128890D03*
D182*
Y-3126350D03*
X-18591370Y-2448170D03*
D183*
X-18593910Y-2453250D03*
X-18659950Y-2963790D03*
X-18677730Y-3121270D03*
Y-3123810D03*
D184*
Y-3118730D03*
X-18659950Y-2966330D03*
X-18596450Y-2458330D03*
D185*
X-18598990Y-2463410D03*
X-18659950Y-2968870D03*
X-18677730Y-3116190D03*
D186*
Y-3113650D03*
X-18659950Y-2971410D03*
X-18606610Y-2473570D03*
X-18858070Y-2128130D03*
Y-2125590D03*
D187*
X-18901250Y-2150990D03*
Y-3111110D03*
D188*
X-18679000Y-3078090D03*
Y-3024750D03*
X-18640900Y-2933310D03*
X-18668840Y-2874890D03*
X-18620580Y-3111110D03*
X-18879660Y-2692010D03*
X-18877120Y-2666610D03*
X-19090480Y-2879970D03*
X-19120960Y-2935850D03*
X-19174300Y-2369430D03*
X-18651060Y-2199250D03*
X-18607880Y-2397370D03*
D189*
X-18905060Y-3108570D03*
D190*
X-18907600Y-3106030D03*
X-18905060Y-2148450D03*
D191*
X-19153980Y-2217030D03*
X-19156520Y-2219570D03*
X-19169220Y-2379590D03*
X-18877120Y-2671690D03*
X-18879660Y-2686930D03*
X-19095560Y-2890130D03*
X-19115880Y-2925690D03*
X-18739960Y-2994270D03*
X-18679000Y-3083170D03*
X-18612960Y-3106030D03*
X-18610420Y-3103490D03*
X-18643440Y-2925690D03*
X-18625660Y-2430390D03*
X-18612960Y-2407530D03*
X-18562160Y-2204330D03*
D192*
X-18910140Y-3103490D03*
D193*
X-18912680Y-3100950D03*
D194*
X-18747580Y-3001890D03*
X-18745040Y-2999350D03*
X-18679000Y-3085710D03*
X-18607880Y-3100950D03*
X-18605340Y-3098410D03*
X-18663760Y-2887590D03*
X-18879660Y-2684390D03*
X-18877120Y-2674230D03*
X-19098100Y-2895210D03*
X-19113340Y-2920610D03*
X-19143820Y-2417690D03*
X-19166680Y-2384670D03*
X-19159060Y-2222110D03*
X-18623120Y-2425310D03*
X-18615500Y-2412610D03*
X-18562160Y-2201790D03*
D195*
X-18913950Y-3098410D03*
D196*
X-18915220Y-3095870D03*
X-18953320Y-2184010D03*
D197*
X-18916490Y-3093330D03*
D198*
X-18917760Y-3090790D03*
D199*
X-18765360Y-3067930D03*
Y-3065390D03*
Y-3062850D03*
Y-3060310D03*
X-18762820Y-3029830D03*
Y-3027290D03*
X-18760280Y-3024750D03*
Y-3022210D03*
X-18757740Y-3017130D03*
X-18679000Y-3090790D03*
X-18595180Y-3080630D03*
X-18592640Y-3075550D03*
Y-3073010D03*
Y-3070470D03*
Y-3029830D03*
Y-3027290D03*
X-18595180Y-3024750D03*
Y-3022210D03*
Y-3019670D03*
X-18651060Y-2910450D03*
X-18658680Y-2897750D03*
X-18950780Y-2752970D03*
X-18960940Y-2763130D03*
X-18963480Y-2765670D03*
X-18966020Y-2768210D03*
X-18968560Y-2770750D03*
X-18971100Y-2773290D03*
X-18973640Y-2775830D03*
X-18976180Y-2778370D03*
X-18978720Y-2780910D03*
X-18981260Y-2783450D03*
X-18983800Y-2785990D03*
X-18986340Y-2788530D03*
X-18988880Y-2791070D03*
X-18991420Y-2793610D03*
X-18993960Y-2796150D03*
X-18996500Y-2798690D03*
X-18999040Y-2801230D03*
X-19001580Y-2803770D03*
X-19004120Y-2806310D03*
X-19006660Y-2808850D03*
X-19009200Y-2811390D03*
X-19011740Y-2813930D03*
X-19014280Y-2816470D03*
X-19016820Y-2819010D03*
X-19019360Y-2821550D03*
X-19021900Y-2824090D03*
X-19024440Y-2826630D03*
X-19026980Y-2829170D03*
X-19029520Y-2831710D03*
X-19032060Y-2834250D03*
X-19034600Y-2836790D03*
X-19037140Y-2839330D03*
X-19039680Y-2841870D03*
X-19042220Y-2844410D03*
X-19044760Y-2846950D03*
X-19047300Y-2849490D03*
X-19049840Y-2852030D03*
X-19052380Y-2854570D03*
X-19054920Y-2857110D03*
X-19057460Y-2859650D03*
X-19103180Y-2905370D03*
X-19105720Y-2907910D03*
X-19108260Y-2910450D03*
X-19153980Y-2956170D03*
X-19156520Y-2958710D03*
X-19159060Y-2961250D03*
X-19161600Y-2963790D03*
X-19164140Y-2966330D03*
X-19166680Y-2968870D03*
X-19169220Y-2971410D03*
X-19171760Y-2973950D03*
X-19174300Y-2976490D03*
X-19176840Y-2979030D03*
X-19179380Y-2981570D03*
X-19181920Y-2984110D03*
X-19184460Y-2986650D03*
X-19187000Y-2989190D03*
X-19189540Y-2991730D03*
X-19192080Y-2994270D03*
X-19194620Y-2996810D03*
X-19197160Y-2999350D03*
X-19199700Y-3001890D03*
X-19202240Y-3004430D03*
X-19204780Y-3006970D03*
X-19207320Y-3009510D03*
X-19209860Y-3012050D03*
X-19212400Y-3014590D03*
X-19214940Y-3017130D03*
X-19217480Y-3019670D03*
X-19220020Y-3022210D03*
X-19225100Y-3027290D03*
X-19227640Y-3029830D03*
X-19235260Y-3037450D03*
X-19237800Y-3039990D03*
X-19072700Y-2483730D03*
X-19085400Y-2471030D03*
X-19093020Y-2463410D03*
X-19095560Y-2460870D03*
X-19148900Y-2407530D03*
X-19151440Y-2404990D03*
X-19153980Y-2402450D03*
X-19156520Y-2399910D03*
X-19159060Y-2397370D03*
X-19212400Y-2344030D03*
X-19214940Y-2341490D03*
X-19217480Y-2338950D03*
X-19220020Y-2336410D03*
X-19222560Y-2333870D03*
X-19225100Y-2331330D03*
X-19227640Y-2328790D03*
X-19230180Y-2326250D03*
X-19232720Y-2323710D03*
X-19235260Y-2321170D03*
X-19237800Y-2318630D03*
X-19240340Y-2316090D03*
X-19242880Y-2313550D03*
X-19245420Y-2311010D03*
X-19247960Y-2308470D03*
X-19250500Y-2305930D03*
X-19253040Y-2303390D03*
X-19255580Y-2300850D03*
X-19258120Y-2298310D03*
X-19260660Y-2295770D03*
X-19263200Y-2293230D03*
X-19265740Y-2290690D03*
X-19268280Y-2288150D03*
X-19270820Y-2285610D03*
X-19273360Y-2283070D03*
X-19275900Y-2280530D03*
X-19278440Y-2277990D03*
X-19280980Y-2275450D03*
X-19283520Y-2272910D03*
X-19286060Y-2270370D03*
X-19288600Y-2267830D03*
X-19291140Y-2265290D03*
X-19293680Y-2262750D03*
X-19296220Y-2260210D03*
X-19298760Y-2257670D03*
X-19301300Y-2255130D03*
X-19303840Y-2252590D03*
X-19306380Y-2250050D03*
X-19308920Y-2247510D03*
X-19311460Y-2244970D03*
X-19314000Y-2242430D03*
X-19316540Y-2239890D03*
X-19319080Y-2237350D03*
X-19164140Y-2229730D03*
X-19080320D03*
Y-2227190D03*
Y-2224650D03*
Y-2222110D03*
Y-2219570D03*
Y-2217030D03*
Y-2214490D03*
Y-2232270D03*
Y-2234810D03*
Y-2237350D03*
Y-2239890D03*
Y-2143370D03*
Y-2140830D03*
Y-2138290D03*
Y-2135750D03*
Y-2133210D03*
Y-2130670D03*
Y-2128130D03*
X-18394520Y-2189090D03*
D200*
X-18397060Y-2196710D03*
X-18404680Y-2204330D03*
X-18407220Y-2206870D03*
X-18412300Y-2209410D03*
Y-2211950D03*
X-18414840Y-2214490D03*
X-18417380Y-2217030D03*
X-18422460Y-2222110D03*
X-18425000Y-2224650D03*
X-18427540Y-2227190D03*
X-18430080Y-2229730D03*
X-18432620Y-2232270D03*
X-18435160Y-2234810D03*
X-18437700Y-2237350D03*
X-18440240Y-2239890D03*
X-18442780Y-2242430D03*
X-18445320Y-2244970D03*
X-18447860Y-2247510D03*
X-18450400Y-2250050D03*
X-18452940Y-2252590D03*
X-18455480Y-2255130D03*
X-18458020Y-2257670D03*
X-18460560Y-2260210D03*
X-18463100Y-2262750D03*
X-18465640Y-2265290D03*
X-18468180Y-2267830D03*
X-18470720Y-2270370D03*
X-18473260Y-2272910D03*
X-18475800Y-2275450D03*
X-18478340Y-2277990D03*
X-18480880Y-2280530D03*
X-18483420Y-2283070D03*
X-18485960Y-2285610D03*
X-18488500Y-2288150D03*
X-18491040Y-2290690D03*
X-18493580Y-2293230D03*
X-18496120Y-2295770D03*
X-18498660Y-2298310D03*
X-18501200Y-2300850D03*
X-18503740Y-2303390D03*
X-18506280Y-2305930D03*
X-18508820Y-2308470D03*
X-18511360Y-2311010D03*
X-18513900Y-2313550D03*
X-18516440Y-2316090D03*
X-18518980Y-2318630D03*
X-18521520Y-2321170D03*
X-18524060Y-2323710D03*
X-18526600Y-2326250D03*
X-18529140Y-2328790D03*
X-18531680Y-2331330D03*
X-18618040Y-2417690D03*
X-18620580Y-2420230D03*
X-18676460Y-2476110D03*
X-18727260Y-2526910D03*
X-18826320Y-2628510D03*
X-18828860Y-2631050D03*
X-18877120Y-2676770D03*
X-18879660Y-2681850D03*
X-18661220Y-2892670D03*
X-18648520Y-2915530D03*
X-18750120Y-3004430D03*
X-18752660Y-3006970D03*
Y-3009510D03*
X-18755200Y-3012050D03*
X-18679000Y-3088250D03*
X-18600260Y-3090790D03*
X-18597720Y-3088250D03*
X-19100640Y-2900290D03*
X-19113340Y-2918070D03*
X-19161600Y-2392290D03*
X-19164140Y-2389750D03*
X-19161600Y-2227190D03*
X-19080320Y-2242430D03*
D201*
X-18921570Y-3083170D03*
X-18919030Y-3085710D03*
Y-3088250D03*
D202*
X-18922840Y-3080630D03*
Y-3078090D03*
D203*
X-18679000Y-3080630D03*
X-18666300Y-2879970D03*
X-18879660Y-2689470D03*
X-18877120Y-2669150D03*
X-19093020Y-2885050D03*
X-19118420Y-2930770D03*
X-19136200Y-2432930D03*
Y-2430390D03*
X-19171760Y-2374510D03*
X-18643440Y-2204330D03*
X-18562160Y-2206870D03*
X-18610420Y-2402450D03*
D204*
X-18924110Y-3070470D03*
Y-3073010D03*
Y-3075550D03*
D205*
X-18731070Y-2989190D03*
X-18677730Y-3075550D03*
X-18639630Y-2935850D03*
X-18670110Y-2872350D03*
X-19089210Y-2877430D03*
X-19122230Y-2938390D03*
X-19132390Y-2438010D03*
X-19175570Y-2366890D03*
X-18654870Y-2196710D03*
X-18583750Y-2288150D03*
X-18606610Y-2394830D03*
D206*
X-18605340Y-2392290D03*
X-18661220Y-2194170D03*
X-18877120Y-2664070D03*
X-18879660Y-2694550D03*
X-18671380Y-2869810D03*
X-18638360Y-2938390D03*
X-18679000Y-3027290D03*
Y-3073010D03*
X-19087940Y-2874890D03*
X-19123500Y-2940930D03*
X-19131120Y-2443090D03*
Y-2440550D03*
X-19176840Y-2364350D03*
D207*
X-19178110Y-2361810D03*
X-19180650Y-2359270D03*
X-19129850Y-2445630D03*
X-19124770Y-2943470D03*
X-18677730Y-3029830D03*
Y-3032370D03*
Y-3070470D03*
X-18672650Y-2867270D03*
X-18604070Y-2389750D03*
D208*
X-18601530Y-2384670D03*
X-18675190Y-2862190D03*
X-18677730Y-3037450D03*
Y-3039990D03*
Y-3062850D03*
Y-3065390D03*
X-19086670Y-2869810D03*
X-19124770Y-2453250D03*
X-19127310Y-2448170D03*
X-19183190Y-2354190D03*
D209*
X-19184460Y-2351650D03*
X-19126040Y-2450710D03*
X-19123500Y-2455790D03*
X-18877120Y-2658990D03*
X-18879660Y-2699630D03*
X-18676460Y-2859650D03*
X-18679000Y-3042530D03*
Y-3045070D03*
Y-3047610D03*
Y-3050150D03*
Y-3052690D03*
Y-3055230D03*
Y-3057770D03*
Y-3060310D03*
X-19085400Y-2867270D03*
X-19126040Y-2948550D03*
X-18600260Y-2382130D03*
X-18671380Y-2189090D03*
D210*
X-18639630Y-2206870D03*
X-18611690Y-2404990D03*
X-18665030Y-2882510D03*
X-18642170Y-2928230D03*
X-18677730Y-3019670D03*
X-19094290Y-2887590D03*
X-19117150Y-2928230D03*
X-19137470Y-2427850D03*
X-19140010Y-2425310D03*
X-19170490Y-2377050D03*
X-19178110Y-2288150D03*
X-19150170Y-2214490D03*
X-19147630Y-2211950D03*
D211*
X-19167950Y-2382130D03*
X-19142550Y-2420230D03*
Y-2422770D03*
X-19096830Y-2892670D03*
X-19114610Y-2923150D03*
X-18743770Y-2996810D03*
X-18677730Y-3017130D03*
X-18644710Y-2923150D03*
Y-2920610D03*
X-18665030Y-2885050D03*
X-18624390Y-2427850D03*
X-18614230Y-2410070D03*
D212*
X-18595180Y-2371970D03*
X-18877120Y-2653910D03*
X-18879660Y-2704710D03*
X-18582480Y-3004430D03*
X-18579940Y-3006970D03*
X-18577400Y-3009510D03*
D213*
X-18595180Y-2994270D03*
X-18879660Y-2707250D03*
X-18877120Y-2651370D03*
X-18686620Y-2184010D03*
D214*
X-18737420Y-2156070D03*
X-19110800Y-2199250D03*
X-18600260Y-2991730D03*
D215*
X-18605340Y-2989190D03*
X-18651060Y-2943470D03*
X-18572320Y-2242430D03*
Y-2239890D03*
X-18734880Y-2158610D03*
X-19113340Y-2204330D03*
D216*
X-18658680Y-2986650D03*
D217*
X-18659950Y-2984110D03*
D218*
Y-2981570D03*
X-19030790Y-2176390D03*
D219*
X-19028250Y-2173850D03*
X-18659950Y-2979030D03*
D220*
Y-2976490D03*
D221*
Y-2973950D03*
X-18858070Y-2206870D03*
Y-2204330D03*
Y-2201790D03*
Y-2199250D03*
Y-2196710D03*
Y-2194170D03*
Y-2191630D03*
Y-2189090D03*
Y-2186550D03*
D222*
X-18590100Y-2445630D03*
X-18658680Y-2961250D03*
D223*
Y-2958710D03*
X-18587560Y-2440550D03*
D224*
X-18597720Y-2377050D03*
X-18877120Y-2656450D03*
X-18879660Y-2702170D03*
X-19082860Y-2862190D03*
X-19128580Y-2953630D03*
X-19187000Y-2346570D03*
D225*
X-19185730Y-2349110D03*
X-19122230Y-2458330D03*
X-19084130Y-2864730D03*
X-19127310Y-2951090D03*
X-18598990Y-2379590D03*
D226*
X-18595180Y-2211950D03*
X-18722180Y-2171310D03*
X-18656140Y-2951090D03*
D227*
X-18654870Y-2948550D03*
X-18583750Y-2222110D03*
X-18586290Y-2219570D03*
D228*
X-18841560Y-2524370D03*
D229*
X-18809810Y-2521830D03*
D230*
X-18808540Y-2519290D03*
D231*
X-18807270Y-2516750D03*
D232*
X-18806000Y-2514210D03*
D233*
X-18804730Y-2511670D03*
D234*
X-18803460Y-2509130D03*
D235*
X-18802190Y-2506590D03*
D236*
X-18831400Y-2504050D03*
Y-2501510D03*
Y-2498970D03*
Y-2496430D03*
Y-2493890D03*
Y-2491350D03*
Y-2488810D03*
Y-2486270D03*
Y-2483730D03*
Y-2481190D03*
Y-2478650D03*
Y-2476110D03*
Y-2473570D03*
Y-2471030D03*
Y-2468490D03*
Y-2465950D03*
Y-2463410D03*
Y-2460870D03*
X-18600260Y-2465950D03*
Y-2468490D03*
X-18859340Y-2123050D03*
X-19019360Y-2163690D03*
D237*
X-19021900Y-2166230D03*
X-18859340Y-2135750D03*
Y-2133210D03*
Y-2130670D03*
X-18856800Y-2209410D03*
X-18602800Y-2471030D03*
D238*
X-18597720Y-2460870D03*
X-19016820Y-2161150D03*
Y-2158610D03*
X-19014280Y-2156070D03*
D239*
X-18595180Y-2455790D03*
D240*
X-18592640Y-2450710D03*
D241*
X-18585020Y-2435470D03*
D242*
X-18576130Y-2369430D03*
Y-2366890D03*
Y-2364350D03*
Y-2361810D03*
Y-2359270D03*
Y-2356730D03*
Y-2354190D03*
Y-2351650D03*
Y-2349110D03*
Y-2346570D03*
Y-2344030D03*
Y-2341490D03*
Y-2338950D03*
Y-2336410D03*
Y-2333870D03*
X-18588830Y-2217030D03*
X-18591370Y-2214490D03*
D243*
X-18879660Y-2285610D03*
D244*
X-18878390Y-2283070D03*
D245*
X-18875850Y-2280530D03*
D246*
X-18874580Y-2277990D03*
D247*
X-18873310Y-2275450D03*
D248*
X-18872040Y-2272910D03*
Y-2270370D03*
D249*
X-18870770Y-2267830D03*
D250*
X-18869500Y-2265290D03*
Y-2262750D03*
D251*
X-18868230Y-2260210D03*
Y-2257670D03*
Y-2255130D03*
D252*
X-18866960Y-2252590D03*
Y-2250050D03*
Y-2247510D03*
Y-2244970D03*
D253*
X-19114610Y-2206870D03*
X-18573590Y-2237350D03*
D254*
X-18574860Y-2234810D03*
X-18732340Y-2161150D03*
D255*
X-18729800Y-2163690D03*
X-18579940Y-2227190D03*
X-18577400Y-2229730D03*
D256*
X-18582480Y-2224650D03*
X-18727260Y-2166230D03*
D257*
X-19109530Y-2196710D03*
D258*
X-19033330Y-2181470D03*
D259*
X-19032060Y-2178930D03*
D260*
X-19026980Y-2171310D03*
D261*
X-19024440Y-2168770D03*
X-18856800Y-2138290D03*
D262*
X-18897440Y-2153530D03*
D263*
X-18875850Y-2145910D03*
D264*
X-18864420Y-2143370D03*
D265*
X-18849180Y-2140830D03*
D266*
X-18369120Y-2138290D03*
D146*
X-17689670Y-5272421D03*
D267*
X-14288432Y-5373158D03*
M02*
