%
M48
M72
T01C0.01181
T02C0.01969
T03C0.02200
T04C0.03346
T05C0.03937
T06C0.04000
T07C0.05906
T08C0.11024
T09C0.12598
T10C0.12992
%
T01
X22550Y98800
X22550Y103800
X43800Y101300
X63800Y126300
X71300Y131300
X80503Y137097
X88932Y130182
X91168Y132418
X95182Y135182
X97418Y137418
X101925Y146300
X108932Y138932
X111168Y141168
X115050Y152550
X117550Y156300
X112550Y160050
X117550Y163800
X115050Y168800
X99425Y178800
X96300Y168800
X93800Y166300
X85050Y167550
X81526Y178800
X78574Y178800
X76300Y181300
X70050Y178800
X71300Y170050
X76300Y158800
X75050Y152550
X86300Y151300
X95050Y153800
X85050Y180050
X91300Y187550
X91300Y192550
X70050Y192550
X66300Y195050
X62550Y196300
X56300Y196300
X56300Y181300
X58800Y173800
X58800Y166300
X58800Y161925
X58800Y158800
X58800Y151300
X55050Y142550
X51300Y140050
X42550Y152550
X53800Y167550
X38800Y171300
X33800Y171300
X46300Y181300
X41300Y196300
X55050Y213800
X66300Y209550
X83500Y213175
X83500Y218800
X82550Y241300
X77550Y242550
X71300Y251300
X58800Y243175
X57550Y238800
X53800Y243175
X62550Y238800
X58800Y259425
X53800Y259425
X62550Y282550
X80050Y281300
X86925Y260050
X86925Y255050
X95050Y250050
X96800Y241300
X120050Y196300
X138800Y192550
X138800Y183800
X138800Y177550
X138800Y171300
X138800Y166300
X138800Y160050
X138800Y153800
X127550Y146300
X127550Y140050
X127550Y133800
X146300Y123800
X155050Y142550
X167550Y160050
X171300Y162550
X175050Y172550
X177300Y176300
X176300Y181300
X176300Y193800
X176300Y196300
X176300Y198800
X168800Y196300
X160050Y186300
X155050Y168800
X190050Y168800
X202550Y173800
X213800Y172550
X215050Y169213
X213800Y176300
X220050Y187550
X226300Y187550
X230050Y187550
X243800Y190050
X247550Y192550
X250050Y186300
X250050Y181300
X247550Y177300
X251300Y175050
X248800Y172550
X248800Y167550
X238800Y165670
X233800Y165050
X226300Y151300
X215050Y143800
X211300Y141300
X203800Y138800
X196300Y145050
X192550Y145050
X198800Y148800
X212550Y158800
X217550Y136300
X215050Y133800
X215050Y128800
X205050Y128800
X205050Y116300
X198800Y115050
X183668Y117418
X181432Y115182
X176168Y115182
X173932Y117418
X172550Y128800
X180050Y128800
X181300Y102550
X185050Y102550
X175050Y102550
X180050Y93800
X161300Y91300
X161300Y97550
X155050Y68800
X147550Y68800
X118800Y66925
X113800Y82550
X100050Y87550
X78800Y103175
X73800Y103175
X82550Y120800
X27550Y138800
X22550Y138800
X145050Y21300
X182219Y70050
X185381Y70050
X192219Y72550
X195381Y72550
X200969Y82550
X204131Y82550
X217550Y93800
X223800Y101300
X228800Y113800
X232550Y116300
X235050Y113800
X243800Y115050
X253800Y115050
X260050Y113800
X263800Y113800
X266300Y117550
X269300Y116800
X270050Y113800
X267300Y102550
X263800Y101300
X260050Y102550
X256300Y98800
X268800Y96300
X242550Y90050
X218800Y66300
X216300Y57550
X212550Y53800
X202550Y42550
X247550Y43800
X247550Y36300
X247550Y28800
X247550Y21300
X318800Y78800
X318800Y82550
X318800Y86300
X318800Y90050
X330900Y119200
X330700Y128800
X328800Y136300
X331300Y142550
X322550Y151300
X320050Y155050
X317550Y147550
X315050Y140050
X336300Y158800
X340050Y163800
X332550Y167550
X290050Y132550
X286300Y132550
X282550Y138800
X285050Y156300
X275050Y160050
X267550Y168800
X267550Y176300
X258800Y175050
X258800Y168800
X258800Y161300
X247550Y151300
X247550Y147550
X247550Y143800
X261300Y127550
X230050Y131300
X228800Y127550
X225050Y127550
X225050Y133800
X222550Y136300
X212550Y117550
X215050Y115050
X218800Y115050
X275050Y185050
X273800Y195050
X270050Y198800
X260050Y192550
X268800Y212550
X261300Y215050
X261300Y227550
X268800Y227550
X273800Y223800
X280050Y213800
X285050Y192550
X238800Y203800
X232550Y208800
X221300Y206300
X220050Y213800
X220050Y217550
X217550Y226300
X221300Y241300
X228800Y241300
X236300Y240050
X240050Y241300
X250050Y241300
X260050Y241300
X262550Y243800
X264000Y241100
X272550Y251300
X265050Y261300
X268550Y266800
X272550Y266800
X276300Y266800
X280050Y278800
X262550Y278800
X257550Y275050
X256300Y266800
X251300Y266800
X261300Y266800
X253800Y255050
X248800Y255050
X242550Y257550
X241300Y261300
X237550Y277550
X261300Y290050
X266300Y290050
X273800Y300050
X277550Y300050
X267550Y305050
X272442Y313347
X275394Y313347
X275394Y316300
X272442Y316300
X272442Y319253
X275394Y319253
X278347Y319253
X278347Y316300
X278347Y313347
X281300Y313347
X284253Y313347
X287206Y313347
X290158Y313347
X290158Y316300
X287206Y316300
X287206Y319253
X290158Y319253
X284253Y319253
X284253Y316300
X281300Y316300
X281300Y319253
X280050Y330050
X272550Y331300
X268800Y331300
X266300Y327550
X261300Y318800
X258800Y313800
X266300Y315550
X251300Y306300
X230787Y309537
X231300Y313800
X221300Y328800
X190050Y313800
X190050Y308800
X190050Y303800
X193800Y260050
X196300Y242550
X198800Y238800
X201300Y241300
X211300Y241300
X200050Y227550
X197550Y225050
X187550Y227550
X180050Y227550
X175050Y227550
X176300Y241300
X187550Y241300
X191300Y241300
X185050Y212550
X190050Y210050
X197550Y208800
X197550Y201300
X191300Y201300
X191300Y193800
X176700Y208800
X156300Y223800
X157550Y242550
X150050Y252550
X103800Y306300
X103800Y326300
X100050Y337550
X101300Y343800
X100050Y351300
X111300Y342550
X121300Y343800
X122550Y351300
X122550Y337550
X87550Y337550
X86300Y343800
X87550Y351300
X76300Y342550
X66300Y343800
X65050Y351300
X65050Y337550
X68800Y326300
X68800Y306300
X208800Y190050
X283800Y248800
X285050Y255050
X311300Y278800
X311300Y292550
X299200Y295050
X301300Y312550
X316300Y315050
X338800Y287550
X336300Y282550
X332550Y285050
X287550Y341300
X281300Y346300
X268800Y345050
T02
X227776Y10237
X222776Y10237
X217776Y10237
X212776Y10237
X207776Y10237
X202776Y10237
X197776Y10237
X192776Y10237
T03
X111300Y333800
X76300Y333800
T04
X216457Y334961
X222363Y345591
X230237Y345591
X236143Y334961
T05
X240080Y345591
X212520Y345591
X162343Y236772
X143150Y217580
X143150Y139036
X162343Y110788
X105828Y41143
X105828Y31300
X105828Y21457
X48741Y21457
X48741Y41143
X280257Y110788
X318347Y68505
X346615Y76457
X346615Y96143
X366300Y105985
X366300Y125670
X346615Y115828
X366300Y86300
X366300Y66615
X346615Y56772
X318347Y29135
X346615Y226772
X346615Y246457
X366300Y236615
X366300Y256300
X366300Y275985
X346615Y266143
X346615Y285828
X366300Y295670
X280257Y236772
T06
X236300Y286300
X236300Y296300
X214922Y295237
X207048Y295237
X199174Y295237
X199174Y287363
X191300Y287363
X183426Y287363
X183426Y295237
X191300Y295237
X175552Y295237
X175552Y287363
X167678Y287363
X167678Y295237
X207048Y287363
X214922Y287363
X333800Y36300
X343800Y36300
X343800Y26300
X343800Y16300
X333800Y16300
X333800Y26300
T07
X274450Y118662
X168150Y118662
X135276Y144843
X135276Y211772
X168150Y244646
X274450Y244646
T08
X76300Y31300
T09
X21300Y21300
X134686Y111379
X134686Y245237
X21300Y333800
X307914Y245237
X368800Y333800
X307914Y111379
X368800Y21300
T10
X374750Y151300
X374750Y201300
M30
