G75*
%MOIN*%
%OFA0B0*%
%FSLAX25Y25*%
%IPPOS*%
%LPD*%
%AMOC8*
5,1,8,0,0,1.08239X$1,22.5*
%
%ADD10C,0.00600*%
%ADD11C,0.23591*%
%ADD12R,0.03346X0.04134*%
%ADD13C,0.00197*%
%ADD14C,0.05591*%
%ADD15C,0.00509*%
%ADD16R,0.06591X0.17591*%
%ADD17C,0.06299*%
%ADD18OC8,0.07677*%
%ADD19R,0.05512X0.05512*%
%ADD20R,0.08191X0.08191*%
%ADD21OC8,0.08191*%
%ADD22C,0.04331*%
%ADD23OC8,0.07480*%
%ADD24C,0.07480*%
%ADD25C,0.04921*%
%ADD26R,0.04134X0.03346*%
%ADD27C,0.00000*%
%ADD28C,0.06496*%
%ADD29C,0.09252*%
%ADD30C,0.04134*%
%ADD31C,0.07992*%
%ADD32R,0.06102X0.04528*%
%ADD33R,0.04921X0.04528*%
%ADD34C,0.00667*%
%ADD35R,0.05709X0.06496*%
%ADD36R,0.06496X0.05709*%
%ADD37R,0.08465X0.03740*%
%ADD38R,0.04528X0.04921*%
%ADD39C,0.00394*%
%ADD40C,0.00620*%
%ADD41C,0.03346*%
%ADD42R,0.06165X0.06165*%
%ADD43OC8,0.06165*%
%ADD44R,0.01575X0.04921*%
%ADD45R,0.04921X0.01575*%
%ADD46R,0.06890X0.07689*%
%ADD47C,0.00190*%
%ADD48C,0.00150*%
%ADD49C,0.02598*%
%ADD50C,0.15157*%
%ADD51C,0.02953*%
D10*
X0001300Y0001300D02*
X0388800Y0001300D01*
X0388800Y0353800D01*
X0001300Y0353800D01*
X0001300Y0001300D01*
D11*
X0021300Y0021300D03*
X0134686Y0111379D03*
X0134686Y0245237D03*
X0021300Y0333800D03*
X0307914Y0245237D03*
X0368800Y0333800D03*
X0307914Y0111379D03*
X0368800Y0021300D03*
D12*
X0338859Y0056300D03*
X0333741Y0056300D03*
X0333741Y0066300D03*
X0338859Y0066300D03*
X0338859Y0076300D03*
X0333741Y0076300D03*
X0333741Y0086300D03*
X0338859Y0086300D03*
X0338859Y0096300D03*
X0333741Y0096300D03*
X0333741Y0106300D03*
X0338859Y0106300D03*
X0338859Y0116300D03*
X0333741Y0116300D03*
X0333741Y0126300D03*
X0338859Y0126300D03*
X0258859Y0178800D03*
X0258859Y0183800D03*
X0258859Y0188800D03*
X0253741Y0188800D03*
X0253741Y0183800D03*
X0253741Y0178800D03*
X0243859Y0208800D03*
X0238741Y0208800D03*
X0198859Y0178800D03*
X0198859Y0173800D03*
X0198859Y0168800D03*
X0198859Y0163800D03*
X0193741Y0163800D03*
X0193741Y0168800D03*
X0193741Y0173800D03*
X0193741Y0178800D03*
X0206241Y0148800D03*
X0211359Y0148800D03*
X0133859Y0041300D03*
X0128741Y0041300D03*
X0128741Y0021300D03*
X0133859Y0021300D03*
X0184366Y0021300D03*
X0189484Y0021300D03*
X0196866Y0021300D03*
X0201984Y0021300D03*
X0209366Y0021300D03*
X0214484Y0021300D03*
X0221866Y0021300D03*
X0226984Y0021300D03*
X0078859Y0127550D03*
X0073741Y0127550D03*
X0053859Y0181300D03*
X0048741Y0181300D03*
X0088741Y0241300D03*
X0093859Y0241300D03*
X0258741Y0306300D03*
X0263859Y0306300D03*
X0333741Y0276300D03*
X0338859Y0276300D03*
X0338859Y0266300D03*
X0333741Y0266300D03*
X0333741Y0256300D03*
X0338859Y0256300D03*
X0338859Y0246300D03*
X0333741Y0246300D03*
X0333741Y0236300D03*
X0338859Y0236300D03*
X0338859Y0226300D03*
X0333741Y0226300D03*
X0063859Y0041300D03*
X0058741Y0041300D03*
D13*
X0076841Y0184105D02*
X0076841Y0185877D01*
X0081173Y0185877D01*
X0081173Y0184105D01*
X0076841Y0184105D01*
X0076841Y0184301D02*
X0081173Y0184301D01*
X0081173Y0184497D02*
X0076841Y0184497D01*
X0076841Y0184693D02*
X0081173Y0184693D01*
X0081173Y0184889D02*
X0076841Y0184889D01*
X0076841Y0185085D02*
X0081173Y0185085D01*
X0081173Y0185281D02*
X0076841Y0185281D01*
X0076841Y0185477D02*
X0081173Y0185477D01*
X0081173Y0185673D02*
X0076841Y0185673D01*
X0076841Y0185869D02*
X0081173Y0185869D01*
X0076841Y0186664D02*
X0076841Y0188436D01*
X0081173Y0188436D01*
X0081173Y0186664D01*
X0076841Y0186664D01*
X0076841Y0186860D02*
X0081173Y0186860D01*
X0081173Y0187056D02*
X0076841Y0187056D01*
X0076841Y0187252D02*
X0081173Y0187252D01*
X0081173Y0187448D02*
X0076841Y0187448D01*
X0076841Y0187644D02*
X0081173Y0187644D01*
X0081173Y0187840D02*
X0076841Y0187840D01*
X0076841Y0188036D02*
X0081173Y0188036D01*
X0081173Y0188232D02*
X0076841Y0188232D01*
X0076841Y0188428D02*
X0081173Y0188428D01*
X0076841Y0189223D02*
X0076841Y0190995D01*
X0081173Y0190995D01*
X0081173Y0189223D01*
X0076841Y0189223D01*
X0076841Y0189419D02*
X0081173Y0189419D01*
X0081173Y0189615D02*
X0076841Y0189615D01*
X0076841Y0189811D02*
X0081173Y0189811D01*
X0081173Y0190007D02*
X0076841Y0190007D01*
X0076841Y0190203D02*
X0081173Y0190203D01*
X0081173Y0190399D02*
X0076841Y0190399D01*
X0076841Y0190595D02*
X0081173Y0190595D01*
X0081173Y0190791D02*
X0076841Y0190791D01*
X0076841Y0190987D02*
X0081173Y0190987D01*
X0083927Y0190995D02*
X0083927Y0189223D01*
X0083927Y0190995D02*
X0088259Y0190995D01*
X0088259Y0189223D01*
X0083927Y0189223D01*
X0083927Y0189419D02*
X0088259Y0189419D01*
X0088259Y0189615D02*
X0083927Y0189615D01*
X0083927Y0189811D02*
X0088259Y0189811D01*
X0088259Y0190007D02*
X0083927Y0190007D01*
X0083927Y0190203D02*
X0088259Y0190203D01*
X0088259Y0190399D02*
X0083927Y0190399D01*
X0083927Y0190595D02*
X0088259Y0190595D01*
X0088259Y0190791D02*
X0083927Y0190791D01*
X0083927Y0190987D02*
X0088259Y0190987D01*
X0083927Y0188436D02*
X0083927Y0186664D01*
X0083927Y0188436D02*
X0088259Y0188436D01*
X0088259Y0186664D01*
X0083927Y0186664D01*
X0083927Y0186860D02*
X0088259Y0186860D01*
X0088259Y0187056D02*
X0083927Y0187056D01*
X0083927Y0187252D02*
X0088259Y0187252D01*
X0088259Y0187448D02*
X0083927Y0187448D01*
X0083927Y0187644D02*
X0088259Y0187644D01*
X0088259Y0187840D02*
X0083927Y0187840D01*
X0083927Y0188036D02*
X0088259Y0188036D01*
X0088259Y0188232D02*
X0083927Y0188232D01*
X0083927Y0188428D02*
X0088259Y0188428D01*
X0083927Y0185877D02*
X0083927Y0184105D01*
X0083927Y0185877D02*
X0088259Y0185877D01*
X0088259Y0184105D01*
X0083927Y0184105D01*
X0083927Y0184301D02*
X0088259Y0184301D01*
X0088259Y0184497D02*
X0083927Y0184497D01*
X0083927Y0184693D02*
X0088259Y0184693D01*
X0088259Y0184889D02*
X0083927Y0184889D01*
X0083927Y0185085D02*
X0088259Y0185085D01*
X0088259Y0185281D02*
X0083927Y0185281D01*
X0083927Y0185477D02*
X0088259Y0185477D01*
X0088259Y0185673D02*
X0083927Y0185673D01*
X0083927Y0185869D02*
X0088259Y0185869D01*
D14*
X0076300Y0333800D03*
X0111300Y0333800D03*
D15*
X0113591Y0335630D02*
X0113591Y0343712D01*
X0113591Y0335630D02*
X0109009Y0335630D01*
X0109009Y0343712D01*
X0113591Y0343712D01*
X0113591Y0336138D02*
X0109009Y0336138D01*
X0109009Y0336646D02*
X0113591Y0336646D01*
X0113591Y0337154D02*
X0109009Y0337154D01*
X0109009Y0337662D02*
X0113591Y0337662D01*
X0113591Y0338170D02*
X0109009Y0338170D01*
X0109009Y0338678D02*
X0113591Y0338678D01*
X0113591Y0339186D02*
X0109009Y0339186D01*
X0109009Y0339694D02*
X0113591Y0339694D01*
X0113591Y0340202D02*
X0109009Y0340202D01*
X0109009Y0340710D02*
X0113591Y0340710D01*
X0113591Y0341218D02*
X0109009Y0341218D01*
X0109009Y0341726D02*
X0113591Y0341726D01*
X0113591Y0342234D02*
X0109009Y0342234D01*
X0109009Y0342742D02*
X0113591Y0342742D01*
X0113591Y0343250D02*
X0109009Y0343250D01*
X0078591Y0343712D02*
X0078591Y0335630D01*
X0074009Y0335630D01*
X0074009Y0343712D01*
X0078591Y0343712D01*
X0078591Y0336138D02*
X0074009Y0336138D01*
X0074009Y0336646D02*
X0078591Y0336646D01*
X0078591Y0337154D02*
X0074009Y0337154D01*
X0074009Y0337662D02*
X0078591Y0337662D01*
X0078591Y0338170D02*
X0074009Y0338170D01*
X0074009Y0338678D02*
X0078591Y0338678D01*
X0078591Y0339186D02*
X0074009Y0339186D01*
X0074009Y0339694D02*
X0078591Y0339694D01*
X0078591Y0340202D02*
X0074009Y0340202D01*
X0074009Y0340710D02*
X0078591Y0340710D01*
X0078591Y0341218D02*
X0074009Y0341218D01*
X0074009Y0341726D02*
X0078591Y0341726D01*
X0078591Y0342234D02*
X0074009Y0342234D01*
X0074009Y0342742D02*
X0078591Y0342742D01*
X0078591Y0343250D02*
X0074009Y0343250D01*
D16*
X0066300Y0344550D03*
X0086300Y0344550D03*
X0101300Y0344550D03*
X0121300Y0344550D03*
D17*
X0216457Y0334961D03*
X0236143Y0334961D03*
D18*
X0240080Y0345591D03*
X0212520Y0345591D03*
D19*
X0222363Y0345591D03*
X0230237Y0345591D03*
D20*
X0346615Y0226772D03*
X0346615Y0056772D03*
D21*
X0366300Y0066615D03*
X0366300Y0086300D03*
X0346615Y0076457D03*
X0346615Y0096143D03*
X0366300Y0105985D03*
X0366300Y0125670D03*
X0346615Y0115828D03*
X0366300Y0236615D03*
X0346615Y0246457D03*
X0366300Y0256300D03*
X0366300Y0275985D03*
X0346615Y0266143D03*
X0346615Y0285828D03*
X0366300Y0295670D03*
D22*
X0342260Y0343800D02*
X0342262Y0343893D01*
X0342268Y0343985D01*
X0342278Y0344077D01*
X0342292Y0344168D01*
X0342309Y0344259D01*
X0342331Y0344349D01*
X0342356Y0344438D01*
X0342385Y0344526D01*
X0342418Y0344612D01*
X0342455Y0344697D01*
X0342495Y0344781D01*
X0342539Y0344862D01*
X0342586Y0344942D01*
X0342636Y0345020D01*
X0342690Y0345095D01*
X0342747Y0345168D01*
X0342807Y0345238D01*
X0342870Y0345306D01*
X0342936Y0345371D01*
X0343004Y0345433D01*
X0343075Y0345493D01*
X0343149Y0345549D01*
X0343225Y0345602D01*
X0343303Y0345651D01*
X0343383Y0345698D01*
X0343465Y0345740D01*
X0343549Y0345780D01*
X0343634Y0345815D01*
X0343721Y0345847D01*
X0343809Y0345876D01*
X0343898Y0345900D01*
X0343988Y0345921D01*
X0344079Y0345937D01*
X0344171Y0345950D01*
X0344263Y0345959D01*
X0344356Y0345964D01*
X0344448Y0345965D01*
X0344541Y0345962D01*
X0344633Y0345955D01*
X0344725Y0345944D01*
X0344816Y0345929D01*
X0344907Y0345911D01*
X0344997Y0345888D01*
X0345085Y0345862D01*
X0345173Y0345832D01*
X0345259Y0345798D01*
X0345343Y0345761D01*
X0345426Y0345719D01*
X0345507Y0345675D01*
X0345587Y0345627D01*
X0345664Y0345576D01*
X0345738Y0345521D01*
X0345811Y0345463D01*
X0345881Y0345403D01*
X0345948Y0345339D01*
X0346012Y0345273D01*
X0346074Y0345203D01*
X0346132Y0345132D01*
X0346187Y0345058D01*
X0346239Y0344981D01*
X0346288Y0344902D01*
X0346334Y0344822D01*
X0346376Y0344739D01*
X0346414Y0344655D01*
X0346449Y0344569D01*
X0346480Y0344482D01*
X0346507Y0344394D01*
X0346530Y0344304D01*
X0346550Y0344214D01*
X0346566Y0344123D01*
X0346578Y0344031D01*
X0346586Y0343939D01*
X0346590Y0343846D01*
X0346590Y0343754D01*
X0346586Y0343661D01*
X0346578Y0343569D01*
X0346566Y0343477D01*
X0346550Y0343386D01*
X0346530Y0343296D01*
X0346507Y0343206D01*
X0346480Y0343118D01*
X0346449Y0343031D01*
X0346414Y0342945D01*
X0346376Y0342861D01*
X0346334Y0342778D01*
X0346288Y0342698D01*
X0346239Y0342619D01*
X0346187Y0342542D01*
X0346132Y0342468D01*
X0346074Y0342397D01*
X0346012Y0342327D01*
X0345948Y0342261D01*
X0345881Y0342197D01*
X0345811Y0342137D01*
X0345738Y0342079D01*
X0345664Y0342024D01*
X0345587Y0341973D01*
X0345508Y0341925D01*
X0345426Y0341881D01*
X0345343Y0341839D01*
X0345259Y0341802D01*
X0345173Y0341768D01*
X0345085Y0341738D01*
X0344997Y0341712D01*
X0344907Y0341689D01*
X0344816Y0341671D01*
X0344725Y0341656D01*
X0344633Y0341645D01*
X0344541Y0341638D01*
X0344448Y0341635D01*
X0344356Y0341636D01*
X0344263Y0341641D01*
X0344171Y0341650D01*
X0344079Y0341663D01*
X0343988Y0341679D01*
X0343898Y0341700D01*
X0343809Y0341724D01*
X0343721Y0341753D01*
X0343634Y0341785D01*
X0343549Y0341820D01*
X0343465Y0341860D01*
X0343383Y0341902D01*
X0343303Y0341949D01*
X0343225Y0341998D01*
X0343149Y0342051D01*
X0343075Y0342107D01*
X0343004Y0342167D01*
X0342936Y0342229D01*
X0342870Y0342294D01*
X0342807Y0342362D01*
X0342747Y0342432D01*
X0342690Y0342505D01*
X0342636Y0342580D01*
X0342586Y0342658D01*
X0342539Y0342738D01*
X0342495Y0342819D01*
X0342455Y0342903D01*
X0342418Y0342988D01*
X0342385Y0343074D01*
X0342356Y0343162D01*
X0342331Y0343251D01*
X0342309Y0343341D01*
X0342292Y0343432D01*
X0342278Y0343523D01*
X0342268Y0343615D01*
X0342262Y0343707D01*
X0342260Y0343800D01*
X0376635Y0045050D02*
X0376637Y0045143D01*
X0376643Y0045235D01*
X0376653Y0045327D01*
X0376667Y0045418D01*
X0376684Y0045509D01*
X0376706Y0045599D01*
X0376731Y0045688D01*
X0376760Y0045776D01*
X0376793Y0045862D01*
X0376830Y0045947D01*
X0376870Y0046031D01*
X0376914Y0046112D01*
X0376961Y0046192D01*
X0377011Y0046270D01*
X0377065Y0046345D01*
X0377122Y0046418D01*
X0377182Y0046488D01*
X0377245Y0046556D01*
X0377311Y0046621D01*
X0377379Y0046683D01*
X0377450Y0046743D01*
X0377524Y0046799D01*
X0377600Y0046852D01*
X0377678Y0046901D01*
X0377758Y0046948D01*
X0377840Y0046990D01*
X0377924Y0047030D01*
X0378009Y0047065D01*
X0378096Y0047097D01*
X0378184Y0047126D01*
X0378273Y0047150D01*
X0378363Y0047171D01*
X0378454Y0047187D01*
X0378546Y0047200D01*
X0378638Y0047209D01*
X0378731Y0047214D01*
X0378823Y0047215D01*
X0378916Y0047212D01*
X0379008Y0047205D01*
X0379100Y0047194D01*
X0379191Y0047179D01*
X0379282Y0047161D01*
X0379372Y0047138D01*
X0379460Y0047112D01*
X0379548Y0047082D01*
X0379634Y0047048D01*
X0379718Y0047011D01*
X0379801Y0046969D01*
X0379882Y0046925D01*
X0379962Y0046877D01*
X0380039Y0046826D01*
X0380113Y0046771D01*
X0380186Y0046713D01*
X0380256Y0046653D01*
X0380323Y0046589D01*
X0380387Y0046523D01*
X0380449Y0046453D01*
X0380507Y0046382D01*
X0380562Y0046308D01*
X0380614Y0046231D01*
X0380663Y0046152D01*
X0380709Y0046072D01*
X0380751Y0045989D01*
X0380789Y0045905D01*
X0380824Y0045819D01*
X0380855Y0045732D01*
X0380882Y0045644D01*
X0380905Y0045554D01*
X0380925Y0045464D01*
X0380941Y0045373D01*
X0380953Y0045281D01*
X0380961Y0045189D01*
X0380965Y0045096D01*
X0380965Y0045004D01*
X0380961Y0044911D01*
X0380953Y0044819D01*
X0380941Y0044727D01*
X0380925Y0044636D01*
X0380905Y0044546D01*
X0380882Y0044456D01*
X0380855Y0044368D01*
X0380824Y0044281D01*
X0380789Y0044195D01*
X0380751Y0044111D01*
X0380709Y0044028D01*
X0380663Y0043948D01*
X0380614Y0043869D01*
X0380562Y0043792D01*
X0380507Y0043718D01*
X0380449Y0043647D01*
X0380387Y0043577D01*
X0380323Y0043511D01*
X0380256Y0043447D01*
X0380186Y0043387D01*
X0380113Y0043329D01*
X0380039Y0043274D01*
X0379962Y0043223D01*
X0379883Y0043175D01*
X0379801Y0043131D01*
X0379718Y0043089D01*
X0379634Y0043052D01*
X0379548Y0043018D01*
X0379460Y0042988D01*
X0379372Y0042962D01*
X0379282Y0042939D01*
X0379191Y0042921D01*
X0379100Y0042906D01*
X0379008Y0042895D01*
X0378916Y0042888D01*
X0378823Y0042885D01*
X0378731Y0042886D01*
X0378638Y0042891D01*
X0378546Y0042900D01*
X0378454Y0042913D01*
X0378363Y0042929D01*
X0378273Y0042950D01*
X0378184Y0042974D01*
X0378096Y0043003D01*
X0378009Y0043035D01*
X0377924Y0043070D01*
X0377840Y0043110D01*
X0377758Y0043152D01*
X0377678Y0043199D01*
X0377600Y0043248D01*
X0377524Y0043301D01*
X0377450Y0043357D01*
X0377379Y0043417D01*
X0377311Y0043479D01*
X0377245Y0043544D01*
X0377182Y0043612D01*
X0377122Y0043682D01*
X0377065Y0043755D01*
X0377011Y0043830D01*
X0376961Y0043908D01*
X0376914Y0043988D01*
X0376870Y0044069D01*
X0376830Y0044153D01*
X0376793Y0044238D01*
X0376760Y0044324D01*
X0376731Y0044412D01*
X0376706Y0044501D01*
X0376684Y0044591D01*
X0376667Y0044682D01*
X0376653Y0044773D01*
X0376643Y0044865D01*
X0376637Y0044957D01*
X0376635Y0045050D01*
X0042885Y0343800D02*
X0042887Y0343893D01*
X0042893Y0343985D01*
X0042903Y0344077D01*
X0042917Y0344168D01*
X0042934Y0344259D01*
X0042956Y0344349D01*
X0042981Y0344438D01*
X0043010Y0344526D01*
X0043043Y0344612D01*
X0043080Y0344697D01*
X0043120Y0344781D01*
X0043164Y0344862D01*
X0043211Y0344942D01*
X0043261Y0345020D01*
X0043315Y0345095D01*
X0043372Y0345168D01*
X0043432Y0345238D01*
X0043495Y0345306D01*
X0043561Y0345371D01*
X0043629Y0345433D01*
X0043700Y0345493D01*
X0043774Y0345549D01*
X0043850Y0345602D01*
X0043928Y0345651D01*
X0044008Y0345698D01*
X0044090Y0345740D01*
X0044174Y0345780D01*
X0044259Y0345815D01*
X0044346Y0345847D01*
X0044434Y0345876D01*
X0044523Y0345900D01*
X0044613Y0345921D01*
X0044704Y0345937D01*
X0044796Y0345950D01*
X0044888Y0345959D01*
X0044981Y0345964D01*
X0045073Y0345965D01*
X0045166Y0345962D01*
X0045258Y0345955D01*
X0045350Y0345944D01*
X0045441Y0345929D01*
X0045532Y0345911D01*
X0045622Y0345888D01*
X0045710Y0345862D01*
X0045798Y0345832D01*
X0045884Y0345798D01*
X0045968Y0345761D01*
X0046051Y0345719D01*
X0046132Y0345675D01*
X0046212Y0345627D01*
X0046289Y0345576D01*
X0046363Y0345521D01*
X0046436Y0345463D01*
X0046506Y0345403D01*
X0046573Y0345339D01*
X0046637Y0345273D01*
X0046699Y0345203D01*
X0046757Y0345132D01*
X0046812Y0345058D01*
X0046864Y0344981D01*
X0046913Y0344902D01*
X0046959Y0344822D01*
X0047001Y0344739D01*
X0047039Y0344655D01*
X0047074Y0344569D01*
X0047105Y0344482D01*
X0047132Y0344394D01*
X0047155Y0344304D01*
X0047175Y0344214D01*
X0047191Y0344123D01*
X0047203Y0344031D01*
X0047211Y0343939D01*
X0047215Y0343846D01*
X0047215Y0343754D01*
X0047211Y0343661D01*
X0047203Y0343569D01*
X0047191Y0343477D01*
X0047175Y0343386D01*
X0047155Y0343296D01*
X0047132Y0343206D01*
X0047105Y0343118D01*
X0047074Y0343031D01*
X0047039Y0342945D01*
X0047001Y0342861D01*
X0046959Y0342778D01*
X0046913Y0342698D01*
X0046864Y0342619D01*
X0046812Y0342542D01*
X0046757Y0342468D01*
X0046699Y0342397D01*
X0046637Y0342327D01*
X0046573Y0342261D01*
X0046506Y0342197D01*
X0046436Y0342137D01*
X0046363Y0342079D01*
X0046289Y0342024D01*
X0046212Y0341973D01*
X0046133Y0341925D01*
X0046051Y0341881D01*
X0045968Y0341839D01*
X0045884Y0341802D01*
X0045798Y0341768D01*
X0045710Y0341738D01*
X0045622Y0341712D01*
X0045532Y0341689D01*
X0045441Y0341671D01*
X0045350Y0341656D01*
X0045258Y0341645D01*
X0045166Y0341638D01*
X0045073Y0341635D01*
X0044981Y0341636D01*
X0044888Y0341641D01*
X0044796Y0341650D01*
X0044704Y0341663D01*
X0044613Y0341679D01*
X0044523Y0341700D01*
X0044434Y0341724D01*
X0044346Y0341753D01*
X0044259Y0341785D01*
X0044174Y0341820D01*
X0044090Y0341860D01*
X0044008Y0341902D01*
X0043928Y0341949D01*
X0043850Y0341998D01*
X0043774Y0342051D01*
X0043700Y0342107D01*
X0043629Y0342167D01*
X0043561Y0342229D01*
X0043495Y0342294D01*
X0043432Y0342362D01*
X0043372Y0342432D01*
X0043315Y0342505D01*
X0043261Y0342580D01*
X0043211Y0342658D01*
X0043164Y0342738D01*
X0043120Y0342819D01*
X0043080Y0342903D01*
X0043043Y0342988D01*
X0043010Y0343074D01*
X0042981Y0343162D01*
X0042956Y0343251D01*
X0042934Y0343341D01*
X0042917Y0343432D01*
X0042903Y0343523D01*
X0042893Y0343615D01*
X0042887Y0343707D01*
X0042885Y0343800D01*
X0009135Y0045050D02*
X0009137Y0045143D01*
X0009143Y0045235D01*
X0009153Y0045327D01*
X0009167Y0045418D01*
X0009184Y0045509D01*
X0009206Y0045599D01*
X0009231Y0045688D01*
X0009260Y0045776D01*
X0009293Y0045862D01*
X0009330Y0045947D01*
X0009370Y0046031D01*
X0009414Y0046112D01*
X0009461Y0046192D01*
X0009511Y0046270D01*
X0009565Y0046345D01*
X0009622Y0046418D01*
X0009682Y0046488D01*
X0009745Y0046556D01*
X0009811Y0046621D01*
X0009879Y0046683D01*
X0009950Y0046743D01*
X0010024Y0046799D01*
X0010100Y0046852D01*
X0010178Y0046901D01*
X0010258Y0046948D01*
X0010340Y0046990D01*
X0010424Y0047030D01*
X0010509Y0047065D01*
X0010596Y0047097D01*
X0010684Y0047126D01*
X0010773Y0047150D01*
X0010863Y0047171D01*
X0010954Y0047187D01*
X0011046Y0047200D01*
X0011138Y0047209D01*
X0011231Y0047214D01*
X0011323Y0047215D01*
X0011416Y0047212D01*
X0011508Y0047205D01*
X0011600Y0047194D01*
X0011691Y0047179D01*
X0011782Y0047161D01*
X0011872Y0047138D01*
X0011960Y0047112D01*
X0012048Y0047082D01*
X0012134Y0047048D01*
X0012218Y0047011D01*
X0012301Y0046969D01*
X0012382Y0046925D01*
X0012462Y0046877D01*
X0012539Y0046826D01*
X0012613Y0046771D01*
X0012686Y0046713D01*
X0012756Y0046653D01*
X0012823Y0046589D01*
X0012887Y0046523D01*
X0012949Y0046453D01*
X0013007Y0046382D01*
X0013062Y0046308D01*
X0013114Y0046231D01*
X0013163Y0046152D01*
X0013209Y0046072D01*
X0013251Y0045989D01*
X0013289Y0045905D01*
X0013324Y0045819D01*
X0013355Y0045732D01*
X0013382Y0045644D01*
X0013405Y0045554D01*
X0013425Y0045464D01*
X0013441Y0045373D01*
X0013453Y0045281D01*
X0013461Y0045189D01*
X0013465Y0045096D01*
X0013465Y0045004D01*
X0013461Y0044911D01*
X0013453Y0044819D01*
X0013441Y0044727D01*
X0013425Y0044636D01*
X0013405Y0044546D01*
X0013382Y0044456D01*
X0013355Y0044368D01*
X0013324Y0044281D01*
X0013289Y0044195D01*
X0013251Y0044111D01*
X0013209Y0044028D01*
X0013163Y0043948D01*
X0013114Y0043869D01*
X0013062Y0043792D01*
X0013007Y0043718D01*
X0012949Y0043647D01*
X0012887Y0043577D01*
X0012823Y0043511D01*
X0012756Y0043447D01*
X0012686Y0043387D01*
X0012613Y0043329D01*
X0012539Y0043274D01*
X0012462Y0043223D01*
X0012383Y0043175D01*
X0012301Y0043131D01*
X0012218Y0043089D01*
X0012134Y0043052D01*
X0012048Y0043018D01*
X0011960Y0042988D01*
X0011872Y0042962D01*
X0011782Y0042939D01*
X0011691Y0042921D01*
X0011600Y0042906D01*
X0011508Y0042895D01*
X0011416Y0042888D01*
X0011323Y0042885D01*
X0011231Y0042886D01*
X0011138Y0042891D01*
X0011046Y0042900D01*
X0010954Y0042913D01*
X0010863Y0042929D01*
X0010773Y0042950D01*
X0010684Y0042974D01*
X0010596Y0043003D01*
X0010509Y0043035D01*
X0010424Y0043070D01*
X0010340Y0043110D01*
X0010258Y0043152D01*
X0010178Y0043199D01*
X0010100Y0043248D01*
X0010024Y0043301D01*
X0009950Y0043357D01*
X0009879Y0043417D01*
X0009811Y0043479D01*
X0009745Y0043544D01*
X0009682Y0043612D01*
X0009622Y0043682D01*
X0009565Y0043755D01*
X0009511Y0043830D01*
X0009461Y0043908D01*
X0009414Y0043988D01*
X0009370Y0044069D01*
X0009330Y0044153D01*
X0009293Y0044238D01*
X0009260Y0044324D01*
X0009231Y0044412D01*
X0009206Y0044501D01*
X0009184Y0044591D01*
X0009167Y0044682D01*
X0009153Y0044773D01*
X0009143Y0044865D01*
X0009137Y0044957D01*
X0009135Y0045050D01*
D23*
X0105828Y0021457D03*
D24*
X0105828Y0031300D03*
X0105828Y0041143D03*
X0048741Y0041143D03*
X0048741Y0021457D03*
D25*
X0071576Y0016339D02*
X0071576Y0009646D01*
X0081024Y0009646D01*
X0081024Y0016339D01*
X0071576Y0016339D01*
X0071576Y0012993D02*
X0081024Y0012993D01*
X0081024Y0046261D02*
X0071576Y0046261D01*
X0071576Y0052954D01*
X0081024Y0052954D01*
X0081024Y0046261D01*
X0081024Y0049607D02*
X0071576Y0049607D01*
D26*
X0048800Y0034484D03*
X0048800Y0029366D03*
X0114425Y0026984D03*
X0114425Y0021866D03*
X0114425Y0035616D03*
X0114425Y0040734D03*
X0183800Y0093741D03*
X0183800Y0098859D03*
X0218800Y0143741D03*
X0218800Y0148859D03*
X0231300Y0148859D03*
X0236300Y0148859D03*
X0236300Y0143741D03*
X0231300Y0143741D03*
X0271300Y0163741D03*
X0271300Y0168859D03*
X0277550Y0168859D03*
X0277550Y0163741D03*
X0277550Y0176241D03*
X0277550Y0181359D03*
X0271300Y0181359D03*
X0271300Y0176241D03*
X0286300Y0208741D03*
X0286300Y0213859D03*
X0268800Y0218741D03*
X0268800Y0223859D03*
X0261300Y0223859D03*
X0261300Y0218741D03*
X0271300Y0258741D03*
X0271300Y0263859D03*
X0286300Y0273741D03*
X0286300Y0278859D03*
X0296300Y0278859D03*
X0296300Y0273741D03*
X0266300Y0293741D03*
X0261300Y0293741D03*
X0256300Y0293741D03*
X0256300Y0298859D03*
X0261300Y0298859D03*
X0266300Y0298859D03*
X0266300Y0318741D03*
X0266300Y0323859D03*
X0266300Y0336241D03*
X0266300Y0341359D03*
X0271300Y0341359D03*
X0276300Y0341359D03*
X0276300Y0336241D03*
X0271300Y0336241D03*
X0283800Y0336241D03*
X0283800Y0341359D03*
X0175050Y0223234D03*
X0175050Y0218116D03*
X0169425Y0218116D03*
X0169425Y0223234D03*
X0180050Y0186359D03*
X0180050Y0181241D03*
X0088800Y0246241D03*
X0088800Y0251359D03*
X0066300Y0206359D03*
X0061300Y0206359D03*
X0061300Y0201241D03*
X0066300Y0201241D03*
X0227550Y0033859D03*
X0227550Y0028741D03*
X0286300Y0063741D03*
X0286300Y0068859D03*
X0296300Y0053859D03*
X0296300Y0048741D03*
X0286300Y0138741D03*
X0286300Y0143859D03*
D27*
X0271497Y0118662D02*
X0271499Y0118770D01*
X0271505Y0118879D01*
X0271515Y0118987D01*
X0271529Y0119094D01*
X0271547Y0119201D01*
X0271568Y0119308D01*
X0271594Y0119413D01*
X0271624Y0119518D01*
X0271657Y0119621D01*
X0271694Y0119723D01*
X0271735Y0119823D01*
X0271779Y0119922D01*
X0271828Y0120020D01*
X0271879Y0120115D01*
X0271934Y0120208D01*
X0271993Y0120300D01*
X0272055Y0120389D01*
X0272120Y0120476D01*
X0272188Y0120560D01*
X0272259Y0120642D01*
X0272333Y0120721D01*
X0272410Y0120797D01*
X0272490Y0120871D01*
X0272573Y0120941D01*
X0272658Y0121009D01*
X0272745Y0121073D01*
X0272835Y0121134D01*
X0272927Y0121192D01*
X0273021Y0121246D01*
X0273117Y0121297D01*
X0273214Y0121344D01*
X0273314Y0121388D01*
X0273415Y0121428D01*
X0273517Y0121464D01*
X0273620Y0121496D01*
X0273725Y0121525D01*
X0273831Y0121549D01*
X0273937Y0121570D01*
X0274044Y0121587D01*
X0274152Y0121600D01*
X0274260Y0121609D01*
X0274369Y0121614D01*
X0274477Y0121615D01*
X0274586Y0121612D01*
X0274694Y0121605D01*
X0274802Y0121594D01*
X0274909Y0121579D01*
X0275016Y0121560D01*
X0275122Y0121537D01*
X0275227Y0121511D01*
X0275332Y0121480D01*
X0275434Y0121446D01*
X0275536Y0121408D01*
X0275636Y0121366D01*
X0275735Y0121321D01*
X0275832Y0121272D01*
X0275926Y0121219D01*
X0276019Y0121163D01*
X0276110Y0121104D01*
X0276199Y0121041D01*
X0276285Y0120976D01*
X0276369Y0120907D01*
X0276450Y0120835D01*
X0276528Y0120760D01*
X0276604Y0120682D01*
X0276677Y0120601D01*
X0276747Y0120518D01*
X0276813Y0120433D01*
X0276877Y0120345D01*
X0276937Y0120254D01*
X0276994Y0120162D01*
X0277047Y0120067D01*
X0277097Y0119971D01*
X0277143Y0119873D01*
X0277186Y0119773D01*
X0277225Y0119672D01*
X0277260Y0119569D01*
X0277292Y0119466D01*
X0277319Y0119361D01*
X0277343Y0119255D01*
X0277363Y0119148D01*
X0277379Y0119041D01*
X0277391Y0118933D01*
X0277399Y0118825D01*
X0277403Y0118716D01*
X0277403Y0118608D01*
X0277399Y0118499D01*
X0277391Y0118391D01*
X0277379Y0118283D01*
X0277363Y0118176D01*
X0277343Y0118069D01*
X0277319Y0117963D01*
X0277292Y0117858D01*
X0277260Y0117755D01*
X0277225Y0117652D01*
X0277186Y0117551D01*
X0277143Y0117451D01*
X0277097Y0117353D01*
X0277047Y0117257D01*
X0276994Y0117162D01*
X0276937Y0117070D01*
X0276877Y0116979D01*
X0276813Y0116891D01*
X0276747Y0116806D01*
X0276677Y0116723D01*
X0276604Y0116642D01*
X0276528Y0116564D01*
X0276450Y0116489D01*
X0276369Y0116417D01*
X0276285Y0116348D01*
X0276199Y0116283D01*
X0276110Y0116220D01*
X0276019Y0116161D01*
X0275927Y0116105D01*
X0275832Y0116052D01*
X0275735Y0116003D01*
X0275636Y0115958D01*
X0275536Y0115916D01*
X0275434Y0115878D01*
X0275332Y0115844D01*
X0275227Y0115813D01*
X0275122Y0115787D01*
X0275016Y0115764D01*
X0274909Y0115745D01*
X0274802Y0115730D01*
X0274694Y0115719D01*
X0274586Y0115712D01*
X0274477Y0115709D01*
X0274369Y0115710D01*
X0274260Y0115715D01*
X0274152Y0115724D01*
X0274044Y0115737D01*
X0273937Y0115754D01*
X0273831Y0115775D01*
X0273725Y0115799D01*
X0273620Y0115828D01*
X0273517Y0115860D01*
X0273415Y0115896D01*
X0273314Y0115936D01*
X0273214Y0115980D01*
X0273117Y0116027D01*
X0273021Y0116078D01*
X0272927Y0116132D01*
X0272835Y0116190D01*
X0272745Y0116251D01*
X0272658Y0116315D01*
X0272573Y0116383D01*
X0272490Y0116453D01*
X0272410Y0116527D01*
X0272333Y0116603D01*
X0272259Y0116682D01*
X0272188Y0116764D01*
X0272120Y0116848D01*
X0272055Y0116935D01*
X0271993Y0117024D01*
X0271934Y0117116D01*
X0271879Y0117209D01*
X0271828Y0117304D01*
X0271779Y0117402D01*
X0271735Y0117501D01*
X0271694Y0117601D01*
X0271657Y0117703D01*
X0271624Y0117806D01*
X0271594Y0117911D01*
X0271568Y0118016D01*
X0271547Y0118123D01*
X0271529Y0118230D01*
X0271515Y0118337D01*
X0271505Y0118445D01*
X0271499Y0118554D01*
X0271497Y0118662D01*
X0165197Y0118662D02*
X0165199Y0118770D01*
X0165205Y0118879D01*
X0165215Y0118987D01*
X0165229Y0119094D01*
X0165247Y0119201D01*
X0165268Y0119308D01*
X0165294Y0119413D01*
X0165324Y0119518D01*
X0165357Y0119621D01*
X0165394Y0119723D01*
X0165435Y0119823D01*
X0165479Y0119922D01*
X0165528Y0120020D01*
X0165579Y0120115D01*
X0165634Y0120208D01*
X0165693Y0120300D01*
X0165755Y0120389D01*
X0165820Y0120476D01*
X0165888Y0120560D01*
X0165959Y0120642D01*
X0166033Y0120721D01*
X0166110Y0120797D01*
X0166190Y0120871D01*
X0166273Y0120941D01*
X0166358Y0121009D01*
X0166445Y0121073D01*
X0166535Y0121134D01*
X0166627Y0121192D01*
X0166721Y0121246D01*
X0166817Y0121297D01*
X0166914Y0121344D01*
X0167014Y0121388D01*
X0167115Y0121428D01*
X0167217Y0121464D01*
X0167320Y0121496D01*
X0167425Y0121525D01*
X0167531Y0121549D01*
X0167637Y0121570D01*
X0167744Y0121587D01*
X0167852Y0121600D01*
X0167960Y0121609D01*
X0168069Y0121614D01*
X0168177Y0121615D01*
X0168286Y0121612D01*
X0168394Y0121605D01*
X0168502Y0121594D01*
X0168609Y0121579D01*
X0168716Y0121560D01*
X0168822Y0121537D01*
X0168927Y0121511D01*
X0169032Y0121480D01*
X0169134Y0121446D01*
X0169236Y0121408D01*
X0169336Y0121366D01*
X0169435Y0121321D01*
X0169532Y0121272D01*
X0169626Y0121219D01*
X0169719Y0121163D01*
X0169810Y0121104D01*
X0169899Y0121041D01*
X0169985Y0120976D01*
X0170069Y0120907D01*
X0170150Y0120835D01*
X0170228Y0120760D01*
X0170304Y0120682D01*
X0170377Y0120601D01*
X0170447Y0120518D01*
X0170513Y0120433D01*
X0170577Y0120345D01*
X0170637Y0120254D01*
X0170694Y0120162D01*
X0170747Y0120067D01*
X0170797Y0119971D01*
X0170843Y0119873D01*
X0170886Y0119773D01*
X0170925Y0119672D01*
X0170960Y0119569D01*
X0170992Y0119466D01*
X0171019Y0119361D01*
X0171043Y0119255D01*
X0171063Y0119148D01*
X0171079Y0119041D01*
X0171091Y0118933D01*
X0171099Y0118825D01*
X0171103Y0118716D01*
X0171103Y0118608D01*
X0171099Y0118499D01*
X0171091Y0118391D01*
X0171079Y0118283D01*
X0171063Y0118176D01*
X0171043Y0118069D01*
X0171019Y0117963D01*
X0170992Y0117858D01*
X0170960Y0117755D01*
X0170925Y0117652D01*
X0170886Y0117551D01*
X0170843Y0117451D01*
X0170797Y0117353D01*
X0170747Y0117257D01*
X0170694Y0117162D01*
X0170637Y0117070D01*
X0170577Y0116979D01*
X0170513Y0116891D01*
X0170447Y0116806D01*
X0170377Y0116723D01*
X0170304Y0116642D01*
X0170228Y0116564D01*
X0170150Y0116489D01*
X0170069Y0116417D01*
X0169985Y0116348D01*
X0169899Y0116283D01*
X0169810Y0116220D01*
X0169719Y0116161D01*
X0169627Y0116105D01*
X0169532Y0116052D01*
X0169435Y0116003D01*
X0169336Y0115958D01*
X0169236Y0115916D01*
X0169134Y0115878D01*
X0169032Y0115844D01*
X0168927Y0115813D01*
X0168822Y0115787D01*
X0168716Y0115764D01*
X0168609Y0115745D01*
X0168502Y0115730D01*
X0168394Y0115719D01*
X0168286Y0115712D01*
X0168177Y0115709D01*
X0168069Y0115710D01*
X0167960Y0115715D01*
X0167852Y0115724D01*
X0167744Y0115737D01*
X0167637Y0115754D01*
X0167531Y0115775D01*
X0167425Y0115799D01*
X0167320Y0115828D01*
X0167217Y0115860D01*
X0167115Y0115896D01*
X0167014Y0115936D01*
X0166914Y0115980D01*
X0166817Y0116027D01*
X0166721Y0116078D01*
X0166627Y0116132D01*
X0166535Y0116190D01*
X0166445Y0116251D01*
X0166358Y0116315D01*
X0166273Y0116383D01*
X0166190Y0116453D01*
X0166110Y0116527D01*
X0166033Y0116603D01*
X0165959Y0116682D01*
X0165888Y0116764D01*
X0165820Y0116848D01*
X0165755Y0116935D01*
X0165693Y0117024D01*
X0165634Y0117116D01*
X0165579Y0117209D01*
X0165528Y0117304D01*
X0165479Y0117402D01*
X0165435Y0117501D01*
X0165394Y0117601D01*
X0165357Y0117703D01*
X0165324Y0117806D01*
X0165294Y0117911D01*
X0165268Y0118016D01*
X0165247Y0118123D01*
X0165229Y0118230D01*
X0165215Y0118337D01*
X0165205Y0118445D01*
X0165199Y0118554D01*
X0165197Y0118662D01*
X0132323Y0144843D02*
X0132325Y0144951D01*
X0132331Y0145060D01*
X0132341Y0145168D01*
X0132355Y0145275D01*
X0132373Y0145382D01*
X0132394Y0145489D01*
X0132420Y0145594D01*
X0132450Y0145699D01*
X0132483Y0145802D01*
X0132520Y0145904D01*
X0132561Y0146004D01*
X0132605Y0146103D01*
X0132654Y0146201D01*
X0132705Y0146296D01*
X0132760Y0146389D01*
X0132819Y0146481D01*
X0132881Y0146570D01*
X0132946Y0146657D01*
X0133014Y0146741D01*
X0133085Y0146823D01*
X0133159Y0146902D01*
X0133236Y0146978D01*
X0133316Y0147052D01*
X0133399Y0147122D01*
X0133484Y0147190D01*
X0133571Y0147254D01*
X0133661Y0147315D01*
X0133753Y0147373D01*
X0133847Y0147427D01*
X0133943Y0147478D01*
X0134040Y0147525D01*
X0134140Y0147569D01*
X0134241Y0147609D01*
X0134343Y0147645D01*
X0134446Y0147677D01*
X0134551Y0147706D01*
X0134657Y0147730D01*
X0134763Y0147751D01*
X0134870Y0147768D01*
X0134978Y0147781D01*
X0135086Y0147790D01*
X0135195Y0147795D01*
X0135303Y0147796D01*
X0135412Y0147793D01*
X0135520Y0147786D01*
X0135628Y0147775D01*
X0135735Y0147760D01*
X0135842Y0147741D01*
X0135948Y0147718D01*
X0136053Y0147692D01*
X0136158Y0147661D01*
X0136260Y0147627D01*
X0136362Y0147589D01*
X0136462Y0147547D01*
X0136561Y0147502D01*
X0136658Y0147453D01*
X0136752Y0147400D01*
X0136845Y0147344D01*
X0136936Y0147285D01*
X0137025Y0147222D01*
X0137111Y0147157D01*
X0137195Y0147088D01*
X0137276Y0147016D01*
X0137354Y0146941D01*
X0137430Y0146863D01*
X0137503Y0146782D01*
X0137573Y0146699D01*
X0137639Y0146614D01*
X0137703Y0146526D01*
X0137763Y0146435D01*
X0137820Y0146343D01*
X0137873Y0146248D01*
X0137923Y0146152D01*
X0137969Y0146054D01*
X0138012Y0145954D01*
X0138051Y0145853D01*
X0138086Y0145750D01*
X0138118Y0145647D01*
X0138145Y0145542D01*
X0138169Y0145436D01*
X0138189Y0145329D01*
X0138205Y0145222D01*
X0138217Y0145114D01*
X0138225Y0145006D01*
X0138229Y0144897D01*
X0138229Y0144789D01*
X0138225Y0144680D01*
X0138217Y0144572D01*
X0138205Y0144464D01*
X0138189Y0144357D01*
X0138169Y0144250D01*
X0138145Y0144144D01*
X0138118Y0144039D01*
X0138086Y0143936D01*
X0138051Y0143833D01*
X0138012Y0143732D01*
X0137969Y0143632D01*
X0137923Y0143534D01*
X0137873Y0143438D01*
X0137820Y0143343D01*
X0137763Y0143251D01*
X0137703Y0143160D01*
X0137639Y0143072D01*
X0137573Y0142987D01*
X0137503Y0142904D01*
X0137430Y0142823D01*
X0137354Y0142745D01*
X0137276Y0142670D01*
X0137195Y0142598D01*
X0137111Y0142529D01*
X0137025Y0142464D01*
X0136936Y0142401D01*
X0136845Y0142342D01*
X0136753Y0142286D01*
X0136658Y0142233D01*
X0136561Y0142184D01*
X0136462Y0142139D01*
X0136362Y0142097D01*
X0136260Y0142059D01*
X0136158Y0142025D01*
X0136053Y0141994D01*
X0135948Y0141968D01*
X0135842Y0141945D01*
X0135735Y0141926D01*
X0135628Y0141911D01*
X0135520Y0141900D01*
X0135412Y0141893D01*
X0135303Y0141890D01*
X0135195Y0141891D01*
X0135086Y0141896D01*
X0134978Y0141905D01*
X0134870Y0141918D01*
X0134763Y0141935D01*
X0134657Y0141956D01*
X0134551Y0141980D01*
X0134446Y0142009D01*
X0134343Y0142041D01*
X0134241Y0142077D01*
X0134140Y0142117D01*
X0134040Y0142161D01*
X0133943Y0142208D01*
X0133847Y0142259D01*
X0133753Y0142313D01*
X0133661Y0142371D01*
X0133571Y0142432D01*
X0133484Y0142496D01*
X0133399Y0142564D01*
X0133316Y0142634D01*
X0133236Y0142708D01*
X0133159Y0142784D01*
X0133085Y0142863D01*
X0133014Y0142945D01*
X0132946Y0143029D01*
X0132881Y0143116D01*
X0132819Y0143205D01*
X0132760Y0143297D01*
X0132705Y0143390D01*
X0132654Y0143485D01*
X0132605Y0143583D01*
X0132561Y0143682D01*
X0132520Y0143782D01*
X0132483Y0143884D01*
X0132450Y0143987D01*
X0132420Y0144092D01*
X0132394Y0144197D01*
X0132373Y0144304D01*
X0132355Y0144411D01*
X0132341Y0144518D01*
X0132331Y0144626D01*
X0132325Y0144735D01*
X0132323Y0144843D01*
X0132323Y0211772D02*
X0132325Y0211880D01*
X0132331Y0211989D01*
X0132341Y0212097D01*
X0132355Y0212204D01*
X0132373Y0212311D01*
X0132394Y0212418D01*
X0132420Y0212523D01*
X0132450Y0212628D01*
X0132483Y0212731D01*
X0132520Y0212833D01*
X0132561Y0212933D01*
X0132605Y0213032D01*
X0132654Y0213130D01*
X0132705Y0213225D01*
X0132760Y0213318D01*
X0132819Y0213410D01*
X0132881Y0213499D01*
X0132946Y0213586D01*
X0133014Y0213670D01*
X0133085Y0213752D01*
X0133159Y0213831D01*
X0133236Y0213907D01*
X0133316Y0213981D01*
X0133399Y0214051D01*
X0133484Y0214119D01*
X0133571Y0214183D01*
X0133661Y0214244D01*
X0133753Y0214302D01*
X0133847Y0214356D01*
X0133943Y0214407D01*
X0134040Y0214454D01*
X0134140Y0214498D01*
X0134241Y0214538D01*
X0134343Y0214574D01*
X0134446Y0214606D01*
X0134551Y0214635D01*
X0134657Y0214659D01*
X0134763Y0214680D01*
X0134870Y0214697D01*
X0134978Y0214710D01*
X0135086Y0214719D01*
X0135195Y0214724D01*
X0135303Y0214725D01*
X0135412Y0214722D01*
X0135520Y0214715D01*
X0135628Y0214704D01*
X0135735Y0214689D01*
X0135842Y0214670D01*
X0135948Y0214647D01*
X0136053Y0214621D01*
X0136158Y0214590D01*
X0136260Y0214556D01*
X0136362Y0214518D01*
X0136462Y0214476D01*
X0136561Y0214431D01*
X0136658Y0214382D01*
X0136752Y0214329D01*
X0136845Y0214273D01*
X0136936Y0214214D01*
X0137025Y0214151D01*
X0137111Y0214086D01*
X0137195Y0214017D01*
X0137276Y0213945D01*
X0137354Y0213870D01*
X0137430Y0213792D01*
X0137503Y0213711D01*
X0137573Y0213628D01*
X0137639Y0213543D01*
X0137703Y0213455D01*
X0137763Y0213364D01*
X0137820Y0213272D01*
X0137873Y0213177D01*
X0137923Y0213081D01*
X0137969Y0212983D01*
X0138012Y0212883D01*
X0138051Y0212782D01*
X0138086Y0212679D01*
X0138118Y0212576D01*
X0138145Y0212471D01*
X0138169Y0212365D01*
X0138189Y0212258D01*
X0138205Y0212151D01*
X0138217Y0212043D01*
X0138225Y0211935D01*
X0138229Y0211826D01*
X0138229Y0211718D01*
X0138225Y0211609D01*
X0138217Y0211501D01*
X0138205Y0211393D01*
X0138189Y0211286D01*
X0138169Y0211179D01*
X0138145Y0211073D01*
X0138118Y0210968D01*
X0138086Y0210865D01*
X0138051Y0210762D01*
X0138012Y0210661D01*
X0137969Y0210561D01*
X0137923Y0210463D01*
X0137873Y0210367D01*
X0137820Y0210272D01*
X0137763Y0210180D01*
X0137703Y0210089D01*
X0137639Y0210001D01*
X0137573Y0209916D01*
X0137503Y0209833D01*
X0137430Y0209752D01*
X0137354Y0209674D01*
X0137276Y0209599D01*
X0137195Y0209527D01*
X0137111Y0209458D01*
X0137025Y0209393D01*
X0136936Y0209330D01*
X0136845Y0209271D01*
X0136753Y0209215D01*
X0136658Y0209162D01*
X0136561Y0209113D01*
X0136462Y0209068D01*
X0136362Y0209026D01*
X0136260Y0208988D01*
X0136158Y0208954D01*
X0136053Y0208923D01*
X0135948Y0208897D01*
X0135842Y0208874D01*
X0135735Y0208855D01*
X0135628Y0208840D01*
X0135520Y0208829D01*
X0135412Y0208822D01*
X0135303Y0208819D01*
X0135195Y0208820D01*
X0135086Y0208825D01*
X0134978Y0208834D01*
X0134870Y0208847D01*
X0134763Y0208864D01*
X0134657Y0208885D01*
X0134551Y0208909D01*
X0134446Y0208938D01*
X0134343Y0208970D01*
X0134241Y0209006D01*
X0134140Y0209046D01*
X0134040Y0209090D01*
X0133943Y0209137D01*
X0133847Y0209188D01*
X0133753Y0209242D01*
X0133661Y0209300D01*
X0133571Y0209361D01*
X0133484Y0209425D01*
X0133399Y0209493D01*
X0133316Y0209563D01*
X0133236Y0209637D01*
X0133159Y0209713D01*
X0133085Y0209792D01*
X0133014Y0209874D01*
X0132946Y0209958D01*
X0132881Y0210045D01*
X0132819Y0210134D01*
X0132760Y0210226D01*
X0132705Y0210319D01*
X0132654Y0210414D01*
X0132605Y0210512D01*
X0132561Y0210611D01*
X0132520Y0210711D01*
X0132483Y0210813D01*
X0132450Y0210916D01*
X0132420Y0211021D01*
X0132394Y0211126D01*
X0132373Y0211233D01*
X0132355Y0211340D01*
X0132341Y0211447D01*
X0132331Y0211555D01*
X0132325Y0211664D01*
X0132323Y0211772D01*
X0165197Y0244646D02*
X0165199Y0244754D01*
X0165205Y0244863D01*
X0165215Y0244971D01*
X0165229Y0245078D01*
X0165247Y0245185D01*
X0165268Y0245292D01*
X0165294Y0245397D01*
X0165324Y0245502D01*
X0165357Y0245605D01*
X0165394Y0245707D01*
X0165435Y0245807D01*
X0165479Y0245906D01*
X0165528Y0246004D01*
X0165579Y0246099D01*
X0165634Y0246192D01*
X0165693Y0246284D01*
X0165755Y0246373D01*
X0165820Y0246460D01*
X0165888Y0246544D01*
X0165959Y0246626D01*
X0166033Y0246705D01*
X0166110Y0246781D01*
X0166190Y0246855D01*
X0166273Y0246925D01*
X0166358Y0246993D01*
X0166445Y0247057D01*
X0166535Y0247118D01*
X0166627Y0247176D01*
X0166721Y0247230D01*
X0166817Y0247281D01*
X0166914Y0247328D01*
X0167014Y0247372D01*
X0167115Y0247412D01*
X0167217Y0247448D01*
X0167320Y0247480D01*
X0167425Y0247509D01*
X0167531Y0247533D01*
X0167637Y0247554D01*
X0167744Y0247571D01*
X0167852Y0247584D01*
X0167960Y0247593D01*
X0168069Y0247598D01*
X0168177Y0247599D01*
X0168286Y0247596D01*
X0168394Y0247589D01*
X0168502Y0247578D01*
X0168609Y0247563D01*
X0168716Y0247544D01*
X0168822Y0247521D01*
X0168927Y0247495D01*
X0169032Y0247464D01*
X0169134Y0247430D01*
X0169236Y0247392D01*
X0169336Y0247350D01*
X0169435Y0247305D01*
X0169532Y0247256D01*
X0169626Y0247203D01*
X0169719Y0247147D01*
X0169810Y0247088D01*
X0169899Y0247025D01*
X0169985Y0246960D01*
X0170069Y0246891D01*
X0170150Y0246819D01*
X0170228Y0246744D01*
X0170304Y0246666D01*
X0170377Y0246585D01*
X0170447Y0246502D01*
X0170513Y0246417D01*
X0170577Y0246329D01*
X0170637Y0246238D01*
X0170694Y0246146D01*
X0170747Y0246051D01*
X0170797Y0245955D01*
X0170843Y0245857D01*
X0170886Y0245757D01*
X0170925Y0245656D01*
X0170960Y0245553D01*
X0170992Y0245450D01*
X0171019Y0245345D01*
X0171043Y0245239D01*
X0171063Y0245132D01*
X0171079Y0245025D01*
X0171091Y0244917D01*
X0171099Y0244809D01*
X0171103Y0244700D01*
X0171103Y0244592D01*
X0171099Y0244483D01*
X0171091Y0244375D01*
X0171079Y0244267D01*
X0171063Y0244160D01*
X0171043Y0244053D01*
X0171019Y0243947D01*
X0170992Y0243842D01*
X0170960Y0243739D01*
X0170925Y0243636D01*
X0170886Y0243535D01*
X0170843Y0243435D01*
X0170797Y0243337D01*
X0170747Y0243241D01*
X0170694Y0243146D01*
X0170637Y0243054D01*
X0170577Y0242963D01*
X0170513Y0242875D01*
X0170447Y0242790D01*
X0170377Y0242707D01*
X0170304Y0242626D01*
X0170228Y0242548D01*
X0170150Y0242473D01*
X0170069Y0242401D01*
X0169985Y0242332D01*
X0169899Y0242267D01*
X0169810Y0242204D01*
X0169719Y0242145D01*
X0169627Y0242089D01*
X0169532Y0242036D01*
X0169435Y0241987D01*
X0169336Y0241942D01*
X0169236Y0241900D01*
X0169134Y0241862D01*
X0169032Y0241828D01*
X0168927Y0241797D01*
X0168822Y0241771D01*
X0168716Y0241748D01*
X0168609Y0241729D01*
X0168502Y0241714D01*
X0168394Y0241703D01*
X0168286Y0241696D01*
X0168177Y0241693D01*
X0168069Y0241694D01*
X0167960Y0241699D01*
X0167852Y0241708D01*
X0167744Y0241721D01*
X0167637Y0241738D01*
X0167531Y0241759D01*
X0167425Y0241783D01*
X0167320Y0241812D01*
X0167217Y0241844D01*
X0167115Y0241880D01*
X0167014Y0241920D01*
X0166914Y0241964D01*
X0166817Y0242011D01*
X0166721Y0242062D01*
X0166627Y0242116D01*
X0166535Y0242174D01*
X0166445Y0242235D01*
X0166358Y0242299D01*
X0166273Y0242367D01*
X0166190Y0242437D01*
X0166110Y0242511D01*
X0166033Y0242587D01*
X0165959Y0242666D01*
X0165888Y0242748D01*
X0165820Y0242832D01*
X0165755Y0242919D01*
X0165693Y0243008D01*
X0165634Y0243100D01*
X0165579Y0243193D01*
X0165528Y0243288D01*
X0165479Y0243386D01*
X0165435Y0243485D01*
X0165394Y0243585D01*
X0165357Y0243687D01*
X0165324Y0243790D01*
X0165294Y0243895D01*
X0165268Y0244000D01*
X0165247Y0244107D01*
X0165229Y0244214D01*
X0165215Y0244321D01*
X0165205Y0244429D01*
X0165199Y0244538D01*
X0165197Y0244646D01*
X0271497Y0244646D02*
X0271499Y0244754D01*
X0271505Y0244863D01*
X0271515Y0244971D01*
X0271529Y0245078D01*
X0271547Y0245185D01*
X0271568Y0245292D01*
X0271594Y0245397D01*
X0271624Y0245502D01*
X0271657Y0245605D01*
X0271694Y0245707D01*
X0271735Y0245807D01*
X0271779Y0245906D01*
X0271828Y0246004D01*
X0271879Y0246099D01*
X0271934Y0246192D01*
X0271993Y0246284D01*
X0272055Y0246373D01*
X0272120Y0246460D01*
X0272188Y0246544D01*
X0272259Y0246626D01*
X0272333Y0246705D01*
X0272410Y0246781D01*
X0272490Y0246855D01*
X0272573Y0246925D01*
X0272658Y0246993D01*
X0272745Y0247057D01*
X0272835Y0247118D01*
X0272927Y0247176D01*
X0273021Y0247230D01*
X0273117Y0247281D01*
X0273214Y0247328D01*
X0273314Y0247372D01*
X0273415Y0247412D01*
X0273517Y0247448D01*
X0273620Y0247480D01*
X0273725Y0247509D01*
X0273831Y0247533D01*
X0273937Y0247554D01*
X0274044Y0247571D01*
X0274152Y0247584D01*
X0274260Y0247593D01*
X0274369Y0247598D01*
X0274477Y0247599D01*
X0274586Y0247596D01*
X0274694Y0247589D01*
X0274802Y0247578D01*
X0274909Y0247563D01*
X0275016Y0247544D01*
X0275122Y0247521D01*
X0275227Y0247495D01*
X0275332Y0247464D01*
X0275434Y0247430D01*
X0275536Y0247392D01*
X0275636Y0247350D01*
X0275735Y0247305D01*
X0275832Y0247256D01*
X0275926Y0247203D01*
X0276019Y0247147D01*
X0276110Y0247088D01*
X0276199Y0247025D01*
X0276285Y0246960D01*
X0276369Y0246891D01*
X0276450Y0246819D01*
X0276528Y0246744D01*
X0276604Y0246666D01*
X0276677Y0246585D01*
X0276747Y0246502D01*
X0276813Y0246417D01*
X0276877Y0246329D01*
X0276937Y0246238D01*
X0276994Y0246146D01*
X0277047Y0246051D01*
X0277097Y0245955D01*
X0277143Y0245857D01*
X0277186Y0245757D01*
X0277225Y0245656D01*
X0277260Y0245553D01*
X0277292Y0245450D01*
X0277319Y0245345D01*
X0277343Y0245239D01*
X0277363Y0245132D01*
X0277379Y0245025D01*
X0277391Y0244917D01*
X0277399Y0244809D01*
X0277403Y0244700D01*
X0277403Y0244592D01*
X0277399Y0244483D01*
X0277391Y0244375D01*
X0277379Y0244267D01*
X0277363Y0244160D01*
X0277343Y0244053D01*
X0277319Y0243947D01*
X0277292Y0243842D01*
X0277260Y0243739D01*
X0277225Y0243636D01*
X0277186Y0243535D01*
X0277143Y0243435D01*
X0277097Y0243337D01*
X0277047Y0243241D01*
X0276994Y0243146D01*
X0276937Y0243054D01*
X0276877Y0242963D01*
X0276813Y0242875D01*
X0276747Y0242790D01*
X0276677Y0242707D01*
X0276604Y0242626D01*
X0276528Y0242548D01*
X0276450Y0242473D01*
X0276369Y0242401D01*
X0276285Y0242332D01*
X0276199Y0242267D01*
X0276110Y0242204D01*
X0276019Y0242145D01*
X0275927Y0242089D01*
X0275832Y0242036D01*
X0275735Y0241987D01*
X0275636Y0241942D01*
X0275536Y0241900D01*
X0275434Y0241862D01*
X0275332Y0241828D01*
X0275227Y0241797D01*
X0275122Y0241771D01*
X0275016Y0241748D01*
X0274909Y0241729D01*
X0274802Y0241714D01*
X0274694Y0241703D01*
X0274586Y0241696D01*
X0274477Y0241693D01*
X0274369Y0241694D01*
X0274260Y0241699D01*
X0274152Y0241708D01*
X0274044Y0241721D01*
X0273937Y0241738D01*
X0273831Y0241759D01*
X0273725Y0241783D01*
X0273620Y0241812D01*
X0273517Y0241844D01*
X0273415Y0241880D01*
X0273314Y0241920D01*
X0273214Y0241964D01*
X0273117Y0242011D01*
X0273021Y0242062D01*
X0272927Y0242116D01*
X0272835Y0242174D01*
X0272745Y0242235D01*
X0272658Y0242299D01*
X0272573Y0242367D01*
X0272490Y0242437D01*
X0272410Y0242511D01*
X0272333Y0242587D01*
X0272259Y0242666D01*
X0272188Y0242748D01*
X0272120Y0242832D01*
X0272055Y0242919D01*
X0271993Y0243008D01*
X0271934Y0243100D01*
X0271879Y0243193D01*
X0271828Y0243288D01*
X0271779Y0243386D01*
X0271735Y0243485D01*
X0271694Y0243585D01*
X0271657Y0243687D01*
X0271624Y0243790D01*
X0271594Y0243895D01*
X0271568Y0244000D01*
X0271547Y0244107D01*
X0271529Y0244214D01*
X0271515Y0244321D01*
X0271505Y0244429D01*
X0271499Y0244538D01*
X0271497Y0244646D01*
D28*
X0274450Y0244646D03*
X0168150Y0244646D03*
X0135276Y0211772D03*
X0135276Y0144843D03*
X0168150Y0118662D03*
X0274450Y0118662D03*
D29*
X0280257Y0110788D03*
X0280257Y0236772D03*
X0162343Y0236772D03*
X0143150Y0217580D03*
X0143150Y0139036D03*
X0162343Y0110788D03*
D30*
X0192776Y0012009D02*
X0192776Y0008465D01*
X0197776Y0008465D02*
X0197776Y0012009D01*
X0202776Y0012009D02*
X0202776Y0008465D01*
X0207776Y0008465D02*
X0207776Y0012009D01*
X0212776Y0012009D02*
X0212776Y0008465D01*
X0217776Y0008465D02*
X0217776Y0012009D01*
X0222776Y0012009D02*
X0222776Y0008465D01*
X0227776Y0008465D02*
X0227776Y0012009D01*
D31*
X0318347Y0023229D02*
X0318347Y0029135D01*
X0318347Y0062599D02*
X0318347Y0068505D01*
D32*
X0305631Y0066300D03*
X0296969Y0062560D03*
X0296969Y0070040D03*
D33*
X0296300Y0077954D03*
X0296300Y0084646D03*
X0172771Y0208800D03*
X0166079Y0208800D03*
D34*
X0270551Y0322640D02*
X0292049Y0322640D01*
X0292049Y0309960D01*
X0270551Y0309960D01*
X0270551Y0322640D01*
X0270551Y0310626D02*
X0292049Y0310626D01*
X0292049Y0311292D02*
X0270551Y0311292D01*
X0270551Y0311958D02*
X0292049Y0311958D01*
X0292049Y0312624D02*
X0270551Y0312624D01*
X0270551Y0313290D02*
X0292049Y0313290D01*
X0292049Y0313956D02*
X0270551Y0313956D01*
X0270551Y0314622D02*
X0292049Y0314622D01*
X0292049Y0315288D02*
X0270551Y0315288D01*
X0270551Y0315954D02*
X0292049Y0315954D01*
X0292049Y0316620D02*
X0270551Y0316620D01*
X0270551Y0317286D02*
X0292049Y0317286D01*
X0292049Y0317952D02*
X0270551Y0317952D01*
X0270551Y0318618D02*
X0292049Y0318618D01*
X0292049Y0319284D02*
X0270551Y0319284D01*
X0270551Y0319950D02*
X0292049Y0319950D01*
X0292049Y0320616D02*
X0270551Y0320616D01*
X0270551Y0321282D02*
X0292049Y0321282D01*
X0292049Y0321948D02*
X0270551Y0321948D01*
X0270551Y0322614D02*
X0292049Y0322614D01*
D35*
X0295040Y0291300D03*
X0287560Y0291300D03*
D36*
X0276300Y0293790D03*
X0276300Y0286310D03*
D37*
X0163175Y0200237D03*
X0163175Y0192363D03*
D38*
X0187550Y0194204D03*
X0187550Y0200896D03*
D39*
X0178958Y0200631D02*
X0178958Y0201811D01*
X0181122Y0201811D01*
X0181122Y0200631D01*
X0178958Y0200631D01*
X0178958Y0201024D02*
X0181122Y0201024D01*
X0181122Y0201417D02*
X0178958Y0201417D01*
X0178958Y0201810D02*
X0181122Y0201810D01*
X0178958Y0199843D02*
X0178958Y0198663D01*
X0178958Y0199843D02*
X0181122Y0199843D01*
X0181122Y0198663D01*
X0178958Y0198663D01*
X0178958Y0199056D02*
X0181122Y0199056D01*
X0181122Y0199449D02*
X0178958Y0199449D01*
X0178958Y0199842D02*
X0181122Y0199842D01*
X0178958Y0197874D02*
X0178958Y0196694D01*
X0178958Y0197874D02*
X0181122Y0197874D01*
X0181122Y0196694D01*
X0178958Y0196694D01*
X0178958Y0197087D02*
X0181122Y0197087D01*
X0181122Y0197480D02*
X0178958Y0197480D01*
X0178958Y0197873D02*
X0181122Y0197873D01*
X0178958Y0195906D02*
X0178958Y0194726D01*
X0178958Y0195906D02*
X0181122Y0195906D01*
X0181122Y0194726D01*
X0178958Y0194726D01*
X0178958Y0195119D02*
X0181122Y0195119D01*
X0181122Y0195512D02*
X0178958Y0195512D01*
X0178958Y0195905D02*
X0181122Y0195905D01*
X0178958Y0193937D02*
X0178958Y0192757D01*
X0178958Y0193937D02*
X0181122Y0193937D01*
X0181122Y0192757D01*
X0178958Y0192757D01*
X0178958Y0193150D02*
X0181122Y0193150D01*
X0181122Y0193543D02*
X0178958Y0193543D01*
X0178958Y0193936D02*
X0181122Y0193936D01*
X0178958Y0191969D02*
X0178958Y0190789D01*
X0178958Y0191969D02*
X0181122Y0191969D01*
X0181122Y0190789D01*
X0178958Y0190789D01*
X0178958Y0191182D02*
X0181122Y0191182D01*
X0181122Y0191575D02*
X0178958Y0191575D01*
X0178958Y0191968D02*
X0181122Y0191968D01*
X0173642Y0191969D02*
X0173642Y0190789D01*
X0171478Y0190789D01*
X0171478Y0191969D01*
X0173642Y0191969D01*
X0173642Y0191182D02*
X0171478Y0191182D01*
X0171478Y0191575D02*
X0173642Y0191575D01*
X0173642Y0191968D02*
X0171478Y0191968D01*
X0173642Y0192757D02*
X0173642Y0193937D01*
X0173642Y0192757D02*
X0171478Y0192757D01*
X0171478Y0193937D01*
X0173642Y0193937D01*
X0173642Y0193150D02*
X0171478Y0193150D01*
X0171478Y0193543D02*
X0173642Y0193543D01*
X0173642Y0193936D02*
X0171478Y0193936D01*
X0173642Y0194726D02*
X0173642Y0195906D01*
X0173642Y0194726D02*
X0171478Y0194726D01*
X0171478Y0195906D01*
X0173642Y0195906D01*
X0173642Y0195119D02*
X0171478Y0195119D01*
X0171478Y0195512D02*
X0173642Y0195512D01*
X0173642Y0195905D02*
X0171478Y0195905D01*
X0173642Y0196694D02*
X0173642Y0197874D01*
X0173642Y0196694D02*
X0171478Y0196694D01*
X0171478Y0197874D01*
X0173642Y0197874D01*
X0173642Y0197087D02*
X0171478Y0197087D01*
X0171478Y0197480D02*
X0173642Y0197480D01*
X0173642Y0197873D02*
X0171478Y0197873D01*
X0173642Y0198663D02*
X0173642Y0199843D01*
X0173642Y0198663D02*
X0171478Y0198663D01*
X0171478Y0199843D01*
X0173642Y0199843D01*
X0173642Y0199056D02*
X0171478Y0199056D01*
X0171478Y0199449D02*
X0173642Y0199449D01*
X0173642Y0199842D02*
X0171478Y0199842D01*
X0173642Y0200631D02*
X0173642Y0201811D01*
X0173642Y0200631D02*
X0171478Y0200631D01*
X0171478Y0201811D01*
X0173642Y0201811D01*
X0173642Y0201024D02*
X0171478Y0201024D01*
X0171478Y0201417D02*
X0173642Y0201417D01*
X0173642Y0201810D02*
X0171478Y0201810D01*
D40*
X0174543Y0192378D02*
X0178057Y0192378D01*
X0174543Y0192378D02*
X0174543Y0200222D01*
X0178057Y0200222D01*
X0178057Y0192378D01*
X0178057Y0192997D02*
X0174543Y0192997D01*
X0174543Y0193616D02*
X0178057Y0193616D01*
X0178057Y0194235D02*
X0174543Y0194235D01*
X0174543Y0194854D02*
X0178057Y0194854D01*
X0178057Y0195473D02*
X0174543Y0195473D01*
X0174543Y0196092D02*
X0178057Y0196092D01*
X0178057Y0196711D02*
X0174543Y0196711D01*
X0174543Y0197330D02*
X0178057Y0197330D01*
X0178057Y0197949D02*
X0174543Y0197949D01*
X0174543Y0198568D02*
X0178057Y0198568D01*
X0178057Y0199187D02*
X0174543Y0199187D01*
X0174543Y0199806D02*
X0178057Y0199806D01*
D41*
X0176300Y0198800D03*
X0176300Y0196300D03*
X0176300Y0193800D03*
D42*
X0214922Y0295237D03*
X0236300Y0296300D03*
X0333800Y0036300D03*
D43*
X0343800Y0036300D03*
X0343800Y0026300D03*
X0343800Y0016300D03*
X0333800Y0016300D03*
X0333800Y0026300D03*
X0236300Y0286300D03*
X0214922Y0287363D03*
X0207048Y0287363D03*
X0199174Y0287363D03*
X0199174Y0295237D03*
X0191300Y0295237D03*
X0183426Y0295237D03*
X0183426Y0287363D03*
X0191300Y0287363D03*
X0175552Y0287363D03*
X0175552Y0295237D03*
X0167678Y0295237D03*
X0167678Y0287363D03*
X0207048Y0295237D03*
D44*
X0215276Y0193032D03*
X0217245Y0193032D03*
X0219213Y0193032D03*
X0221182Y0193032D03*
X0223150Y0193032D03*
X0225119Y0193032D03*
X0227087Y0193032D03*
X0229056Y0193032D03*
X0231024Y0193032D03*
X0232993Y0193032D03*
X0234961Y0193032D03*
X0236930Y0193032D03*
X0237324Y0159568D03*
X0235355Y0159568D03*
X0233387Y0159568D03*
X0231418Y0159568D03*
X0229450Y0159568D03*
X0227481Y0159568D03*
X0225513Y0159568D03*
X0223544Y0159568D03*
X0221576Y0159568D03*
X0219607Y0159568D03*
X0217639Y0159568D03*
X0215670Y0159568D03*
D45*
X0209568Y0165276D03*
X0209568Y0167245D03*
X0209568Y0169213D03*
X0209568Y0171182D03*
X0209568Y0173150D03*
X0209568Y0175119D03*
X0209568Y0177087D03*
X0209568Y0179056D03*
X0209568Y0181024D03*
X0209568Y0182993D03*
X0209568Y0184961D03*
X0209568Y0186930D03*
X0243032Y0187324D03*
X0243032Y0185355D03*
X0243032Y0183387D03*
X0243032Y0181418D03*
X0243032Y0179450D03*
X0243032Y0177481D03*
X0243032Y0175513D03*
X0243032Y0173544D03*
X0243032Y0171576D03*
X0243032Y0169607D03*
X0243032Y0167639D03*
X0243032Y0165670D03*
D46*
X0214398Y0208800D03*
X0203202Y0208800D03*
D47*
X0287050Y0204000D02*
X0305550Y0204000D01*
X0305550Y0200400D01*
X0287050Y0200400D01*
X0287050Y0204000D01*
X0287050Y0200589D02*
X0305550Y0200589D01*
X0305550Y0200778D02*
X0287050Y0200778D01*
X0287050Y0200967D02*
X0305550Y0200967D01*
X0305550Y0201156D02*
X0287050Y0201156D01*
X0287050Y0201345D02*
X0305550Y0201345D01*
X0305550Y0201534D02*
X0287050Y0201534D01*
X0287050Y0201723D02*
X0305550Y0201723D01*
X0305550Y0201912D02*
X0287050Y0201912D01*
X0287050Y0202101D02*
X0305550Y0202101D01*
X0305550Y0202290D02*
X0287050Y0202290D01*
X0287050Y0202479D02*
X0305550Y0202479D01*
X0305550Y0202668D02*
X0287050Y0202668D01*
X0287050Y0202857D02*
X0305550Y0202857D01*
X0305550Y0203046D02*
X0287050Y0203046D01*
X0287050Y0203235D02*
X0305550Y0203235D01*
X0305550Y0203424D02*
X0287050Y0203424D01*
X0287050Y0203613D02*
X0305550Y0203613D01*
X0305550Y0203802D02*
X0287050Y0203802D01*
X0287050Y0203991D02*
X0305550Y0203991D01*
X0305550Y0196800D02*
X0287050Y0196800D01*
X0305550Y0196800D02*
X0305550Y0193200D01*
X0287050Y0193200D01*
X0287050Y0196800D01*
X0287050Y0193389D02*
X0305550Y0193389D01*
X0305550Y0193578D02*
X0287050Y0193578D01*
X0287050Y0193767D02*
X0305550Y0193767D01*
X0305550Y0193956D02*
X0287050Y0193956D01*
X0287050Y0194145D02*
X0305550Y0194145D01*
X0305550Y0194334D02*
X0287050Y0194334D01*
X0287050Y0194523D02*
X0305550Y0194523D01*
X0305550Y0194712D02*
X0287050Y0194712D01*
X0287050Y0194901D02*
X0305550Y0194901D01*
X0305550Y0195090D02*
X0287050Y0195090D01*
X0287050Y0195279D02*
X0305550Y0195279D01*
X0305550Y0195468D02*
X0287050Y0195468D01*
X0287050Y0195657D02*
X0305550Y0195657D01*
X0305550Y0195846D02*
X0287050Y0195846D01*
X0287050Y0196035D02*
X0305550Y0196035D01*
X0305550Y0196224D02*
X0287050Y0196224D01*
X0287050Y0196413D02*
X0305550Y0196413D01*
X0305550Y0196602D02*
X0287050Y0196602D01*
X0287050Y0196791D02*
X0305550Y0196791D01*
X0305550Y0159300D02*
X0287050Y0159300D01*
X0305550Y0159300D02*
X0305550Y0155700D01*
X0287050Y0155700D01*
X0287050Y0159300D01*
X0287050Y0155889D02*
X0305550Y0155889D01*
X0305550Y0156078D02*
X0287050Y0156078D01*
X0287050Y0156267D02*
X0305550Y0156267D01*
X0305550Y0156456D02*
X0287050Y0156456D01*
X0287050Y0156645D02*
X0305550Y0156645D01*
X0305550Y0156834D02*
X0287050Y0156834D01*
X0287050Y0157023D02*
X0305550Y0157023D01*
X0305550Y0157212D02*
X0287050Y0157212D01*
X0287050Y0157401D02*
X0305550Y0157401D01*
X0305550Y0157590D02*
X0287050Y0157590D01*
X0287050Y0157779D02*
X0305550Y0157779D01*
X0305550Y0157968D02*
X0287050Y0157968D01*
X0287050Y0158157D02*
X0305550Y0158157D01*
X0305550Y0158346D02*
X0287050Y0158346D01*
X0287050Y0158535D02*
X0305550Y0158535D01*
X0305550Y0158724D02*
X0287050Y0158724D01*
X0287050Y0158913D02*
X0305550Y0158913D01*
X0305550Y0159102D02*
X0287050Y0159102D01*
X0287050Y0159291D02*
X0305550Y0159291D01*
X0305550Y0152100D02*
X0287050Y0152100D01*
X0305550Y0152100D02*
X0305550Y0148500D01*
X0287050Y0148500D01*
X0287050Y0152100D01*
X0287050Y0148689D02*
X0305550Y0148689D01*
X0305550Y0148878D02*
X0287050Y0148878D01*
X0287050Y0149067D02*
X0305550Y0149067D01*
X0305550Y0149256D02*
X0287050Y0149256D01*
X0287050Y0149445D02*
X0305550Y0149445D01*
X0305550Y0149634D02*
X0287050Y0149634D01*
X0287050Y0149823D02*
X0305550Y0149823D01*
X0305550Y0150012D02*
X0287050Y0150012D01*
X0287050Y0150201D02*
X0305550Y0150201D01*
X0305550Y0150390D02*
X0287050Y0150390D01*
X0287050Y0150579D02*
X0305550Y0150579D01*
X0305550Y0150768D02*
X0287050Y0150768D01*
X0287050Y0150957D02*
X0305550Y0150957D01*
X0305550Y0151146D02*
X0287050Y0151146D01*
X0287050Y0151335D02*
X0305550Y0151335D01*
X0305550Y0151524D02*
X0287050Y0151524D01*
X0287050Y0151713D02*
X0305550Y0151713D01*
X0305550Y0151902D02*
X0287050Y0151902D01*
X0287050Y0152091D02*
X0305550Y0152091D01*
D48*
X0305570Y0163720D02*
X0287030Y0163720D01*
X0305570Y0163720D02*
X0305570Y0160880D01*
X0287030Y0160880D01*
X0287030Y0163720D01*
X0287030Y0161029D02*
X0305570Y0161029D01*
X0305570Y0161178D02*
X0287030Y0161178D01*
X0287030Y0161327D02*
X0305570Y0161327D01*
X0305570Y0161476D02*
X0287030Y0161476D01*
X0287030Y0161625D02*
X0305570Y0161625D01*
X0305570Y0161774D02*
X0287030Y0161774D01*
X0287030Y0161923D02*
X0305570Y0161923D01*
X0305570Y0162072D02*
X0287030Y0162072D01*
X0287030Y0162221D02*
X0305570Y0162221D01*
X0305570Y0162370D02*
X0287030Y0162370D01*
X0287030Y0162519D02*
X0305570Y0162519D01*
X0305570Y0162668D02*
X0287030Y0162668D01*
X0287030Y0162817D02*
X0305570Y0162817D01*
X0305570Y0162966D02*
X0287030Y0162966D01*
X0287030Y0163115D02*
X0305570Y0163115D01*
X0305570Y0163264D02*
X0287030Y0163264D01*
X0287030Y0163413D02*
X0305570Y0163413D01*
X0305570Y0163562D02*
X0287030Y0163562D01*
X0287030Y0163711D02*
X0305570Y0163711D01*
X0305570Y0167720D02*
X0287030Y0167720D01*
X0305570Y0167720D02*
X0305570Y0164880D01*
X0287030Y0164880D01*
X0287030Y0167720D01*
X0287030Y0165029D02*
X0305570Y0165029D01*
X0305570Y0165178D02*
X0287030Y0165178D01*
X0287030Y0165327D02*
X0305570Y0165327D01*
X0305570Y0165476D02*
X0287030Y0165476D01*
X0287030Y0165625D02*
X0305570Y0165625D01*
X0305570Y0165774D02*
X0287030Y0165774D01*
X0287030Y0165923D02*
X0305570Y0165923D01*
X0305570Y0166072D02*
X0287030Y0166072D01*
X0287030Y0166221D02*
X0305570Y0166221D01*
X0305570Y0166370D02*
X0287030Y0166370D01*
X0287030Y0166519D02*
X0305570Y0166519D01*
X0305570Y0166668D02*
X0287030Y0166668D01*
X0287030Y0166817D02*
X0305570Y0166817D01*
X0305570Y0166966D02*
X0287030Y0166966D01*
X0287030Y0167115D02*
X0305570Y0167115D01*
X0305570Y0167264D02*
X0287030Y0167264D01*
X0287030Y0167413D02*
X0305570Y0167413D01*
X0305570Y0167562D02*
X0287030Y0167562D01*
X0287030Y0167711D02*
X0305570Y0167711D01*
X0305570Y0171720D02*
X0287030Y0171720D01*
X0305570Y0171720D02*
X0305570Y0168880D01*
X0287030Y0168880D01*
X0287030Y0171720D01*
X0287030Y0169029D02*
X0305570Y0169029D01*
X0305570Y0169178D02*
X0287030Y0169178D01*
X0287030Y0169327D02*
X0305570Y0169327D01*
X0305570Y0169476D02*
X0287030Y0169476D01*
X0287030Y0169625D02*
X0305570Y0169625D01*
X0305570Y0169774D02*
X0287030Y0169774D01*
X0287030Y0169923D02*
X0305570Y0169923D01*
X0305570Y0170072D02*
X0287030Y0170072D01*
X0287030Y0170221D02*
X0305570Y0170221D01*
X0305570Y0170370D02*
X0287030Y0170370D01*
X0287030Y0170519D02*
X0305570Y0170519D01*
X0305570Y0170668D02*
X0287030Y0170668D01*
X0287030Y0170817D02*
X0305570Y0170817D01*
X0305570Y0170966D02*
X0287030Y0170966D01*
X0287030Y0171115D02*
X0305570Y0171115D01*
X0305570Y0171264D02*
X0287030Y0171264D01*
X0287030Y0171413D02*
X0305570Y0171413D01*
X0305570Y0171562D02*
X0287030Y0171562D01*
X0287030Y0171711D02*
X0305570Y0171711D01*
X0305570Y0175720D02*
X0287030Y0175720D01*
X0305570Y0175720D02*
X0305570Y0172880D01*
X0287030Y0172880D01*
X0287030Y0175720D01*
X0287030Y0173029D02*
X0305570Y0173029D01*
X0305570Y0173178D02*
X0287030Y0173178D01*
X0287030Y0173327D02*
X0305570Y0173327D01*
X0305570Y0173476D02*
X0287030Y0173476D01*
X0287030Y0173625D02*
X0305570Y0173625D01*
X0305570Y0173774D02*
X0287030Y0173774D01*
X0287030Y0173923D02*
X0305570Y0173923D01*
X0305570Y0174072D02*
X0287030Y0174072D01*
X0287030Y0174221D02*
X0305570Y0174221D01*
X0305570Y0174370D02*
X0287030Y0174370D01*
X0287030Y0174519D02*
X0305570Y0174519D01*
X0305570Y0174668D02*
X0287030Y0174668D01*
X0287030Y0174817D02*
X0305570Y0174817D01*
X0305570Y0174966D02*
X0287030Y0174966D01*
X0287030Y0175115D02*
X0305570Y0175115D01*
X0305570Y0175264D02*
X0287030Y0175264D01*
X0287030Y0175413D02*
X0305570Y0175413D01*
X0305570Y0175562D02*
X0287030Y0175562D01*
X0287030Y0175711D02*
X0305570Y0175711D01*
X0305570Y0179720D02*
X0287030Y0179720D01*
X0305570Y0179720D02*
X0305570Y0176880D01*
X0287030Y0176880D01*
X0287030Y0179720D01*
X0287030Y0177029D02*
X0305570Y0177029D01*
X0305570Y0177178D02*
X0287030Y0177178D01*
X0287030Y0177327D02*
X0305570Y0177327D01*
X0305570Y0177476D02*
X0287030Y0177476D01*
X0287030Y0177625D02*
X0305570Y0177625D01*
X0305570Y0177774D02*
X0287030Y0177774D01*
X0287030Y0177923D02*
X0305570Y0177923D01*
X0305570Y0178072D02*
X0287030Y0178072D01*
X0287030Y0178221D02*
X0305570Y0178221D01*
X0305570Y0178370D02*
X0287030Y0178370D01*
X0287030Y0178519D02*
X0305570Y0178519D01*
X0305570Y0178668D02*
X0287030Y0178668D01*
X0287030Y0178817D02*
X0305570Y0178817D01*
X0305570Y0178966D02*
X0287030Y0178966D01*
X0287030Y0179115D02*
X0305570Y0179115D01*
X0305570Y0179264D02*
X0287030Y0179264D01*
X0287030Y0179413D02*
X0305570Y0179413D01*
X0305570Y0179562D02*
X0287030Y0179562D01*
X0287030Y0179711D02*
X0305570Y0179711D01*
X0305570Y0183720D02*
X0287030Y0183720D01*
X0305570Y0183720D02*
X0305570Y0180880D01*
X0287030Y0180880D01*
X0287030Y0183720D01*
X0287030Y0181029D02*
X0305570Y0181029D01*
X0305570Y0181178D02*
X0287030Y0181178D01*
X0287030Y0181327D02*
X0305570Y0181327D01*
X0305570Y0181476D02*
X0287030Y0181476D01*
X0287030Y0181625D02*
X0305570Y0181625D01*
X0305570Y0181774D02*
X0287030Y0181774D01*
X0287030Y0181923D02*
X0305570Y0181923D01*
X0305570Y0182072D02*
X0287030Y0182072D01*
X0287030Y0182221D02*
X0305570Y0182221D01*
X0305570Y0182370D02*
X0287030Y0182370D01*
X0287030Y0182519D02*
X0305570Y0182519D01*
X0305570Y0182668D02*
X0287030Y0182668D01*
X0287030Y0182817D02*
X0305570Y0182817D01*
X0305570Y0182966D02*
X0287030Y0182966D01*
X0287030Y0183115D02*
X0305570Y0183115D01*
X0305570Y0183264D02*
X0287030Y0183264D01*
X0287030Y0183413D02*
X0305570Y0183413D01*
X0305570Y0183562D02*
X0287030Y0183562D01*
X0287030Y0183711D02*
X0305570Y0183711D01*
X0305570Y0187720D02*
X0287030Y0187720D01*
X0305570Y0187720D02*
X0305570Y0184880D01*
X0287030Y0184880D01*
X0287030Y0187720D01*
X0287030Y0185029D02*
X0305570Y0185029D01*
X0305570Y0185178D02*
X0287030Y0185178D01*
X0287030Y0185327D02*
X0305570Y0185327D01*
X0305570Y0185476D02*
X0287030Y0185476D01*
X0287030Y0185625D02*
X0305570Y0185625D01*
X0305570Y0185774D02*
X0287030Y0185774D01*
X0287030Y0185923D02*
X0305570Y0185923D01*
X0305570Y0186072D02*
X0287030Y0186072D01*
X0287030Y0186221D02*
X0305570Y0186221D01*
X0305570Y0186370D02*
X0287030Y0186370D01*
X0287030Y0186519D02*
X0305570Y0186519D01*
X0305570Y0186668D02*
X0287030Y0186668D01*
X0287030Y0186817D02*
X0305570Y0186817D01*
X0305570Y0186966D02*
X0287030Y0186966D01*
X0287030Y0187115D02*
X0305570Y0187115D01*
X0305570Y0187264D02*
X0287030Y0187264D01*
X0287030Y0187413D02*
X0305570Y0187413D01*
X0305570Y0187562D02*
X0287030Y0187562D01*
X0287030Y0187711D02*
X0305570Y0187711D01*
X0305570Y0191720D02*
X0287030Y0191720D01*
X0305570Y0191720D02*
X0305570Y0188880D01*
X0287030Y0188880D01*
X0287030Y0191720D01*
X0287030Y0189029D02*
X0305570Y0189029D01*
X0305570Y0189178D02*
X0287030Y0189178D01*
X0287030Y0189327D02*
X0305570Y0189327D01*
X0305570Y0189476D02*
X0287030Y0189476D01*
X0287030Y0189625D02*
X0305570Y0189625D01*
X0305570Y0189774D02*
X0287030Y0189774D01*
X0287030Y0189923D02*
X0305570Y0189923D01*
X0305570Y0190072D02*
X0287030Y0190072D01*
X0287030Y0190221D02*
X0305570Y0190221D01*
X0305570Y0190370D02*
X0287030Y0190370D01*
X0287030Y0190519D02*
X0305570Y0190519D01*
X0305570Y0190668D02*
X0287030Y0190668D01*
X0287030Y0190817D02*
X0305570Y0190817D01*
X0305570Y0190966D02*
X0287030Y0190966D01*
X0287030Y0191115D02*
X0305570Y0191115D01*
X0305570Y0191264D02*
X0287030Y0191264D01*
X0287030Y0191413D02*
X0305570Y0191413D01*
X0305570Y0191562D02*
X0287030Y0191562D01*
X0287030Y0191711D02*
X0305570Y0191711D01*
D49*
X0368054Y0206554D02*
X0368054Y0214346D01*
X0381446Y0214346D01*
X0381446Y0206554D01*
X0368054Y0206554D01*
X0368054Y0209151D02*
X0381446Y0209151D01*
X0381446Y0211748D02*
X0368054Y0211748D01*
X0368054Y0214345D02*
X0381446Y0214345D01*
X0368054Y0146046D02*
X0368054Y0138254D01*
X0368054Y0146046D02*
X0381446Y0146046D01*
X0381446Y0138254D01*
X0368054Y0138254D01*
X0368054Y0140851D02*
X0381446Y0140851D01*
X0381446Y0143448D02*
X0368054Y0143448D01*
X0368054Y0146045D02*
X0381446Y0146045D01*
D50*
X0374750Y0151300D03*
X0374750Y0201300D03*
D51*
X0340050Y0163800D03*
X0336300Y0158800D03*
X0332550Y0167550D03*
X0320050Y0155050D03*
X0322550Y0151300D03*
X0317550Y0147550D03*
X0315050Y0140050D03*
X0328800Y0136300D03*
X0330700Y0128800D03*
X0330900Y0119200D03*
X0331300Y0142550D03*
X0290050Y0132550D03*
X0286300Y0132550D03*
X0282550Y0138800D03*
X0285050Y0156300D03*
X0275050Y0160050D03*
X0267550Y0168800D03*
X0267550Y0176300D03*
X0258800Y0175050D03*
X0258800Y0168800D03*
X0258800Y0161300D03*
X0248800Y0167550D03*
X0248800Y0172550D03*
X0251300Y0175050D03*
X0247550Y0177300D03*
X0250050Y0181300D03*
X0250050Y0186300D03*
X0247550Y0192550D03*
X0243800Y0190050D03*
X0230050Y0187550D03*
X0226300Y0187550D03*
X0220050Y0187550D03*
X0208800Y0190050D03*
X0213800Y0176300D03*
X0213800Y0172550D03*
X0215050Y0169213D03*
X0212550Y0158800D03*
X0226300Y0151300D03*
X0215050Y0143800D03*
X0211300Y0141300D03*
X0203800Y0138800D03*
X0196300Y0145050D03*
X0192550Y0145050D03*
X0198800Y0148800D03*
X0205050Y0128800D03*
X0215050Y0128800D03*
X0215050Y0133800D03*
X0217550Y0136300D03*
X0222550Y0136300D03*
X0225050Y0133800D03*
X0230050Y0131300D03*
X0228800Y0127550D03*
X0225050Y0127550D03*
X0232550Y0116300D03*
X0235050Y0113800D03*
X0228800Y0113800D03*
X0218800Y0115050D03*
X0215050Y0115050D03*
X0212550Y0117550D03*
X0205050Y0116300D03*
X0198800Y0115050D03*
X0183668Y0117418D03*
X0181432Y0115182D03*
X0176168Y0115182D03*
X0173932Y0117418D03*
X0172550Y0128800D03*
X0180050Y0128800D03*
X0181300Y0102550D03*
X0185050Y0102550D03*
X0175050Y0102550D03*
X0180050Y0093800D03*
X0161300Y0091300D03*
X0161300Y0097550D03*
X0146300Y0123800D03*
X0155050Y0142550D03*
X0138800Y0153800D03*
X0138800Y0160050D03*
X0138800Y0166300D03*
X0138800Y0171300D03*
X0138800Y0177550D03*
X0138800Y0183800D03*
X0138800Y0192550D03*
X0120050Y0196300D03*
X0099425Y0178800D03*
X0096300Y0168800D03*
X0093800Y0166300D03*
X0085050Y0167550D03*
X0081526Y0178800D03*
X0078574Y0178800D03*
X0076300Y0181300D03*
X0070050Y0178800D03*
X0071300Y0170050D03*
X0076300Y0158800D03*
X0075050Y0152550D03*
X0086300Y0151300D03*
X0095050Y0153800D03*
X0101925Y0146300D03*
X0097418Y0137418D03*
X0095182Y0135182D03*
X0091168Y0132418D03*
X0088932Y0130182D03*
X0080503Y0137097D03*
X0071300Y0131300D03*
X0063800Y0126300D03*
X0051300Y0140050D03*
X0055050Y0142550D03*
X0058800Y0151300D03*
X0058800Y0158800D03*
X0058800Y0161925D03*
X0058800Y0166300D03*
X0053800Y0167550D03*
X0058800Y0173800D03*
X0056300Y0181300D03*
X0046300Y0181300D03*
X0038800Y0171300D03*
X0033800Y0171300D03*
X0042550Y0152550D03*
X0027550Y0138800D03*
X0022550Y0138800D03*
X0022550Y0103800D03*
X0022550Y0098800D03*
X0043800Y0101300D03*
X0073800Y0103175D03*
X0078800Y0103175D03*
X0082550Y0120800D03*
X0108932Y0138932D03*
X0111168Y0141168D03*
X0115050Y0152550D03*
X0117550Y0156300D03*
X0112550Y0160050D03*
X0117550Y0163800D03*
X0115050Y0168800D03*
X0127550Y0146300D03*
X0127550Y0140050D03*
X0127550Y0133800D03*
X0155050Y0168800D03*
X0167550Y0160050D03*
X0171300Y0162550D03*
X0175050Y0172550D03*
X0177300Y0176300D03*
X0176300Y0181300D03*
X0168800Y0196300D03*
X0160050Y0186300D03*
X0176700Y0208800D03*
X0185050Y0212550D03*
X0190050Y0210050D03*
X0197550Y0208800D03*
X0197550Y0201300D03*
X0191300Y0201300D03*
X0191300Y0193800D03*
X0202550Y0173800D03*
X0190050Y0168800D03*
X0221300Y0206300D03*
X0220050Y0213800D03*
X0220050Y0217550D03*
X0217550Y0226300D03*
X0221300Y0241300D03*
X0228800Y0241300D03*
X0236300Y0240050D03*
X0240050Y0241300D03*
X0250050Y0241300D03*
X0260050Y0241300D03*
X0262550Y0243800D03*
X0264000Y0241100D03*
X0272550Y0251300D03*
X0265050Y0261300D03*
X0268550Y0266800D03*
X0272550Y0266800D03*
X0276300Y0266800D03*
X0280050Y0278800D03*
X0262550Y0278800D03*
X0257550Y0275050D03*
X0256300Y0266800D03*
X0251300Y0266800D03*
X0261300Y0266800D03*
X0253800Y0255050D03*
X0248800Y0255050D03*
X0242550Y0257550D03*
X0241300Y0261300D03*
X0237550Y0277550D03*
X0261300Y0290050D03*
X0266300Y0290050D03*
X0273800Y0300050D03*
X0277550Y0300050D03*
X0267550Y0305050D03*
X0266300Y0315550D03*
X0261300Y0318800D03*
X0258800Y0313800D03*
X0251300Y0306300D03*
X0230787Y0309537D03*
X0231300Y0313800D03*
X0221300Y0328800D03*
X0190050Y0313800D03*
X0190050Y0308800D03*
X0190050Y0303800D03*
X0193800Y0260050D03*
X0196300Y0242550D03*
X0198800Y0238800D03*
X0201300Y0241300D03*
X0211300Y0241300D03*
X0200050Y0227550D03*
X0197550Y0225050D03*
X0187550Y0227550D03*
X0180050Y0227550D03*
X0175050Y0227550D03*
X0176300Y0241300D03*
X0187550Y0241300D03*
X0191300Y0241300D03*
X0157550Y0242550D03*
X0150050Y0252550D03*
X0156300Y0223800D03*
X0096800Y0241300D03*
X0095050Y0250050D03*
X0086925Y0255050D03*
X0086925Y0260050D03*
X0071300Y0251300D03*
X0077550Y0242550D03*
X0082550Y0241300D03*
X0062550Y0238800D03*
X0058800Y0243175D03*
X0057550Y0238800D03*
X0053800Y0243175D03*
X0053800Y0259425D03*
X0058800Y0259425D03*
X0080050Y0281300D03*
X0062550Y0282550D03*
X0068800Y0306300D03*
X0068800Y0326300D03*
X0065050Y0337550D03*
X0066300Y0343800D03*
X0065050Y0351300D03*
X0076300Y0342550D03*
X0086300Y0343800D03*
X0087550Y0351300D03*
X0100050Y0351300D03*
X0101300Y0343800D03*
X0100050Y0337550D03*
X0103800Y0326300D03*
X0111300Y0342550D03*
X0121300Y0343800D03*
X0122550Y0351300D03*
X0122550Y0337550D03*
X0103800Y0306300D03*
X0087550Y0337550D03*
X0083500Y0218800D03*
X0083500Y0213175D03*
X0066300Y0209550D03*
X0055050Y0213800D03*
X0056300Y0196300D03*
X0062550Y0196300D03*
X0066300Y0195050D03*
X0070050Y0192550D03*
X0085050Y0180050D03*
X0091300Y0187550D03*
X0091300Y0192550D03*
X0041300Y0196300D03*
X0100050Y0087550D03*
X0113800Y0082550D03*
X0118800Y0066925D03*
X0147550Y0068800D03*
X0155050Y0068800D03*
X0182219Y0070050D03*
X0185381Y0070050D03*
X0192219Y0072550D03*
X0195381Y0072550D03*
X0200969Y0082550D03*
X0204131Y0082550D03*
X0217550Y0093800D03*
X0223800Y0101300D03*
X0242550Y0090050D03*
X0256300Y0098800D03*
X0260050Y0102550D03*
X0263800Y0101300D03*
X0267300Y0102550D03*
X0268800Y0096300D03*
X0270050Y0113800D03*
X0269300Y0116800D03*
X0266300Y0117550D03*
X0263800Y0113800D03*
X0260050Y0113800D03*
X0253800Y0115050D03*
X0243800Y0115050D03*
X0261300Y0127550D03*
X0247550Y0143800D03*
X0247550Y0147550D03*
X0247550Y0151300D03*
X0238800Y0165670D03*
X0233800Y0165050D03*
X0260050Y0192550D03*
X0270050Y0198800D03*
X0273800Y0195050D03*
X0275050Y0185050D03*
X0285050Y0192550D03*
X0280050Y0213800D03*
X0273800Y0223800D03*
X0268800Y0227550D03*
X0261300Y0227550D03*
X0261300Y0215050D03*
X0268800Y0212550D03*
X0238800Y0203800D03*
X0232550Y0208800D03*
X0283800Y0248800D03*
X0285050Y0255050D03*
X0311300Y0278800D03*
X0311300Y0292550D03*
X0299200Y0295050D03*
X0301300Y0312550D03*
X0316300Y0315050D03*
X0338800Y0287550D03*
X0336300Y0282550D03*
X0332550Y0285050D03*
X0280050Y0330050D03*
X0272550Y0331300D03*
X0268800Y0331300D03*
X0266300Y0327550D03*
X0268800Y0345050D03*
X0281300Y0346300D03*
X0287550Y0341300D03*
X0318800Y0090050D03*
X0318800Y0086300D03*
X0318800Y0082550D03*
X0318800Y0078800D03*
X0247550Y0043800D03*
X0247550Y0036300D03*
X0247550Y0028800D03*
X0247550Y0021300D03*
X0212550Y0053800D03*
X0216300Y0057550D03*
X0218800Y0066300D03*
X0202550Y0042550D03*
X0145050Y0021300D03*
M02*
